<svg xmlns="http://www.w3.org/2000/svg" width="1200" height="344" viewBox="0 0 1200 344">
<style>
text{font-family:Inter,Pretendard,Arial,sans-serif;fill:#111827;font-size:13px}
.axis{stroke:#64748b;stroke-width:1}.grid{stroke:#e2e8f0;stroke-width:1}.median{stroke:#111827;stroke-width:2}.whisker{stroke:#475569;stroke-width:1.5}.sample{fill:#0f172a;opacity:.35}
</style>
<text x="210" y="30" font-size="20" font-weight="700">ScreenFS benchmark box plot</text>
<text x="210" y="50">seconds; lower is better; box=min/q1/p50/q3/max; p90/p95/p99 markers shown; timestamp 2026-06-21T03:11:43.588792+00:00</text>
<line class="grid" x1="210.00" y1="60" x2="210.00" y2="284"/>
<text x="210.00" y="319" text-anchor="middle">0.0000</text>
<line class="grid" x1="400.00" y1="60" x2="400.00" y2="284"/>
<text x="400.00" y="319" text-anchor="middle">0.0069</text>
<line class="grid" x1="590.00" y1="60" x2="590.00" y2="284"/>
<text x="590.00" y="319" text-anchor="middle">0.0137</text>
<line class="grid" x1="780.00" y1="60" x2="780.00" y2="284"/>
<text x="780.00" y="319" text-anchor="middle">0.0206</text>
<line class="grid" x1="970.00" y1="60" x2="970.00" y2="284"/>
<text x="970.00" y="319" text-anchor="middle">0.0275</text>
<line class="grid" x1="1160.00" y1="60" x2="1160.00" y2="284"/>
<text x="1160.00" y="319" text-anchor="middle">0.0344</text>
<line class="axis" x1="210" y1="284" x2="1160" y2="284"/>
<text x="12" y="91.00">sync_flush_only (native)</text>
<line class="whisker" x1="224.24" y1="87.00" x2="228.47" y2="87.00"/>
<line class="whisker" x1="224.24" y1="80.00" x2="224.24" y2="94.00"/>
<line class="whisker" x1="228.47" y1="80.00" x2="228.47" y2="94.00"/>
<rect x="224.57" y="78.00" width="1.15" height="18" fill="#94a3b8" opacity="0.28" stroke="#94a3b8"/>
<line class="median" x1="224.88" y1="78.00" x2="224.88" y2="96.00"/>
<circle class="sample" cx="227.27" cy="87.00" r="2.5"/>
<circle class="sample" cx="228.47" cy="87.00" r="2.5"/>
<circle class="sample" cx="225.89" cy="87.00" r="2.5"/>
<circle class="sample" cx="224.91" cy="87.00" r="2.5"/>
<circle class="sample" cx="224.24" cy="87.00" r="2.5"/>
<circle class="sample" cx="224.59" cy="87.00" r="2.5"/>
<circle class="sample" cx="224.84" cy="87.00" r="2.5"/>
<circle class="sample" cx="224.47" cy="87.00" r="2.5"/>
<circle class="sample" cx="225.19" cy="87.00" r="2.5"/>
<circle class="sample" cx="224.56" cy="87.00" r="2.5"/>
<polygon points="227.39,73.00 223.39,81.00 231.39,81.00" fill="#f59e0b"><title>p90 0.000629s</title></polygon>
<polygon points="227.93,74.00 223.93,82.00 231.93,82.00" fill="#ef4444"><title>p95 0.000648s</title></polygon>
<polygon points="228.36,75.00 224.36,83.00 232.36,83.00" fill="#7c3aed"><title>p99 0.000664s</title></polygon>
<text x="1160" y="91.00" text-anchor="end">p50 0.000538s p95 0.000648s</text>
<text x="12" y="125.00">sync_fsync_only (native)</text>
<line class="whisker" x1="215.52" y1="121.00" x2="218.06" y2="121.00"/>
<line class="whisker" x1="215.52" y1="114.00" x2="215.52" y2="128.00"/>
<line class="whisker" x1="218.06" y1="114.00" x2="218.06" y2="128.00"/>
<rect x="215.83" y="112.00" width="1.00" height="18" fill="#94a3b8" opacity="0.28" stroke="#94a3b8"/>
<line class="median" x1="216.03" y1="112.00" x2="216.03" y2="130.00"/>
<circle class="sample" cx="215.83" cy="121.00" r="2.5"/>
<circle class="sample" cx="215.52" cy="121.00" r="2.5"/>
<circle class="sample" cx="216.12" cy="121.00" r="2.5"/>
<circle class="sample" cx="215.86" cy="121.00" r="2.5"/>
<circle class="sample" cx="215.94" cy="121.00" r="2.5"/>
<circle class="sample" cx="216.23" cy="121.00" r="2.5"/>
<circle class="sample" cx="216.43" cy="121.00" r="2.5"/>
<circle class="sample" cx="215.79" cy="121.00" r="2.5"/>
<circle class="sample" cx="216.26" cy="121.00" r="2.5"/>
<circle class="sample" cx="218.06" cy="121.00" r="2.5"/>
<polygon points="216.60,107.00 212.60,115.00 220.60,115.00" fill="#f59e0b"><title>p90 0.000239s</title></polygon>
<polygon points="217.33,108.00 213.33,116.00 221.33,116.00" fill="#ef4444"><title>p95 0.000265s</title></polygon>
<polygon points="217.92,109.00 213.92,117.00 221.92,117.00" fill="#7c3aed"><title>p99 0.000286s</title></polygon>
<text x="1160" y="125.00" text-anchor="end">p50 0.000218s p95 0.000265s</text>
<text x="12" y="159.00">sync_release_flush (native)</text>
<line class="whisker" x1="220.40" y1="155.00" x2="221.20" y2="155.00"/>
<line class="whisker" x1="220.40" y1="148.00" x2="220.40" y2="162.00"/>
<line class="whisker" x1="221.20" y1="148.00" x2="221.20" y2="162.00"/>
<rect x="220.76" y="146.00" width="1.00" height="18" fill="#94a3b8" opacity="0.28" stroke="#94a3b8"/>
<line class="median" x1="221.03" y1="146.00" x2="221.03" y2="164.00"/>
<circle class="sample" cx="220.97" cy="155.00" r="2.5"/>
<circle class="sample" cx="221.02" cy="155.00" r="2.5"/>
<circle class="sample" cx="221.20" cy="155.00" r="2.5"/>
<circle class="sample" cx="220.69" cy="155.00" r="2.5"/>
<circle class="sample" cx="221.09" cy="155.00" r="2.5"/>
<circle class="sample" cx="221.04" cy="155.00" r="2.5"/>
<circle class="sample" cx="221.07" cy="155.00" r="2.5"/>
<circle class="sample" cx="221.13" cy="155.00" r="2.5"/>
<circle class="sample" cx="220.51" cy="155.00" r="2.5"/>
<circle class="sample" cx="220.40" cy="155.00" r="2.5"/>
<polygon points="221.13,141.00 217.13,149.00 225.13,149.00" fill="#f59e0b"><title>p90 0.000403s</title></polygon>
<polygon points="221.17,142.00 217.17,150.00 225.17,150.00" fill="#ef4444"><title>p95 0.000404s</title></polygon>
<polygon points="221.20,143.00 217.20,151.00 225.20,151.00" fill="#7c3aed"><title>p99 0.000405s</title></polygon>
<text x="1160" y="159.00" text-anchor="end">p50 0.000399s p95 0.000404s</text>
<text x="12" y="193.00">sync_flush_only (mounted)</text>
<line class="whisker" x1="985.21" y1="189.00" x2="1073.64" y2="189.00"/>
<line class="whisker" x1="985.21" y1="182.00" x2="985.21" y2="196.00"/>
<line class="whisker" x1="1073.64" y1="182.00" x2="1073.64" y2="196.00"/>
<rect x="1003.20" y="180.00" width="52.83" height="18" fill="#2563eb" opacity="0.28" stroke="#2563eb"/>
<line class="median" x1="1021.48" y1="180.00" x2="1021.48" y2="198.00"/>
<circle class="sample" cx="985.21" cy="189.00" r="2.5"/>
<circle class="sample" cx="1073.30" cy="189.00" r="2.5"/>
<circle class="sample" cx="1053.65" cy="189.00" r="2.5"/>
<circle class="sample" cx="1020.71" cy="189.00" r="2.5"/>
<circle class="sample" cx="1073.64" cy="189.00" r="2.5"/>
<circle class="sample" cx="992.48" cy="189.00" r="2.5"/>
<circle class="sample" cx="997.36" cy="189.00" r="2.5"/>
<circle class="sample" cx="1021.61" cy="189.00" r="2.5"/>
<circle class="sample" cx="1021.35" cy="189.00" r="2.5"/>
<circle class="sample" cx="1056.82" cy="189.00" r="2.5"/>
<polygon points="1073.33,175.00 1069.33,183.00 1077.33,183.00" fill="#f59e0b"><title>p90 0.031217s</title></polygon>
<polygon points="1073.49,176.00 1069.49,184.00 1077.49,184.00" fill="#ef4444"><title>p95 0.031223s</title></polygon>
<polygon points="1073.61,177.00 1069.61,185.00 1077.61,185.00" fill="#7c3aed"><title>p99 0.031227s</title></polygon>
<text x="1160" y="193.00" text-anchor="end">p50 0.029342s p95 0.031223s</text>
<text x="12" y="227.00">sync_fsync_only (mounted)</text>
<line class="whisker" x1="472.20" y1="223.00" x2="511.31" y2="223.00"/>
<line class="whisker" x1="472.20" y1="216.00" x2="472.20" y2="230.00"/>
<line class="whisker" x1="511.31" y1="216.00" x2="511.31" y2="230.00"/>
<rect x="479.31" y="214.00" width="12.76" height="18" fill="#2563eb" opacity="0.28" stroke="#2563eb"/>
<line class="median" x1="490.32" y1="214.00" x2="490.32" y2="232.00"/>
<circle class="sample" cx="507.10" cy="223.00" r="2.5"/>
<circle class="sample" cx="484.32" cy="223.00" r="2.5"/>
<circle class="sample" cx="492.48" cy="223.00" r="2.5"/>
<circle class="sample" cx="490.83" cy="223.00" r="2.5"/>
<circle class="sample" cx="511.31" cy="223.00" r="2.5"/>
<circle class="sample" cx="490.13" cy="223.00" r="2.5"/>
<circle class="sample" cx="477.64" cy="223.00" r="2.5"/>
<circle class="sample" cx="472.20" cy="223.00" r="2.5"/>
<circle class="sample" cx="490.50" cy="223.00" r="2.5"/>
<circle class="sample" cx="476.06" cy="223.00" r="2.5"/>
<polygon points="507.52,209.00 503.52,217.00 511.52,217.00" fill="#f59e0b"><title>p90 0.010758s</title></polygon>
<polygon points="509.41,210.00 505.41,218.00 513.41,218.00" fill="#ef4444"><title>p95 0.010826s</title></polygon>
<polygon points="510.93,211.00 506.93,219.00 514.93,219.00" fill="#7c3aed"><title>p99 0.010881s</title></polygon>
<text x="1160" y="227.00" text-anchor="end">p50 0.010136s p95 0.010826s</text>
<text x="12" y="261.00">sync_release_flush (mounted)</text>
<line class="whisker" x1="901.25" y1="257.00" x2="970.65" y2="257.00"/>
<line class="whisker" x1="901.25" y1="250.00" x2="901.25" y2="264.00"/>
<line class="whisker" x1="970.65" y1="250.00" x2="970.65" y2="264.00"/>
<rect x="910.92" y="248.00" width="40.92" height="18" fill="#2563eb" opacity="0.28" stroke="#2563eb"/>
<line class="median" x1="939.25" y1="248.00" x2="939.25" y2="266.00"/>
<circle class="sample" cx="950.61" cy="257.00" r="2.5"/>
<circle class="sample" cx="927.89" cy="257.00" r="2.5"/>
<circle class="sample" cx="903.79" cy="257.00" r="2.5"/>
<circle class="sample" cx="910.23" cy="257.00" r="2.5"/>
<circle class="sample" cx="952.05" cy="257.00" r="2.5"/>
<circle class="sample" cx="913.00" cy="257.00" r="2.5"/>
<circle class="sample" cx="970.65" cy="257.00" r="2.5"/>
<circle class="sample" cx="957.51" cy="257.00" r="2.5"/>
<circle class="sample" cx="951.19" cy="257.00" r="2.5"/>
<circle class="sample" cx="901.25" cy="257.00" r="2.5"/>
<polygon points="958.83,243.00 954.83,251.00 962.83,251.00" fill="#f59e0b"><title>p90 0.027077s</title></polygon>
<polygon points="964.74,244.00 960.74,252.00 968.74,252.00" fill="#ef4444"><title>p95 0.027291s</title></polygon>
<polygon points="969.47,245.00 965.47,253.00 973.47,253.00" fill="#7c3aed"><title>p99 0.027462s</title></polygon>
<text x="1160" y="261.00" text-anchor="end">p50 0.026369s p95 0.027291s</text>
</svg>