<svg xmlns="http://www.w3.org/2000/svg" width="1200" height="786" viewBox="0 0 1200 786">
<style>
text{font-family:Inter,Pretendard,Arial,sans-serif;fill:#111827;font-size:13px}
.axis{stroke:#64748b;stroke-width:1}.grid{stroke:#e2e8f0;stroke-width:1}.median{stroke:#111827;stroke-width:2}.whisker{stroke:#475569;stroke-width:1.5}.sample{fill:#0f172a;opacity:.35}
</style>
<text x="210" y="30" font-size="20" font-weight="700">ScreenFS benchmark box plot</text>
<text x="210" y="50">seconds; lower is better; box=min/q1/p50/q3/max; p90/p95/p99 markers shown; timestamp 2026-06-14T21:59:09.938916+00:00</text>
<line class="grid" x1="210.00" y1="60" x2="210.00" y2="726"/>
<text x="210.00" y="761" text-anchor="middle">0.0000</text>
<line class="grid" x1="400.00" y1="60" x2="400.00" y2="726"/>
<text x="400.00" y="761" text-anchor="middle">0.0614</text>
<line class="grid" x1="590.00" y1="60" x2="590.00" y2="726"/>
<text x="590.00" y="761" text-anchor="middle">0.1227</text>
<line class="grid" x1="780.00" y1="60" x2="780.00" y2="726"/>
<text x="780.00" y="761" text-anchor="middle">0.1841</text>
<line class="grid" x1="970.00" y1="60" x2="970.00" y2="726"/>
<text x="970.00" y="761" text-anchor="middle">0.2455</text>
<line class="grid" x1="1160.00" y1="60" x2="1160.00" y2="726"/>
<text x="1160.00" y="761" text-anchor="middle">0.3068</text>
<line class="axis" x1="210" y1="726" x2="1160" y2="726"/>
<text x="12" y="91.00">seq_read [native]</text>
<line class="whisker" x1="212.30" y1="87.00" x2="212.91" y2="87.00"/>
<line class="whisker" x1="212.30" y1="80.00" x2="212.30" y2="94.00"/>
<line class="whisker" x1="212.91" y1="80.00" x2="212.91" y2="94.00"/>
<rect x="212.33" y="78.00" width="1.00" height="18" fill="#94a3b8" opacity="0.28" stroke="#94a3b8"/>
<line class="median" x1="212.41" y1="78.00" x2="212.41" y2="96.00"/>
<circle class="sample" cx="212.91" cy="87.00" r="2.5"/>
<circle class="sample" cx="212.45" cy="87.00" r="2.5"/>
<circle class="sample" cx="212.30" cy="87.00" r="2.5"/>
<circle class="sample" cx="212.33" cy="87.00" r="2.5"/>
<circle class="sample" cx="212.34" cy="87.00" r="2.5"/>
<circle class="sample" cx="212.45" cy="87.00" r="2.5"/>
<circle class="sample" cx="212.30" cy="87.00" r="2.5"/>
<circle class="sample" cx="212.38" cy="87.00" r="2.5"/>
<circle class="sample" cx="212.46" cy="87.00" r="2.5"/>
<circle class="sample" cx="212.45" cy="87.00" r="2.5"/>
<polygon points="212.50,73.00 208.50,81.00 216.50,81.00" fill="#f59e0b"><title>p90 0.000809s</title></polygon>
<polygon points="212.71,74.00 208.71,82.00 216.71,82.00" fill="#ef4444"><title>p95 0.000874s</title></polygon>
<polygon points="212.87,75.00 208.87,83.00 216.87,83.00" fill="#7c3aed"><title>p99 0.000926s</title></polygon>
<text x="1160" y="91.00" text-anchor="end">p50 0.000780s p95 0.000874s</text>
<text x="12" y="125.00">seq_write [native]</text>
<line class="whisker" x1="211.16" y1="121.00" x2="211.23" y2="121.00"/>
<line class="whisker" x1="211.16" y1="114.00" x2="211.16" y2="128.00"/>
<line class="whisker" x1="211.23" y1="114.00" x2="211.23" y2="128.00"/>
<rect x="211.17" y="112.00" width="1.00" height="18" fill="#94a3b8" opacity="0.28" stroke="#94a3b8"/>
<line class="median" x1="211.18" y1="112.00" x2="211.18" y2="130.00"/>
<circle class="sample" cx="211.20" cy="121.00" r="2.5"/>
<circle class="sample" cx="211.17" cy="121.00" r="2.5"/>
<circle class="sample" cx="211.18" cy="121.00" r="2.5"/>
<circle class="sample" cx="211.18" cy="121.00" r="2.5"/>
<circle class="sample" cx="211.17" cy="121.00" r="2.5"/>
<circle class="sample" cx="211.16" cy="121.00" r="2.5"/>
<circle class="sample" cx="211.19" cy="121.00" r="2.5"/>
<circle class="sample" cx="211.18" cy="121.00" r="2.5"/>
<circle class="sample" cx="211.23" cy="121.00" r="2.5"/>
<circle class="sample" cx="211.17" cy="121.00" r="2.5"/>
<polygon points="211.20,107.00 207.20,115.00 215.20,115.00" fill="#f59e0b"><title>p90 0.000387s</title></polygon>
<polygon points="211.21,108.00 207.21,116.00 215.21,116.00" fill="#ef4444"><title>p95 0.000392s</title></polygon>
<polygon points="211.22,109.00 207.22,117.00 215.22,117.00" fill="#7c3aed"><title>p99 0.000395s</title></polygon>
<text x="1160" y="125.00" text-anchor="end">p50 0.000380s p95 0.000392s</text>
<text x="12" y="159.00">small_read [native]</text>
<line class="whisker" x1="210.07" y1="155.00" x2="210.08" y2="155.00"/>
<line class="whisker" x1="210.07" y1="148.00" x2="210.07" y2="162.00"/>
<line class="whisker" x1="210.08" y1="148.00" x2="210.08" y2="162.00"/>
<rect x="210.07" y="146.00" width="1.00" height="18" fill="#94a3b8" opacity="0.28" stroke="#94a3b8"/>
<line class="median" x1="210.08" y1="146.00" x2="210.08" y2="164.00"/>
<circle class="sample" cx="210.08" cy="155.00" r="2.5"/>
<circle class="sample" cx="210.08" cy="155.00" r="2.5"/>
<circle class="sample" cx="210.07" cy="155.00" r="2.5"/>
<circle class="sample" cx="210.07" cy="155.00" r="2.5"/>
<circle class="sample" cx="210.08" cy="155.00" r="2.5"/>
<circle class="sample" cx="210.08" cy="155.00" r="2.5"/>
<circle class="sample" cx="210.08" cy="155.00" r="2.5"/>
<circle class="sample" cx="210.07" cy="155.00" r="2.5"/>
<circle class="sample" cx="210.07" cy="155.00" r="2.5"/>
<circle class="sample" cx="210.07" cy="155.00" r="2.5"/>
<polygon points="210.08,141.00 206.08,149.00 214.08,149.00" fill="#f59e0b"><title>p90 0.000025s</title></polygon>
<polygon points="210.08,142.00 206.08,150.00 214.08,150.00" fill="#ef4444"><title>p95 0.000025s</title></polygon>
<polygon points="210.08,143.00 206.08,151.00 214.08,151.00" fill="#7c3aed"><title>p99 0.000025s</title></polygon>
<text x="1160" y="159.00" text-anchor="end">p50 0.000024s p95 0.000025s</text>
<text x="12" y="193.00">small_write [native]</text>
<line class="whisker" x1="210.14" y1="189.00" x2="210.17" y2="189.00"/>
<line class="whisker" x1="210.14" y1="182.00" x2="210.14" y2="196.00"/>
<line class="whisker" x1="210.17" y1="182.00" x2="210.17" y2="196.00"/>
<rect x="210.14" y="180.00" width="1.00" height="18" fill="#94a3b8" opacity="0.28" stroke="#94a3b8"/>
<line class="median" x1="210.14" y1="180.00" x2="210.14" y2="198.00"/>
<circle class="sample" cx="210.15" cy="189.00" r="2.5"/>
<circle class="sample" cx="210.16" cy="189.00" r="2.5"/>
<circle class="sample" cx="210.14" cy="189.00" r="2.5"/>
<circle class="sample" cx="210.14" cy="189.00" r="2.5"/>
<circle class="sample" cx="210.14" cy="189.00" r="2.5"/>
<circle class="sample" cx="210.17" cy="189.00" r="2.5"/>
<circle class="sample" cx="210.14" cy="189.00" r="2.5"/>
<circle class="sample" cx="210.14" cy="189.00" r="2.5"/>
<circle class="sample" cx="210.15" cy="189.00" r="2.5"/>
<circle class="sample" cx="210.14" cy="189.00" r="2.5"/>
<polygon points="210.16,175.00 206.16,183.00 214.16,183.00" fill="#f59e0b"><title>p90 0.000051s</title></polygon>
<polygon points="210.16,176.00 206.16,184.00 214.16,184.00" fill="#ef4444"><title>p95 0.000053s</title></polygon>
<polygon points="210.17,177.00 206.17,185.00 214.17,185.00" fill="#7c3aed"><title>p99 0.000055s</title></polygon>
<text x="1160" y="193.00" text-anchor="end">p50 0.000047s p95 0.000053s</text>
<text x="12" y="227.00">write_fsync_close [native]</text>
<line class="whisker" x1="210.15" y1="223.00" x2="210.21" y2="223.00"/>
<line class="whisker" x1="210.15" y1="216.00" x2="210.15" y2="230.00"/>
<line class="whisker" x1="210.21" y1="216.00" x2="210.21" y2="230.00"/>
<rect x="210.16" y="214.00" width="1.00" height="18" fill="#94a3b8" opacity="0.28" stroke="#94a3b8"/>
<line class="median" x1="210.19" y1="214.00" x2="210.19" y2="232.00"/>
<circle class="sample" cx="210.19" cy="223.00" r="2.5"/>
<circle class="sample" cx="210.19" cy="223.00" r="2.5"/>
<circle class="sample" cx="210.16" cy="223.00" r="2.5"/>
<circle class="sample" cx="210.21" cy="223.00" r="2.5"/>
<circle class="sample" cx="210.16" cy="223.00" r="2.5"/>
<circle class="sample" cx="210.19" cy="223.00" r="2.5"/>
<circle class="sample" cx="210.19" cy="223.00" r="2.5"/>
<circle class="sample" cx="210.19" cy="223.00" r="2.5"/>
<circle class="sample" cx="210.18" cy="223.00" r="2.5"/>
<circle class="sample" cx="210.15" cy="223.00" r="2.5"/>
<polygon points="210.20,209.00 206.20,217.00 214.20,217.00" fill="#f59e0b"><title>p90 0.000063s</title></polygon>
<polygon points="210.20,210.00 206.20,218.00 214.20,218.00" fill="#ef4444"><title>p95 0.000066s</title></polygon>
<polygon points="210.21,211.00 206.21,219.00 214.21,219.00" fill="#7c3aed"><title>p99 0.000068s</title></polygon>
<text x="1160" y="227.00" text-anchor="end">p50 0.000060s p95 0.000066s</text>
<text x="12" y="261.00">small_stat_open_read [native]</text>
<line class="whisker" x1="211.93" y1="257.00" x2="212.20" y2="257.00"/>
<line class="whisker" x1="211.93" y1="250.00" x2="211.93" y2="264.00"/>
<line class="whisker" x1="212.20" y1="250.00" x2="212.20" y2="264.00"/>
<rect x="211.94" y="248.00" width="1.00" height="18" fill="#94a3b8" opacity="0.28" stroke="#94a3b8"/>
<line class="median" x1="212.01" y1="248.00" x2="212.01" y2="266.00"/>
<circle class="sample" cx="211.96" cy="257.00" r="2.5"/>
<circle class="sample" cx="211.94" cy="257.00" r="2.5"/>
<circle class="sample" cx="211.94" cy="257.00" r="2.5"/>
<circle class="sample" cx="211.96" cy="257.00" r="2.5"/>
<circle class="sample" cx="211.93" cy="257.00" r="2.5"/>
<circle class="sample" cx="212.07" cy="257.00" r="2.5"/>
<circle class="sample" cx="212.20" cy="257.00" r="2.5"/>
<circle class="sample" cx="212.13" cy="257.00" r="2.5"/>
<circle class="sample" cx="212.08" cy="257.00" r="2.5"/>
<circle class="sample" cx="212.13" cy="257.00" r="2.5"/>
<polygon points="212.14,243.00 208.14,251.00 216.14,251.00" fill="#f59e0b"><title>p90 0.000692s</title></polygon>
<polygon points="212.17,244.00 208.17,252.00 216.17,252.00" fill="#ef4444"><title>p95 0.000702s</title></polygon>
<polygon points="212.20,245.00 208.20,253.00 216.20,253.00" fill="#7c3aed"><title>p99 0.000710s</title></polygon>
<text x="1160" y="261.00" text-anchor="end">p50 0.000650s p95 0.000702s</text>
<text x="12" y="295.00">readdir_lstat [native]</text>
<line class="whisker" x1="210.96" y1="291.00" x2="211.09" y2="291.00"/>
<line class="whisker" x1="210.96" y1="284.00" x2="210.96" y2="298.00"/>
<line class="whisker" x1="211.09" y1="284.00" x2="211.09" y2="298.00"/>
<rect x="210.98" y="282.00" width="1.00" height="18" fill="#94a3b8" opacity="0.28" stroke="#94a3b8"/>
<line class="median" x1="210.99" y1="282.00" x2="210.99" y2="300.00"/>
<circle class="sample" cx="211.08" cy="291.00" r="2.5"/>
<circle class="sample" cx="211.09" cy="291.00" r="2.5"/>
<circle class="sample" cx="211.01" cy="291.00" r="2.5"/>
<circle class="sample" cx="210.96" cy="291.00" r="2.5"/>
<circle class="sample" cx="210.97" cy="291.00" r="2.5"/>
<circle class="sample" cx="210.97" cy="291.00" r="2.5"/>
<circle class="sample" cx="210.99" cy="291.00" r="2.5"/>
<circle class="sample" cx="210.99" cy="291.00" r="2.5"/>
<circle class="sample" cx="211.00" cy="291.00" r="2.5"/>
<circle class="sample" cx="210.99" cy="291.00" r="2.5"/>
<polygon points="211.08,277.00 207.08,285.00 215.08,285.00" fill="#f59e0b"><title>p90 0.000348s</title></polygon>
<polygon points="211.08,278.00 207.08,286.00 215.08,286.00" fill="#ef4444"><title>p95 0.000350s</title></polygon>
<polygon points="211.09,279.00 207.09,287.00 215.09,287.00" fill="#7c3aed"><title>p99 0.000351s</title></polygon>
<text x="1160" y="295.00" text-anchor="end">p50 0.000320s p95 0.000350s</text>
<text x="12" y="329.00">symlink_open_read [native]</text>
<line class="whisker" x1="210.01" y1="325.00" x2="210.02" y2="325.00"/>
<line class="whisker" x1="210.01" y1="318.00" x2="210.01" y2="332.00"/>
<line class="whisker" x1="210.02" y1="318.00" x2="210.02" y2="332.00"/>
<rect x="210.01" y="316.00" width="1.00" height="18" fill="#94a3b8" opacity="0.28" stroke="#94a3b8"/>
<line class="median" x1="210.01" y1="316.00" x2="210.01" y2="334.00"/>
<circle class="sample" cx="210.02" cy="325.00" r="2.5"/>
<circle class="sample" cx="210.02" cy="325.00" r="2.5"/>
<circle class="sample" cx="210.01" cy="325.00" r="2.5"/>
<circle class="sample" cx="210.02" cy="325.00" r="2.5"/>
<circle class="sample" cx="210.01" cy="325.00" r="2.5"/>
<circle class="sample" cx="210.02" cy="325.00" r="2.5"/>
<circle class="sample" cx="210.02" cy="325.00" r="2.5"/>
<circle class="sample" cx="210.01" cy="325.00" r="2.5"/>
<circle class="sample" cx="210.01" cy="325.00" r="2.5"/>
<circle class="sample" cx="210.01" cy="325.00" r="2.5"/>
<polygon points="210.02,311.00 206.02,319.00 214.02,319.00" fill="#f59e0b"><title>p90 0.000005s</title></polygon>
<polygon points="210.02,312.00 206.02,320.00 214.02,320.00" fill="#ef4444"><title>p95 0.000005s</title></polygon>
<polygon points="210.02,313.00 206.02,321.00 214.02,321.00" fill="#7c3aed"><title>p99 0.000005s</title></polygon>
<text x="1160" y="329.00" text-anchor="end">p50 0.000005s p95 0.000005s</text>
<text x="12" y="363.00">seq_read [mounted]</text>
<line class="whisker" x1="217.94" y1="359.00" x2="219.57" y2="359.00"/>
<line class="whisker" x1="217.94" y1="352.00" x2="217.94" y2="366.00"/>
<line class="whisker" x1="219.57" y1="352.00" x2="219.57" y2="366.00"/>
<rect x="218.26" y="350.00" width="1.00" height="18" fill="#2563eb" opacity="0.28" stroke="#2563eb"/>
<line class="median" x1="218.99" y1="350.00" x2="218.99" y2="368.00"/>
<circle class="sample" cx="218.99" cy="359.00" r="2.5"/>
<circle class="sample" cx="218.60" cy="359.00" r="2.5"/>
<circle class="sample" cx="218.15" cy="359.00" r="2.5"/>
<circle class="sample" cx="218.09" cy="359.00" r="2.5"/>
<circle class="sample" cx="219.24" cy="359.00" r="2.5"/>
<circle class="sample" cx="219.57" cy="359.00" r="2.5"/>
<circle class="sample" cx="219.20" cy="359.00" r="2.5"/>
<circle class="sample" cx="219.00" cy="359.00" r="2.5"/>
<circle class="sample" cx="217.94" cy="359.00" r="2.5"/>
<circle class="sample" cx="219.06" cy="359.00" r="2.5"/>
<polygon points="219.28,345.00 215.28,353.00 223.28,353.00" fill="#f59e0b"><title>p90 0.002996s</title></polygon>
<polygon points="219.42,346.00 215.42,354.00 223.42,354.00" fill="#ef4444"><title>p95 0.003043s</title></polygon>
<polygon points="219.54,347.00 215.54,355.00 223.54,355.00" fill="#7c3aed"><title>p99 0.003081s</title></polygon>
<text x="1160" y="363.00" text-anchor="end">p50 0.002905s p95 0.003043s</text>
<text x="12" y="397.00">seq_write [mounted]</text>
<line class="whisker" x1="216.23" y1="393.00" x2="218.17" y2="393.00"/>
<line class="whisker" x1="216.23" y1="386.00" x2="216.23" y2="400.00"/>
<line class="whisker" x1="218.17" y1="386.00" x2="218.17" y2="400.00"/>
<rect x="216.65" y="384.00" width="1.00" height="18" fill="#2563eb" opacity="0.28" stroke="#2563eb"/>
<line class="median" x1="216.69" y1="384.00" x2="216.69" y2="402.00"/>
<circle class="sample" cx="216.67" cy="393.00" r="2.5"/>
<circle class="sample" cx="216.47" cy="393.00" r="2.5"/>
<circle class="sample" cx="216.96" cy="393.00" r="2.5"/>
<circle class="sample" cx="216.64" cy="393.00" r="2.5"/>
<circle class="sample" cx="216.23" cy="393.00" r="2.5"/>
<circle class="sample" cx="216.66" cy="393.00" r="2.5"/>
<circle class="sample" cx="217.71" cy="393.00" r="2.5"/>
<circle class="sample" cx="218.17" cy="393.00" r="2.5"/>
<circle class="sample" cx="217.52" cy="393.00" r="2.5"/>
<circle class="sample" cx="216.72" cy="393.00" r="2.5"/>
<polygon points="217.75,379.00 213.75,387.00 221.75,387.00" fill="#f59e0b"><title>p90 0.002504s</title></polygon>
<polygon points="217.96,380.00 213.96,388.00 221.96,388.00" fill="#ef4444"><title>p95 0.002571s</title></polygon>
<polygon points="218.13,381.00 214.13,389.00 222.13,389.00" fill="#7c3aed"><title>p99 0.002625s</title></polygon>
<text x="1160" y="397.00" text-anchor="end">p50 0.002162s p95 0.002571s</text>
<text x="12" y="431.00">small_read [mounted]</text>
<line class="whisker" x1="215.38" y1="427.00" x2="217.32" y2="427.00"/>
<line class="whisker" x1="215.38" y1="420.00" x2="215.38" y2="434.00"/>
<line class="whisker" x1="217.32" y1="420.00" x2="217.32" y2="434.00"/>
<rect x="215.44" y="418.00" width="1.00" height="18" fill="#2563eb" opacity="0.28" stroke="#2563eb"/>
<line class="median" x1="215.46" y1="418.00" x2="215.46" y2="436.00"/>
<circle class="sample" cx="215.44" cy="427.00" r="2.5"/>
<circle class="sample" cx="215.38" cy="427.00" r="2.5"/>
<circle class="sample" cx="215.48" cy="427.00" r="2.5"/>
<circle class="sample" cx="215.49" cy="427.00" r="2.5"/>
<circle class="sample" cx="215.49" cy="427.00" r="2.5"/>
<circle class="sample" cx="215.41" cy="427.00" r="2.5"/>
<circle class="sample" cx="215.45" cy="427.00" r="2.5"/>
<circle class="sample" cx="215.67" cy="427.00" r="2.5"/>
<circle class="sample" cx="215.44" cy="427.00" r="2.5"/>
<circle class="sample" cx="217.32" cy="427.00" r="2.5"/>
<polygon points="215.83,413.00 211.83,421.00 219.83,421.00" fill="#f59e0b"><title>p90 0.001884s</title></polygon>
<polygon points="216.58,414.00 212.58,422.00 220.58,422.00" fill="#ef4444"><title>p95 0.002124s</title></polygon>
<polygon points="217.17,415.00 213.17,423.00 221.17,423.00" fill="#7c3aed"><title>p99 0.002317s</title></polygon>
<text x="1160" y="431.00" text-anchor="end">p50 0.001764s p95 0.002124s</text>
<text x="12" y="465.00">small_write [mounted]</text>
<line class="whisker" x1="220.99" y1="461.00" x2="226.67" y2="461.00"/>
<line class="whisker" x1="220.99" y1="454.00" x2="220.99" y2="468.00"/>
<line class="whisker" x1="226.67" y1="454.00" x2="226.67" y2="468.00"/>
<rect x="221.39" y="452.00" width="1.03" height="18" fill="#2563eb" opacity="0.28" stroke="#2563eb"/>
<line class="median" x1="222.04" y1="452.00" x2="222.04" y2="470.00"/>
<circle class="sample" cx="221.22" cy="461.00" r="2.5"/>
<circle class="sample" cx="222.74" cy="461.00" r="2.5"/>
<circle class="sample" cx="221.88" cy="461.00" r="2.5"/>
<circle class="sample" cx="221.04" cy="461.00" r="2.5"/>
<circle class="sample" cx="222.40" cy="461.00" r="2.5"/>
<circle class="sample" cx="222.42" cy="461.00" r="2.5"/>
<circle class="sample" cx="226.67" cy="461.00" r="2.5"/>
<circle class="sample" cx="221.91" cy="461.00" r="2.5"/>
<circle class="sample" cx="220.99" cy="461.00" r="2.5"/>
<circle class="sample" cx="222.17" cy="461.00" r="2.5"/>
<polygon points="223.14,447.00 219.14,455.00 227.14,455.00" fill="#f59e0b"><title>p90 0.004243s</title></polygon>
<polygon points="224.90,448.00 220.90,456.00 228.90,456.00" fill="#ef4444"><title>p95 0.004814s</title></polygon>
<polygon points="226.32,449.00 222.32,457.00 230.32,457.00" fill="#7c3aed"><title>p99 0.005271s</title></polygon>
<text x="1160" y="465.00" text-anchor="end">p50 0.003888s p95 0.004814s</text>
<text x="12" y="499.00">write_fsync_close [mounted]</text>
<line class="whisker" x1="227.21" y1="495.00" x2="240.35" y2="495.00"/>
<line class="whisker" x1="227.21" y1="488.00" x2="227.21" y2="502.00"/>
<line class="whisker" x1="240.35" y1="488.00" x2="240.35" y2="502.00"/>
<rect x="234.86" y="486.00" width="1.96" height="18" fill="#2563eb" opacity="0.28" stroke="#2563eb"/>
<line class="median" x1="235.03" y1="486.00" x2="235.03" y2="504.00"/>
<circle class="sample" cx="227.21" cy="495.00" r="2.5"/>
<circle class="sample" cx="234.70" cy="495.00" r="2.5"/>
<circle class="sample" cx="240.35" cy="495.00" r="2.5"/>
<circle class="sample" cx="235.30" cy="495.00" r="2.5"/>
<circle class="sample" cx="239.57" cy="495.00" r="2.5"/>
<circle class="sample" cx="235.11" cy="495.00" r="2.5"/>
<circle class="sample" cx="237.32" cy="495.00" r="2.5"/>
<circle class="sample" cx="234.95" cy="495.00" r="2.5"/>
<circle class="sample" cx="234.83" cy="495.00" r="2.5"/>
<circle class="sample" cx="234.93" cy="495.00" r="2.5"/>
<polygon points="239.65,481.00 235.65,489.00 243.65,489.00" fill="#f59e0b"><title>p90 0.009577s</title></polygon>
<polygon points="240.00,482.00 236.00,490.00 244.00,490.00" fill="#ef4444"><title>p95 0.009690s</title></polygon>
<polygon points="240.28,483.00 236.28,491.00 244.28,491.00" fill="#7c3aed"><title>p99 0.009781s</title></polygon>
<text x="1160" y="499.00" text-anchor="end">p50 0.008085s p95 0.009690s</text>
<text x="12" y="533.00">small_stat_open_read [mounted]</text>
<line class="whisker" x1="421.13" y1="529.00" x2="437.29" y2="529.00"/>
<line class="whisker" x1="421.13" y1="522.00" x2="421.13" y2="536.00"/>
<line class="whisker" x1="437.29" y1="522.00" x2="437.29" y2="536.00"/>
<rect x="423.69" y="520.00" width="3.02" height="18" fill="#2563eb" opacity="0.28" stroke="#2563eb"/>
<line class="median" x1="425.06" y1="520.00" x2="425.06" y2="538.00"/>
<circle class="sample" cx="437.29" cy="529.00" r="2.5"/>
<circle class="sample" cx="424.13" cy="529.00" r="2.5"/>
<circle class="sample" cx="424.97" cy="529.00" r="2.5"/>
<circle class="sample" cx="421.58" cy="529.00" r="2.5"/>
<circle class="sample" cx="428.02" cy="529.00" r="2.5"/>
<circle class="sample" cx="427.23" cy="529.00" r="2.5"/>
<circle class="sample" cx="425.16" cy="529.00" r="2.5"/>
<circle class="sample" cx="421.13" cy="529.00" r="2.5"/>
<circle class="sample" cx="423.55" cy="529.00" r="2.5"/>
<circle class="sample" cx="425.15" cy="529.00" r="2.5"/>
<polygon points="428.94,515.00 424.94,523.00 432.94,523.00" fill="#f59e0b"><title>p90 0.070716s</title></polygon>
<polygon points="433.12,516.00 429.12,524.00 437.12,524.00" fill="#ef4444"><title>p95 0.072065s</title></polygon>
<polygon points="436.46,517.00 432.46,525.00 440.46,525.00" fill="#7c3aed"><title>p99 0.073143s</title></polygon>
<text x="1160" y="533.00" text-anchor="end">p50 0.069462s p95 0.072065s</text>
<text x="12" y="567.00">readdir_lstat [mounted]</text>
<line class="whisker" x1="387.44" y1="563.00" x2="397.31" y2="563.00"/>
<line class="whisker" x1="387.44" y1="556.00" x2="387.44" y2="570.00"/>
<line class="whisker" x1="397.31" y1="556.00" x2="397.31" y2="570.00"/>
<rect x="388.82" y="554.00" width="4.24" height="18" fill="#2563eb" opacity="0.28" stroke="#2563eb"/>
<line class="median" x1="391.13" y1="554.00" x2="391.13" y2="572.00"/>
<circle class="sample" cx="394.46" cy="563.00" r="2.5"/>
<circle class="sample" cx="397.31" cy="563.00" r="2.5"/>
<circle class="sample" cx="388.25" cy="563.00" r="2.5"/>
<circle class="sample" cx="391.13" cy="563.00" r="2.5"/>
<circle class="sample" cx="393.32" cy="563.00" r="2.5"/>
<circle class="sample" cx="388.85" cy="563.00" r="2.5"/>
<circle class="sample" cx="388.80" cy="563.00" r="2.5"/>
<circle class="sample" cx="391.13" cy="563.00" r="2.5"/>
<circle class="sample" cx="387.44" cy="563.00" r="2.5"/>
<circle class="sample" cx="392.26" cy="563.00" r="2.5"/>
<polygon points="394.75,549.00 390.75,557.00 398.75,557.00" fill="#f59e0b"><title>p90 0.059671s</title></polygon>
<polygon points="396.03,550.00 392.03,558.00 400.03,558.00" fill="#ef4444"><title>p95 0.060084s</title></polygon>
<polygon points="397.05,551.00 393.05,559.00 401.05,559.00" fill="#7c3aed"><title>p99 0.060415s</title></polygon>
<text x="1160" y="567.00" text-anchor="end">p50 0.058503s p95 0.060084s</text>
<text x="12" y="601.00">symlink_open_read [mounted]</text>
<line class="whisker" x1="210.97" y1="597.00" x2="211.19" y2="597.00"/>
<line class="whisker" x1="210.97" y1="590.00" x2="210.97" y2="604.00"/>
<line class="whisker" x1="211.19" y1="590.00" x2="211.19" y2="604.00"/>
<rect x="211.00" y="588.00" width="1.00" height="18" fill="#2563eb" opacity="0.28" stroke="#2563eb"/>
<line class="median" x1="211.08" y1="588.00" x2="211.08" y2="606.00"/>
<circle class="sample" cx="211.00" cy="597.00" r="2.5"/>
<circle class="sample" cx="211.03" cy="597.00" r="2.5"/>
<circle class="sample" cx="210.97" cy="597.00" r="2.5"/>
<circle class="sample" cx="211.00" cy="597.00" r="2.5"/>
<circle class="sample" cx="211.19" cy="597.00" r="2.5"/>
<circle class="sample" cx="211.14" cy="597.00" r="2.5"/>
<circle class="sample" cx="211.13" cy="597.00" r="2.5"/>
<circle class="sample" cx="211.18" cy="597.00" r="2.5"/>
<circle class="sample" cx="211.12" cy="597.00" r="2.5"/>
<circle class="sample" cx="210.97" cy="597.00" r="2.5"/>
<polygon points="211.18,583.00 207.18,591.00 215.18,591.00" fill="#f59e0b"><title>p90 0.000381s</title></polygon>
<polygon points="211.19,584.00 207.19,592.00 215.19,592.00" fill="#ef4444"><title>p95 0.000383s</title></polygon>
<polygon points="211.19,585.00 207.19,593.00 215.19,593.00" fill="#7c3aed"><title>p99 0.000384s</title></polygon>
<text x="1160" y="601.00" text-anchor="end">p50 0.000347s p95 0.000383s</text>
<text x="12" y="635.00">hidden_stat_miss [mounted-only]</text>
<line class="whisker" x1="237.70" y1="631.00" x2="238.41" y2="631.00"/>
<line class="whisker" x1="237.70" y1="624.00" x2="237.70" y2="638.00"/>
<line class="whisker" x1="238.41" y1="624.00" x2="238.41" y2="638.00"/>
<rect x="238.03" y="622.00" width="1.00" height="18" fill="#16a34a" opacity="0.28" stroke="#16a34a"/>
<line class="median" x1="238.11" y1="622.00" x2="238.11" y2="640.00"/>
<circle class="sample" cx="238.41" cy="631.00" r="2.5"/>
<circle class="sample" cx="237.70" cy="631.00" r="2.5"/>
<circle class="sample" cx="238.20" cy="631.00" r="2.5"/>
<circle class="sample" cx="238.07" cy="631.00" r="2.5"/>
<circle class="sample" cx="238.11" cy="631.00" r="2.5"/>
<circle class="sample" cx="238.40" cy="631.00" r="2.5"/>
<circle class="sample" cx="238.11" cy="631.00" r="2.5"/>
<circle class="sample" cx="237.99" cy="631.00" r="2.5"/>
<circle class="sample" cx="238.29" cy="631.00" r="2.5"/>
<circle class="sample" cx="238.02" cy="631.00" r="2.5"/>
<polygon points="238.40,617.00 234.40,625.00 242.40,625.00" fill="#f59e0b"><title>p90 0.009174s</title></polygon>
<polygon points="238.41,618.00 234.41,626.00 242.41,626.00" fill="#ef4444"><title>p95 0.009175s</title></polygon>
<polygon points="238.41,619.00 234.41,627.00 242.41,627.00" fill="#7c3aed"><title>p99 0.009175s</title></polygon>
<text x="1160" y="635.00" text-anchor="end">p50 0.009080s p95 0.009175s</text>
<text x="12" y="669.00">matcher_hidden_stat_miss [mounted-only]</text>
<line class="whisker" x1="255.93" y1="665.00" x2="258.51" y2="665.00"/>
<line class="whisker" x1="255.93" y1="658.00" x2="255.93" y2="672.00"/>
<line class="whisker" x1="258.51" y1="658.00" x2="258.51" y2="672.00"/>
<rect x="256.76" y="656.00" width="1.00" height="18" fill="#16a34a" opacity="0.28" stroke="#16a34a"/>
<line class="median" x1="257.30" y1="656.00" x2="257.30" y2="674.00"/>
<circle class="sample" cx="256.97" cy="665.00" r="2.5"/>
<circle class="sample" cx="256.04" cy="665.00" r="2.5"/>
<circle class="sample" cx="255.93" cy="665.00" r="2.5"/>
<circle class="sample" cx="256.69" cy="665.00" r="2.5"/>
<circle class="sample" cx="257.45" cy="665.00" r="2.5"/>
<circle class="sample" cx="257.77" cy="665.00" r="2.5"/>
<circle class="sample" cx="258.51" cy="665.00" r="2.5"/>
<circle class="sample" cx="258.01" cy="665.00" r="2.5"/>
<circle class="sample" cx="257.15" cy="665.00" r="2.5"/>
<circle class="sample" cx="257.62" cy="665.00" r="2.5"/>
<polygon points="258.06,651.00 254.06,659.00 262.06,659.00" fill="#f59e0b"><title>p90 0.015523s</title></polygon>
<polygon points="258.28,652.00 254.28,660.00 262.28,660.00" fill="#ef4444"><title>p95 0.015595s</title></polygon>
<polygon points="258.46,653.00 254.46,661.00 262.46,661.00" fill="#7c3aed"><title>p99 0.015653s</title></polygon>
<text x="1160" y="669.00" text-anchor="end">p50 0.015278s p95 0.015595s</text>
<text x="12" y="703.00">symlink_parent_mkdir_rmdir [mounted-only]</text>
<line class="whisker" x1="851.32" y1="699.00" x2="1073.64" y2="699.00"/>
<line class="whisker" x1="851.32" y1="692.00" x2="851.32" y2="706.00"/>
<line class="whisker" x1="1073.64" y1="692.00" x2="1073.64" y2="706.00"/>
<rect x="936.17" y="690.00" width="132.96" height="18" fill="#16a34a" opacity="0.28" stroke="#16a34a"/>
<line class="median" x1="1066.87" y1="690.00" x2="1066.87" y2="708.00"/>
<circle class="sample" cx="1070.83" cy="699.00" r="2.5"/>
<circle class="sample" cx="1069.16" cy="699.00" r="2.5"/>
<circle class="sample" cx="1066.31" cy="699.00" r="2.5"/>
<circle class="sample" cx="1069.03" cy="699.00" r="2.5"/>
<circle class="sample" cx="1067.43" cy="699.00" r="2.5"/>
<circle class="sample" cx="1073.64" cy="699.00" r="2.5"/>
<circle class="sample" cx="899.40" cy="699.00" r="2.5"/>
<circle class="sample" cx="864.32" cy="699.00" r="2.5"/>
<circle class="sample" cx="851.32" cy="699.00" r="2.5"/>
<circle class="sample" cx="1046.49" cy="699.00" r="2.5"/>
<polygon points="1071.11,685.00 1067.11,693.00 1075.11,693.00" fill="#f59e0b"><title>p90 0.278128s</title></polygon>
<polygon points="1072.37,686.00 1068.37,694.00 1076.37,694.00" fill="#ef4444"><title>p95 0.278536s</title></polygon>
<polygon points="1073.38,687.00 1069.38,695.00 1077.38,695.00" fill="#7c3aed"><title>p99 0.278863s</title></polygon>
<text x="1160" y="703.00" text-anchor="end">p50 0.276760s p95 0.278536s</text>
</svg>