<svg xmlns="http://www.w3.org/2000/svg" width="1200" height="548" viewBox="0 0 1200 548">
<style>
text{font-family:Inter,Pretendard,Arial,sans-serif;fill:#111827;font-size:13px}
.axis{stroke:#64748b;stroke-width:1}.grid{stroke:#e2e8f0;stroke-width:1}.median{stroke:#111827;stroke-width:2}.whisker{stroke:#475569;stroke-width:1.5}.sample{fill:#0f172a;opacity:.35}
</style>
<text x="210" y="30" font-size="20" font-weight="700">ScreenFS benchmark box plot</text>
<text x="210" y="50">seconds; lower is better; box=min/q1/p50/q3/max; p90/p95/p99 markers shown; timestamp 2026-06-20T09:39:36.244926+00:00</text>
<line class="grid" x1="210.00" y1="60" x2="210.00" y2="488"/>
<text x="210.00" y="523" text-anchor="middle">0.0000</text>
<line class="grid" x1="400.00" y1="60" x2="400.00" y2="488"/>
<text x="400.00" y="523" text-anchor="middle">0.0064</text>
<line class="grid" x1="590.00" y1="60" x2="590.00" y2="488"/>
<text x="590.00" y="523" text-anchor="middle">0.0128</text>
<line class="grid" x1="780.00" y1="60" x2="780.00" y2="488"/>
<text x="780.00" y="523" text-anchor="middle">0.0192</text>
<line class="grid" x1="970.00" y1="60" x2="970.00" y2="488"/>
<text x="970.00" y="523" text-anchor="middle">0.0255</text>
<line class="grid" x1="1160.00" y1="60" x2="1160.00" y2="488"/>
<text x="1160.00" y="523" text-anchor="middle">0.0319</text>
<line class="axis" x1="210" y1="488" x2="1160" y2="488"/>
<text x="12" y="91.00">seq_read [native]</text>
<line class="whisker" x1="277.41" y1="87.00" x2="277.41" y2="87.00"/>
<line class="whisker" x1="277.41" y1="80.00" x2="277.41" y2="94.00"/>
<line class="whisker" x1="277.41" y1="80.00" x2="277.41" y2="94.00"/>
<rect x="277.41" y="78.00" width="1.00" height="18" fill="#94a3b8" opacity="0.28" stroke="#94a3b8"/>
<line class="median" x1="277.41" y1="78.00" x2="277.41" y2="96.00"/>
<circle class="sample" cx="277.41" cy="87.00" r="2.5"/>
<polygon points="277.41,73.00 273.41,81.00 281.41,81.00" fill="#f59e0b"><title>p90 0.002266s</title></polygon>
<polygon points="277.41,74.00 273.41,82.00 281.41,82.00" fill="#ef4444"><title>p95 0.002266s</title></polygon>
<polygon points="277.41,75.00 273.41,83.00 281.41,83.00" fill="#7c3aed"><title>p99 0.002266s</title></polygon>
<text x="1160" y="91.00" text-anchor="end">p50 0.002266s p95 0.002266s</text>
<text x="12" y="125.00">seq_write [native]</text>
<line class="whisker" x1="253.67" y1="121.00" x2="253.67" y2="121.00"/>
<line class="whisker" x1="253.67" y1="114.00" x2="253.67" y2="128.00"/>
<line class="whisker" x1="253.67" y1="114.00" x2="253.67" y2="128.00"/>
<rect x="253.67" y="112.00" width="1.00" height="18" fill="#94a3b8" opacity="0.28" stroke="#94a3b8"/>
<line class="median" x1="253.67" y1="112.00" x2="253.67" y2="130.00"/>
<circle class="sample" cx="253.67" cy="121.00" r="2.5"/>
<polygon points="253.67,107.00 249.67,115.00 257.67,115.00" fill="#f59e0b"><title>p90 0.001468s</title></polygon>
<polygon points="253.67,108.00 249.67,116.00 257.67,116.00" fill="#ef4444"><title>p95 0.001468s</title></polygon>
<polygon points="253.67,109.00 249.67,117.00 257.67,117.00" fill="#7c3aed"><title>p99 0.001468s</title></polygon>
<text x="1160" y="125.00" text-anchor="end">p50 0.001468s p95 0.001468s</text>
<text x="12" y="159.00">small_read [native]</text>
<line class="whisker" x1="218.46" y1="155.00" x2="218.46" y2="155.00"/>
<line class="whisker" x1="218.46" y1="148.00" x2="218.46" y2="162.00"/>
<line class="whisker" x1="218.46" y1="148.00" x2="218.46" y2="162.00"/>
<rect x="218.46" y="146.00" width="1.00" height="18" fill="#94a3b8" opacity="0.28" stroke="#94a3b8"/>
<line class="median" x1="218.46" y1="146.00" x2="218.46" y2="164.00"/>
<circle class="sample" cx="218.46" cy="155.00" r="2.5"/>
<polygon points="218.46,141.00 214.46,149.00 222.46,149.00" fill="#f59e0b"><title>p90 0.000285s</title></polygon>
<polygon points="218.46,142.00 214.46,150.00 222.46,150.00" fill="#ef4444"><title>p95 0.000285s</title></polygon>
<polygon points="218.46,143.00 214.46,151.00 222.46,151.00" fill="#7c3aed"><title>p99 0.000285s</title></polygon>
<text x="1160" y="159.00" text-anchor="end">p50 0.000285s p95 0.000285s</text>
<text x="12" y="193.00">small_write [native]</text>
<line class="whisker" x1="222.46" y1="189.00" x2="222.46" y2="189.00"/>
<line class="whisker" x1="222.46" y1="182.00" x2="222.46" y2="196.00"/>
<line class="whisker" x1="222.46" y1="182.00" x2="222.46" y2="196.00"/>
<rect x="222.46" y="180.00" width="1.00" height="18" fill="#94a3b8" opacity="0.28" stroke="#94a3b8"/>
<line class="median" x1="222.46" y1="180.00" x2="222.46" y2="198.00"/>
<circle class="sample" cx="222.46" cy="189.00" r="2.5"/>
<polygon points="222.46,175.00 218.46,183.00 226.46,183.00" fill="#f59e0b"><title>p90 0.000419s</title></polygon>
<polygon points="222.46,176.00 218.46,184.00 226.46,184.00" fill="#ef4444"><title>p95 0.000419s</title></polygon>
<polygon points="222.46,177.00 218.46,185.00 226.46,185.00" fill="#7c3aed"><title>p99 0.000419s</title></polygon>
<text x="1160" y="193.00" text-anchor="end">p50 0.000419s p95 0.000419s</text>
<text x="12" y="227.00">rand_read_4k [native]</text>
<line class="whisker" x1="226.24" y1="223.00" x2="226.24" y2="223.00"/>
<line class="whisker" x1="226.24" y1="216.00" x2="226.24" y2="230.00"/>
<line class="whisker" x1="226.24" y1="216.00" x2="226.24" y2="230.00"/>
<rect x="226.24" y="214.00" width="1.00" height="18" fill="#94a3b8" opacity="0.28" stroke="#94a3b8"/>
<line class="median" x1="226.24" y1="214.00" x2="226.24" y2="232.00"/>
<circle class="sample" cx="226.24" cy="223.00" r="2.5"/>
<polygon points="226.24,209.00 222.24,217.00 230.24,217.00" fill="#f59e0b"><title>p90 0.000546s</title></polygon>
<polygon points="226.24,210.00 222.24,218.00 230.24,218.00" fill="#ef4444"><title>p95 0.000546s</title></polygon>
<polygon points="226.24,211.00 222.24,219.00 230.24,219.00" fill="#7c3aed"><title>p99 0.000546s</title></polygon>
<text x="1160" y="227.00" text-anchor="end">p50 0.000546s p95 0.000546s</text>
<text x="12" y="261.00">rand_write_4k [native]</text>
<line class="whisker" x1="225.30" y1="257.00" x2="225.30" y2="257.00"/>
<line class="whisker" x1="225.30" y1="250.00" x2="225.30" y2="264.00"/>
<line class="whisker" x1="225.30" y1="250.00" x2="225.30" y2="264.00"/>
<rect x="225.30" y="248.00" width="1.00" height="18" fill="#94a3b8" opacity="0.28" stroke="#94a3b8"/>
<line class="median" x1="225.30" y1="248.00" x2="225.30" y2="266.00"/>
<circle class="sample" cx="225.30" cy="257.00" r="2.5"/>
<polygon points="225.30,243.00 221.30,251.00 229.30,251.00" fill="#f59e0b"><title>p90 0.000514s</title></polygon>
<polygon points="225.30,244.00 221.30,252.00 229.30,252.00" fill="#ef4444"><title>p95 0.000514s</title></polygon>
<polygon points="225.30,245.00 221.30,253.00 229.30,253.00" fill="#7c3aed"><title>p99 0.000514s</title></polygon>
<text x="1160" y="261.00" text-anchor="end">p50 0.000514s p95 0.000514s</text>
<text x="12" y="295.00">seq_read [mounted]</text>
<line class="whisker" x1="372.90" y1="291.00" x2="372.90" y2="291.00"/>
<line class="whisker" x1="372.90" y1="284.00" x2="372.90" y2="298.00"/>
<line class="whisker" x1="372.90" y1="284.00" x2="372.90" y2="298.00"/>
<rect x="372.90" y="282.00" width="1.00" height="18" fill="#2563eb" opacity="0.28" stroke="#2563eb"/>
<line class="median" x1="372.90" y1="282.00" x2="372.90" y2="300.00"/>
<circle class="sample" cx="372.90" cy="291.00" r="2.5"/>
<polygon points="372.90,277.00 368.90,285.00 376.90,285.00" fill="#f59e0b"><title>p90 0.005476s</title></polygon>
<polygon points="372.90,278.00 368.90,286.00 376.90,286.00" fill="#ef4444"><title>p95 0.005476s</title></polygon>
<polygon points="372.90,279.00 368.90,287.00 376.90,287.00" fill="#7c3aed"><title>p99 0.005476s</title></polygon>
<text x="1160" y="295.00" text-anchor="end">p50 0.005476s p95 0.005476s</text>
<text x="12" y="329.00">seq_write [mounted]</text>
<line class="whisker" x1="315.96" y1="325.00" x2="315.96" y2="325.00"/>
<line class="whisker" x1="315.96" y1="318.00" x2="315.96" y2="332.00"/>
<line class="whisker" x1="315.96" y1="318.00" x2="315.96" y2="332.00"/>
<rect x="315.96" y="316.00" width="1.00" height="18" fill="#2563eb" opacity="0.28" stroke="#2563eb"/>
<line class="median" x1="315.96" y1="316.00" x2="315.96" y2="334.00"/>
<circle class="sample" cx="315.96" cy="325.00" r="2.5"/>
<polygon points="315.96,311.00 311.96,319.00 319.96,319.00" fill="#f59e0b"><title>p90 0.003562s</title></polygon>
<polygon points="315.96,312.00 311.96,320.00 319.96,320.00" fill="#ef4444"><title>p95 0.003562s</title></polygon>
<polygon points="315.96,313.00 311.96,321.00 319.96,321.00" fill="#7c3aed"><title>p99 0.003562s</title></polygon>
<text x="1160" y="329.00" text-anchor="end">p50 0.003562s p95 0.003562s</text>
<text x="12" y="363.00">small_read [mounted]</text>
<line class="whisker" x1="486.65" y1="359.00" x2="486.65" y2="359.00"/>
<line class="whisker" x1="486.65" y1="352.00" x2="486.65" y2="366.00"/>
<line class="whisker" x1="486.65" y1="352.00" x2="486.65" y2="366.00"/>
<rect x="486.65" y="350.00" width="1.00" height="18" fill="#2563eb" opacity="0.28" stroke="#2563eb"/>
<line class="median" x1="486.65" y1="350.00" x2="486.65" y2="368.00"/>
<circle class="sample" cx="486.65" cy="359.00" r="2.5"/>
<polygon points="486.65,345.00 482.65,353.00 490.65,353.00" fill="#f59e0b"><title>p90 0.009300s</title></polygon>
<polygon points="486.65,346.00 482.65,354.00 490.65,354.00" fill="#ef4444"><title>p95 0.009300s</title></polygon>
<polygon points="486.65,347.00 482.65,355.00 490.65,355.00" fill="#7c3aed"><title>p99 0.009300s</title></polygon>
<text x="1160" y="363.00" text-anchor="end">p50 0.009300s p95 0.009300s</text>
<text x="12" y="397.00">small_write [mounted]</text>
<line class="whisker" x1="970.02" y1="393.00" x2="970.02" y2="393.00"/>
<line class="whisker" x1="970.02" y1="386.00" x2="970.02" y2="400.00"/>
<line class="whisker" x1="970.02" y1="386.00" x2="970.02" y2="400.00"/>
<rect x="970.02" y="384.00" width="1.00" height="18" fill="#2563eb" opacity="0.28" stroke="#2563eb"/>
<line class="median" x1="970.02" y1="384.00" x2="970.02" y2="402.00"/>
<circle class="sample" cx="970.02" cy="393.00" r="2.5"/>
<polygon points="970.02,379.00 966.02,387.00 974.02,387.00" fill="#f59e0b"><title>p90 0.025548s</title></polygon>
<polygon points="970.02,380.00 966.02,388.00 974.02,388.00" fill="#ef4444"><title>p95 0.025548s</title></polygon>
<polygon points="970.02,381.00 966.02,389.00 974.02,389.00" fill="#7c3aed"><title>p99 0.025548s</title></polygon>
<text x="1160" y="397.00" text-anchor="end">p50 0.025548s p95 0.025548s</text>
<text x="12" y="431.00">rand_read_4k [mounted]</text>
<line class="whisker" x1="757.55" y1="427.00" x2="757.55" y2="427.00"/>
<line class="whisker" x1="757.55" y1="420.00" x2="757.55" y2="434.00"/>
<line class="whisker" x1="757.55" y1="420.00" x2="757.55" y2="434.00"/>
<rect x="757.55" y="418.00" width="1.00" height="18" fill="#2563eb" opacity="0.28" stroke="#2563eb"/>
<line class="median" x1="757.55" y1="418.00" x2="757.55" y2="436.00"/>
<circle class="sample" cx="757.55" cy="427.00" r="2.5"/>
<polygon points="757.55,413.00 753.55,421.00 761.55,421.00" fill="#f59e0b"><title>p90 0.018406s</title></polygon>
<polygon points="757.55,414.00 753.55,422.00 761.55,422.00" fill="#ef4444"><title>p95 0.018406s</title></polygon>
<polygon points="757.55,415.00 753.55,423.00 761.55,423.00" fill="#7c3aed"><title>p99 0.018406s</title></polygon>
<text x="1160" y="431.00" text-anchor="end">p50 0.018406s p95 0.018406s</text>
<text x="12" y="465.00">rand_write_4k [mounted]</text>
<line class="whisker" x1="1073.64" y1="461.00" x2="1073.64" y2="461.00"/>
<line class="whisker" x1="1073.64" y1="454.00" x2="1073.64" y2="468.00"/>
<line class="whisker" x1="1073.64" y1="454.00" x2="1073.64" y2="468.00"/>
<rect x="1073.64" y="452.00" width="1.00" height="18" fill="#2563eb" opacity="0.28" stroke="#2563eb"/>
<line class="median" x1="1073.64" y1="452.00" x2="1073.64" y2="470.00"/>
<circle class="sample" cx="1073.64" cy="461.00" r="2.5"/>
<polygon points="1073.64,447.00 1069.64,455.00 1077.64,455.00" fill="#f59e0b"><title>p90 0.029031s</title></polygon>
<polygon points="1073.64,448.00 1069.64,456.00 1077.64,456.00" fill="#ef4444"><title>p95 0.029031s</title></polygon>
<polygon points="1073.64,449.00 1069.64,457.00 1077.64,457.00" fill="#7c3aed"><title>p99 0.029031s</title></polygon>
<text x="1160" y="465.00" text-anchor="end">p50 0.029031s p95 0.029031s</text>
</svg>