<svg xmlns="http://www.w3.org/2000/svg" width="1200" height="752" viewBox="0 0 1200 752">
<style>
text{font-family:Inter,Pretendard,Arial,sans-serif;fill:#111827;font-size:13px}
.axis{stroke:#64748b;stroke-width:1}.grid{stroke:#e2e8f0;stroke-width:1}.median{stroke:#111827;stroke-width:2}.whisker{stroke:#475569;stroke-width:1.5}.sample{fill:#0f172a;opacity:.35}
</style>
<text x="210" y="30" font-size="20" font-weight="700">ScreenFS benchmark box plot</text>
<text x="210" y="50">seconds; lower is better; box=min/q1/p50/q3/max; p90/p95/p99 markers shown; timestamp 2026-06-14T14:18:56.649473+00:00</text>
<line class="grid" x1="210.00" y1="60" x2="210.00" y2="692"/>
<text x="210.00" y="727" text-anchor="middle">0.0000</text>
<line class="grid" x1="400.00" y1="60" x2="400.00" y2="692"/>
<text x="400.00" y="727" text-anchor="middle">0.1108</text>
<line class="grid" x1="590.00" y1="60" x2="590.00" y2="692"/>
<text x="590.00" y="727" text-anchor="middle">0.2217</text>
<line class="grid" x1="780.00" y1="60" x2="780.00" y2="692"/>
<text x="780.00" y="727" text-anchor="middle">0.3325</text>
<line class="grid" x1="970.00" y1="60" x2="970.00" y2="692"/>
<text x="970.00" y="727" text-anchor="middle">0.4433</text>
<line class="grid" x1="1160.00" y1="60" x2="1160.00" y2="692"/>
<text x="1160.00" y="727" text-anchor="middle">0.5542</text>
<line class="axis" x1="210" y1="692" x2="1160" y2="692"/>
<text x="12" y="91.00">seq_read [native]</text>
<line class="whisker" x1="213.09" y1="87.00" x2="213.66" y2="87.00"/>
<line class="whisker" x1="213.09" y1="80.00" x2="213.09" y2="94.00"/>
<line class="whisker" x1="213.66" y1="80.00" x2="213.66" y2="94.00"/>
<rect x="213.27" y="78.00" width="1.00" height="18" fill="#94a3b8" opacity="0.28" stroke="#94a3b8"/>
<line class="median" x1="213.44" y1="78.00" x2="213.44" y2="96.00"/>
<circle class="sample" cx="213.66" cy="87.00" r="2.5"/>
<circle class="sample" cx="213.44" cy="87.00" r="2.5"/>
<circle class="sample" cx="213.09" cy="87.00" r="2.5"/>
<polygon points="213.62,73.00 209.62,81.00 217.62,81.00" fill="#f59e0b"><title>p90 0.002112s</title></polygon>
<polygon points="213.64,74.00 209.64,82.00 217.64,82.00" fill="#ef4444"><title>p95 0.002125s</title></polygon>
<polygon points="213.66,75.00 209.66,83.00 217.66,83.00" fill="#7c3aed"><title>p99 0.002135s</title></polygon>
<text x="1160" y="91.00" text-anchor="end">p50 0.002009s p95 0.002125s</text>
<text x="12" y="125.00">seq_write [native]</text>
<line class="whisker" x1="212.79" y1="121.00" x2="216.29" y2="121.00"/>
<line class="whisker" x1="212.79" y1="114.00" x2="212.79" y2="128.00"/>
<line class="whisker" x1="216.29" y1="114.00" x2="216.29" y2="128.00"/>
<rect x="214.14" y="112.00" width="1.75" height="18" fill="#94a3b8" opacity="0.28" stroke="#94a3b8"/>
<line class="median" x1="215.49" y1="112.00" x2="215.49" y2="130.00"/>
<circle class="sample" cx="216.29" cy="121.00" r="2.5"/>
<circle class="sample" cx="212.79" cy="121.00" r="2.5"/>
<circle class="sample" cx="215.49" cy="121.00" r="2.5"/>
<polygon points="216.13,107.00 212.13,115.00 220.13,115.00" fill="#f59e0b"><title>p90 0.003579s</title></polygon>
<polygon points="216.21,108.00 212.21,116.00 220.21,116.00" fill="#ef4444"><title>p95 0.003625s</title></polygon>
<polygon points="216.28,109.00 212.28,117.00 220.28,117.00" fill="#7c3aed"><title>p99 0.003663s</title></polygon>
<text x="1160" y="125.00" text-anchor="end">p50 0.003205s p95 0.003625s</text>
<text x="12" y="159.00">small_read [native]</text>
<line class="whisker" x1="210.14" y1="155.00" x2="210.19" y2="155.00"/>
<line class="whisker" x1="210.14" y1="148.00" x2="210.14" y2="162.00"/>
<line class="whisker" x1="210.19" y1="148.00" x2="210.19" y2="162.00"/>
<rect x="210.14" y="146.00" width="1.00" height="18" fill="#94a3b8" opacity="0.28" stroke="#94a3b8"/>
<line class="median" x1="210.14" y1="146.00" x2="210.14" y2="164.00"/>
<circle class="sample" cx="210.19" cy="155.00" r="2.5"/>
<circle class="sample" cx="210.14" cy="155.00" r="2.5"/>
<circle class="sample" cx="210.14" cy="155.00" r="2.5"/>
<polygon points="210.18,141.00 206.18,149.00 214.18,149.00" fill="#f59e0b"><title>p90 0.000107s</title></polygon>
<polygon points="210.19,142.00 206.19,150.00 214.19,150.00" fill="#ef4444"><title>p95 0.000110s</title></polygon>
<polygon points="210.19,143.00 206.19,151.00 214.19,151.00" fill="#7c3aed"><title>p99 0.000112s</title></polygon>
<text x="1160" y="159.00" text-anchor="end">p50 0.000084s p95 0.000110s</text>
<text x="12" y="193.00">small_write [native]</text>
<line class="whisker" x1="210.22" y1="189.00" x2="210.25" y2="189.00"/>
<line class="whisker" x1="210.22" y1="182.00" x2="210.22" y2="196.00"/>
<line class="whisker" x1="210.25" y1="182.00" x2="210.25" y2="196.00"/>
<rect x="210.22" y="180.00" width="1.00" height="18" fill="#94a3b8" opacity="0.28" stroke="#94a3b8"/>
<line class="median" x1="210.23" y1="180.00" x2="210.23" y2="198.00"/>
<circle class="sample" cx="210.25" cy="189.00" r="2.5"/>
<circle class="sample" cx="210.22" cy="189.00" r="2.5"/>
<circle class="sample" cx="210.23" cy="189.00" r="2.5"/>
<polygon points="210.25,175.00 206.25,183.00 214.25,183.00" fill="#f59e0b"><title>p90 0.000145s</title></polygon>
<polygon points="210.25,176.00 206.25,184.00 214.25,184.00" fill="#ef4444"><title>p95 0.000147s</title></polygon>
<polygon points="210.25,177.00 206.25,185.00 214.25,185.00" fill="#7c3aed"><title>p99 0.000148s</title></polygon>
<text x="1160" y="193.00" text-anchor="end">p50 0.000132s p95 0.000147s</text>
<text x="12" y="227.00">write_fsync_close [native]</text>
<line class="whisker" x1="210.26" y1="223.00" x2="210.31" y2="223.00"/>
<line class="whisker" x1="210.26" y1="216.00" x2="210.26" y2="230.00"/>
<line class="whisker" x1="210.31" y1="216.00" x2="210.31" y2="230.00"/>
<rect x="210.27" y="214.00" width="1.00" height="18" fill="#94a3b8" opacity="0.28" stroke="#94a3b8"/>
<line class="median" x1="210.27" y1="214.00" x2="210.27" y2="232.00"/>
<circle class="sample" cx="210.31" cy="223.00" r="2.5"/>
<circle class="sample" cx="210.27" cy="223.00" r="2.5"/>
<circle class="sample" cx="210.26" cy="223.00" r="2.5"/>
<polygon points="210.30,209.00 206.30,217.00 214.30,217.00" fill="#f59e0b"><title>p90 0.000176s</title></polygon>
<polygon points="210.31,210.00 206.31,218.00 214.31,218.00" fill="#ef4444"><title>p95 0.000178s</title></polygon>
<polygon points="210.31,211.00 206.31,219.00 214.31,219.00" fill="#7c3aed"><title>p99 0.000180s</title></polygon>
<text x="1160" y="227.00" text-anchor="end">p50 0.000159s p95 0.000178s</text>
<text x="12" y="261.00">small_stat_open_read [native]</text>
<line class="whisker" x1="214.36" y1="257.00" x2="215.20" y2="257.00"/>
<line class="whisker" x1="214.36" y1="250.00" x2="214.36" y2="264.00"/>
<line class="whisker" x1="215.20" y1="250.00" x2="215.20" y2="264.00"/>
<rect x="214.40" y="248.00" width="1.00" height="18" fill="#94a3b8" opacity="0.28" stroke="#94a3b8"/>
<line class="median" x1="214.44" y1="248.00" x2="214.44" y2="266.00"/>
<circle class="sample" cx="214.36" cy="257.00" r="2.5"/>
<circle class="sample" cx="214.44" cy="257.00" r="2.5"/>
<circle class="sample" cx="215.20" cy="257.00" r="2.5"/>
<polygon points="215.05,243.00 211.05,251.00 219.05,251.00" fill="#f59e0b"><title>p90 0.002943s</title></polygon>
<polygon points="215.12,244.00 211.12,252.00 219.12,252.00" fill="#ef4444"><title>p95 0.002987s</title></polygon>
<polygon points="215.18,245.00 211.18,253.00 219.18,253.00" fill="#7c3aed"><title>p99 0.003022s</title></polygon>
<text x="1160" y="261.00" text-anchor="end">p50 0.002592s p95 0.002987s</text>
<text x="12" y="295.00">readdir_lstat [native]</text>
<line class="whisker" x1="211.91" y1="291.00" x2="213.78" y2="291.00"/>
<line class="whisker" x1="211.91" y1="284.00" x2="211.91" y2="298.00"/>
<line class="whisker" x1="213.78" y1="284.00" x2="213.78" y2="298.00"/>
<rect x="211.96" y="282.00" width="1.00" height="18" fill="#94a3b8" opacity="0.28" stroke="#94a3b8"/>
<line class="median" x1="212.01" y1="282.00" x2="212.01" y2="300.00"/>
<circle class="sample" cx="213.78" cy="291.00" r="2.5"/>
<circle class="sample" cx="212.01" cy="291.00" r="2.5"/>
<circle class="sample" cx="211.91" cy="291.00" r="2.5"/>
<polygon points="213.43,277.00 209.43,285.00 217.43,285.00" fill="#f59e0b"><title>p90 0.001999s</title></polygon>
<polygon points="213.60,278.00 209.60,286.00 217.60,286.00" fill="#ef4444"><title>p95 0.002102s</title></polygon>
<polygon points="213.74,279.00 209.74,287.00 217.74,287.00" fill="#7c3aed"><title>p99 0.002184s</title></polygon>
<text x="1160" y="295.00" text-anchor="end">p50 0.001174s p95 0.002102s</text>
<text x="12" y="329.00">symlink_open_read [native]</text>
<line class="whisker" x1="210.03" y1="325.00" x2="210.05" y2="325.00"/>
<line class="whisker" x1="210.03" y1="318.00" x2="210.03" y2="332.00"/>
<line class="whisker" x1="210.05" y1="318.00" x2="210.05" y2="332.00"/>
<rect x="210.03" y="316.00" width="1.00" height="18" fill="#94a3b8" opacity="0.28" stroke="#94a3b8"/>
<line class="median" x1="210.03" y1="316.00" x2="210.03" y2="334.00"/>
<circle class="sample" cx="210.05" cy="325.00" r="2.5"/>
<circle class="sample" cx="210.03" cy="325.00" r="2.5"/>
<circle class="sample" cx="210.03" cy="325.00" r="2.5"/>
<polygon points="210.05,311.00 206.05,319.00 214.05,319.00" fill="#f59e0b"><title>p90 0.000027s</title></polygon>
<polygon points="210.05,312.00 206.05,320.00 214.05,320.00" fill="#ef4444"><title>p95 0.000029s</title></polygon>
<polygon points="210.05,313.00 206.05,321.00 214.05,321.00" fill="#7c3aed"><title>p99 0.000030s</title></polygon>
<text x="1160" y="329.00" text-anchor="end">p50 0.000018s p95 0.000029s</text>
<text x="12" y="363.00">seq_read [mounted]</text>
<line class="whisker" x1="219.65" y1="359.00" x2="220.18" y2="359.00"/>
<line class="whisker" x1="219.65" y1="352.00" x2="219.65" y2="366.00"/>
<line class="whisker" x1="220.18" y1="352.00" x2="220.18" y2="366.00"/>
<rect x="219.73" y="350.00" width="1.00" height="18" fill="#2563eb" opacity="0.28" stroke="#2563eb"/>
<line class="median" x1="219.80" y1="350.00" x2="219.80" y2="368.00"/>
<circle class="sample" cx="220.18" cy="359.00" r="2.5"/>
<circle class="sample" cx="219.80" cy="359.00" r="2.5"/>
<circle class="sample" cx="219.65" cy="359.00" r="2.5"/>
<polygon points="220.10,345.00 216.10,353.00 224.10,353.00" fill="#f59e0b"><title>p90 0.005894s</title></polygon>
<polygon points="220.14,346.00 216.14,354.00 224.14,354.00" fill="#ef4444"><title>p95 0.005916s</title></polygon>
<polygon points="220.17,347.00 216.17,355.00 224.17,355.00" fill="#7c3aed"><title>p99 0.005933s</title></polygon>
<text x="1160" y="363.00" text-anchor="end">p50 0.005719s p95 0.005916s</text>
<text x="12" y="397.00">seq_write [mounted]</text>
<line class="whisker" x1="218.15" y1="393.00" x2="218.88" y2="393.00"/>
<line class="whisker" x1="218.15" y1="386.00" x2="218.15" y2="400.00"/>
<line class="whisker" x1="218.88" y1="386.00" x2="218.88" y2="400.00"/>
<rect x="218.40" y="384.00" width="1.00" height="18" fill="#2563eb" opacity="0.28" stroke="#2563eb"/>
<line class="median" x1="218.64" y1="384.00" x2="218.64" y2="402.00"/>
<circle class="sample" cx="218.88" cy="393.00" r="2.5"/>
<circle class="sample" cx="218.15" cy="393.00" r="2.5"/>
<circle class="sample" cx="218.64" cy="393.00" r="2.5"/>
<polygon points="218.83,379.00 214.83,387.00 222.83,387.00" fill="#f59e0b"><title>p90 0.005152s</title></polygon>
<polygon points="218.86,380.00 214.86,388.00 222.86,388.00" fill="#ef4444"><title>p95 0.005166s</title></polygon>
<polygon points="218.87,381.00 214.87,389.00 222.87,389.00" fill="#7c3aed"><title>p99 0.005177s</title></polygon>
<text x="1160" y="397.00" text-anchor="end">p50 0.005043s p95 0.005166s</text>
<text x="12" y="431.00">small_read [mounted]</text>
<line class="whisker" x1="217.30" y1="427.00" x2="217.78" y2="427.00"/>
<line class="whisker" x1="217.30" y1="420.00" x2="217.30" y2="434.00"/>
<line class="whisker" x1="217.78" y1="420.00" x2="217.78" y2="434.00"/>
<rect x="217.49" y="418.00" width="1.00" height="18" fill="#2563eb" opacity="0.28" stroke="#2563eb"/>
<line class="median" x1="217.68" y1="418.00" x2="217.68" y2="436.00"/>
<circle class="sample" cx="217.30" cy="427.00" r="2.5"/>
<circle class="sample" cx="217.78" cy="427.00" r="2.5"/>
<circle class="sample" cx="217.68" cy="427.00" r="2.5"/>
<polygon points="217.76,413.00 213.76,421.00 221.76,421.00" fill="#f59e0b"><title>p90 0.004525s</title></polygon>
<polygon points="217.77,414.00 213.77,422.00 221.77,422.00" fill="#ef4444"><title>p95 0.004531s</title></polygon>
<polygon points="217.78,415.00 213.78,423.00 221.78,423.00" fill="#7c3aed"><title>p99 0.004535s</title></polygon>
<text x="1160" y="431.00" text-anchor="end">p50 0.004480s p95 0.004531s</text>
<text x="12" y="465.00">small_write [mounted]</text>
<line class="whisker" x1="222.73" y1="461.00" x2="224.04" y2="461.00"/>
<line class="whisker" x1="222.73" y1="454.00" x2="222.73" y2="468.00"/>
<line class="whisker" x1="224.04" y1="454.00" x2="224.04" y2="468.00"/>
<rect x="222.83" y="452.00" width="1.00" height="18" fill="#2563eb" opacity="0.28" stroke="#2563eb"/>
<line class="median" x1="222.93" y1="452.00" x2="222.93" y2="470.00"/>
<circle class="sample" cx="224.04" cy="461.00" r="2.5"/>
<circle class="sample" cx="222.73" cy="461.00" r="2.5"/>
<circle class="sample" cx="222.93" cy="461.00" r="2.5"/>
<polygon points="223.82,447.00 219.82,455.00 227.82,455.00" fill="#f59e0b"><title>p90 0.008061s</title></polygon>
<polygon points="223.93,448.00 219.93,456.00 227.93,456.00" fill="#ef4444"><title>p95 0.008126s</title></polygon>
<polygon points="224.02,449.00 220.02,457.00 228.02,457.00" fill="#7c3aed"><title>p99 0.008177s</title></polygon>
<text x="1160" y="465.00" text-anchor="end">p50 0.007545s p95 0.008126s</text>
<text x="12" y="499.00">write_fsync_close [mounted]</text>
<line class="whisker" x1="233.96" y1="495.00" x2="235.82" y2="495.00"/>
<line class="whisker" x1="233.96" y1="488.00" x2="233.96" y2="502.00"/>
<line class="whisker" x1="235.82" y1="488.00" x2="235.82" y2="502.00"/>
<rect x="234.19" y="486.00" width="1.00" height="18" fill="#2563eb" opacity="0.28" stroke="#2563eb"/>
<line class="median" x1="234.43" y1="486.00" x2="234.43" y2="504.00"/>
<circle class="sample" cx="234.43" cy="495.00" r="2.5"/>
<circle class="sample" cx="235.82" cy="495.00" r="2.5"/>
<circle class="sample" cx="233.96" cy="495.00" r="2.5"/>
<polygon points="235.54,481.00 231.54,489.00 239.54,489.00" fill="#f59e0b"><title>p90 0.014901s</title></polygon>
<polygon points="235.68,482.00 231.68,490.00 239.68,490.00" fill="#ef4444"><title>p95 0.014982s</title></polygon>
<polygon points="235.80,483.00 231.80,491.00 239.80,491.00" fill="#7c3aed"><title>p99 0.015048s</title></polygon>
<text x="1160" y="499.00" text-anchor="end">p50 0.014248s p95 0.014982s</text>
<text x="12" y="533.00">small_stat_open_read [mounted]</text>
<line class="whisker" x1="359.79" y1="529.00" x2="454.99" y2="529.00"/>
<line class="whisker" x1="359.79" y1="522.00" x2="359.79" y2="536.00"/>
<line class="whisker" x1="454.99" y1="522.00" x2="454.99" y2="536.00"/>
<rect x="391.94" y="520.00" width="47.60" height="18" fill="#2563eb" opacity="0.28" stroke="#2563eb"/>
<line class="median" x1="424.09" y1="520.00" x2="424.09" y2="538.00"/>
<circle class="sample" cx="454.99" cy="529.00" r="2.5"/>
<circle class="sample" cx="424.09" cy="529.00" r="2.5"/>
<circle class="sample" cx="359.79" cy="529.00" r="2.5"/>
<polygon points="448.81,515.00 444.81,523.00 452.81,523.00" fill="#f59e0b"><title>p90 0.139303s</title></polygon>
<polygon points="451.90,516.00 447.90,524.00 455.90,524.00" fill="#ef4444"><title>p95 0.141106s</title></polygon>
<polygon points="454.37,517.00 450.37,525.00 458.37,525.00" fill="#7c3aed"><title>p99 0.142548s</title></polygon>
<text x="1160" y="533.00" text-anchor="end">p50 0.124883s p95 0.141106s</text>
<text x="12" y="567.00">readdir_lstat [mounted]</text>
<line class="whisker" x1="306.04" y1="563.00" x2="431.05" y2="563.00"/>
<line class="whisker" x1="306.04" y1="556.00" x2="306.04" y2="570.00"/>
<line class="whisker" x1="431.05" y1="556.00" x2="431.05" y2="570.00"/>
<rect x="342.84" y="554.00" width="62.51" height="18" fill="#2563eb" opacity="0.28" stroke="#2563eb"/>
<line class="median" x1="379.64" y1="554.00" x2="379.64" y2="572.00"/>
<circle class="sample" cx="431.05" cy="563.00" r="2.5"/>
<circle class="sample" cx="379.64" cy="563.00" r="2.5"/>
<circle class="sample" cx="306.04" cy="563.00" r="2.5"/>
<polygon points="420.77,549.00 416.77,557.00 424.77,557.00" fill="#f59e0b"><title>p90 0.122946s</title></polygon>
<polygon points="425.91,550.00 421.91,558.00 429.91,558.00" fill="#ef4444"><title>p95 0.125946s</title></polygon>
<polygon points="430.02,551.00 426.02,559.00 434.02,559.00" fill="#7c3aed"><title>p99 0.128345s</title></polygon>
<text x="1160" y="567.00" text-anchor="end">p50 0.098953s p95 0.125946s</text>
<text x="12" y="601.00">symlink_open_read [mounted]</text>
<line class="whisker" x1="210.48" y1="597.00" x2="210.51" y2="597.00"/>
<line class="whisker" x1="210.48" y1="590.00" x2="210.48" y2="604.00"/>
<line class="whisker" x1="210.51" y1="590.00" x2="210.51" y2="604.00"/>
<rect x="210.48" y="588.00" width="1.00" height="18" fill="#2563eb" opacity="0.28" stroke="#2563eb"/>
<line class="median" x1="210.49" y1="588.00" x2="210.49" y2="606.00"/>
<circle class="sample" cx="210.51" cy="597.00" r="2.5"/>
<circle class="sample" cx="210.49" cy="597.00" r="2.5"/>
<circle class="sample" cx="210.48" cy="597.00" r="2.5"/>
<polygon points="210.51,583.00 206.51,591.00 214.51,591.00" fill="#f59e0b"><title>p90 0.000296s</title></polygon>
<polygon points="210.51,584.00 206.51,592.00 214.51,592.00" fill="#ef4444"><title>p95 0.000297s</title></polygon>
<polygon points="210.51,585.00 206.51,593.00 214.51,593.00" fill="#7c3aed"><title>p99 0.000298s</title></polygon>
<text x="1160" y="601.00" text-anchor="end">p50 0.000285s p95 0.000297s</text>
<text x="12" y="635.00">hidden_stat_miss [mounted-only]</text>
<line class="whisker" x1="223.66" y1="631.00" x2="230.03" y2="631.00"/>
<line class="whisker" x1="223.66" y1="624.00" x2="223.66" y2="638.00"/>
<line class="whisker" x1="230.03" y1="624.00" x2="230.03" y2="638.00"/>
<rect x="223.81" y="622.00" width="3.18" height="18" fill="#16a34a" opacity="0.28" stroke="#16a34a"/>
<line class="median" x1="223.96" y1="622.00" x2="223.96" y2="640.00"/>
<circle class="sample" cx="223.96" cy="631.00" r="2.5"/>
<circle class="sample" cx="223.66" cy="631.00" r="2.5"/>
<circle class="sample" cx="230.03" cy="631.00" r="2.5"/>
<polygon points="228.81,617.00 224.81,625.00 232.81,625.00" fill="#f59e0b"><title>p90 0.010975s</title></polygon>
<polygon points="229.42,618.00 225.42,626.00 233.42,626.00" fill="#ef4444"><title>p95 0.011329s</title></polygon>
<polygon points="229.91,619.00 225.91,627.00 233.91,627.00" fill="#7c3aed"><title>p99 0.011612s</title></polygon>
<text x="1160" y="635.00" text-anchor="end">p50 0.008144s p95 0.011329s</text>
<text x="12" y="669.00">symlink_parent_mkdir_rmdir [mounted-only]</text>
<line class="whisker" x1="900.90" y1="665.00" x2="1073.64" y2="665.00"/>
<line class="whisker" x1="900.90" y1="658.00" x2="900.90" y2="672.00"/>
<line class="whisker" x1="1073.64" y1="658.00" x2="1073.64" y2="672.00"/>
<rect x="945.70" y="656.00" width="86.37" height="18" fill="#16a34a" opacity="0.28" stroke="#16a34a"/>
<line class="median" x1="990.49" y1="656.00" x2="990.49" y2="674.00"/>
<circle class="sample" cx="900.90" cy="665.00" r="2.5"/>
<circle class="sample" cx="990.49" cy="665.00" r="2.5"/>
<circle class="sample" cx="1073.64" cy="665.00" r="2.5"/>
<polygon points="1057.01,651.00 1053.01,659.00 1061.01,659.00" fill="#f59e0b"><title>p90 0.494081s</title></polygon>
<polygon points="1065.32,652.00 1061.32,660.00 1069.32,660.00" fill="#ef4444"><title>p95 0.498931s</title></polygon>
<polygon points="1071.97,653.00 1067.97,661.00 1075.97,661.00" fill="#7c3aed"><title>p99 0.502811s</title></polygon>
<text x="1160" y="669.00" text-anchor="end">p50 0.455281s p95 0.498931s</text>
</svg>