<svg xmlns="http://www.w3.org/2000/svg" width="1600" height="900" viewBox="0 0 1600 900">
<rect width="100%" height="100%" fill="white"/>
<style>text{font-family:Arial,sans-serif;font-size:18px}.small{font-size:14px}.title{font-size:28px;font-weight:bold}</style>
<text x="800.0" y="36" text-anchor="middle" class="title">Managed fio attribution clat boxplot (fixed 0..250 µs)</text>
<line x1="110" y1="780.0" x2="1560" y2="780.0" stroke="#ddd"/>
<text x="98" y="786.0" text-anchor="end">0</text>
<line x1="110" y1="638.0" x2="1560" y2="638.0" stroke="#ddd"/>
<text x="98" y="644.0" text-anchor="end">50</text>
<line x1="110" y1="496.0" x2="1560" y2="496.0" stroke="#ddd"/>
<text x="98" y="502.0" text-anchor="end">100</text>
<line x1="110" y1="354.0" x2="1560" y2="354.0" stroke="#ddd"/>
<text x="98" y="360.0" text-anchor="end">150</text>
<line x1="110" y1="212.0" x2="1560" y2="212.0" stroke="#ddd"/>
<text x="98" y="218.0" text-anchor="end">200</text>
<line x1="110" y1="70.0" x2="1560" y2="70.0" stroke="#ddd"/>
<text x="98" y="76.0" text-anchor="end">250</text>
<line x1="110" y1="70" x2="110" y2="780" stroke="#333"/>
<line x1="110" y1="780" x2="1560" y2="780" stroke="#333"/>
<text x="255.0" y="822" text-anchor="middle" class="small">seq_write_128k</text>
<line x1="213.0" y1="722.2" x2="213.0" y2="642.6" stroke="#777777" stroke-width="2"/>
<line x1="200.0" y1="722.2" x2="226.0" y2="722.2" stroke="#777777"/>
<line x1="200.0" y1="642.6" x2="226.0" y2="642.6" stroke="#777777"/>
<rect x="200.0" y="692.8" width="26" height="14.5" fill="#777777" fill-opacity="0.25" stroke="#777777"/>
<line x1="200.0" y1="698.9" x2="226.0" y2="698.9" stroke="#777777" stroke-width="3"/>
<circle cx="213.0" cy="683.3" r="5" fill="#ff9800" stroke="#5a3a00"/>
<path d="M 213.0 691.9 L 220.0 698.9 L 213.0 705.9 L 206.0 698.9 Z" fill="black"/>
<line x1="255.0" y1="683.3" x2="255.0" y2="592.4" stroke="#2f6fbb" stroke-width="2"/>
<line x1="242.0" y1="683.3" x2="268.0" y2="683.3" stroke="#2f6fbb"/>
<line x1="242.0" y1="592.4" x2="268.0" y2="592.4" stroke="#2f6fbb"/>
<rect x="242.0" y="670.2" width="26" height="8.0" fill="#2f6fbb" fill-opacity="0.25" stroke="#2f6fbb"/>
<line x1="242.0" y1="674.6" x2="268.0" y2="674.6" stroke="#2f6fbb" stroke-width="3"/>
<circle cx="255.0" cy="660.0" r="5" fill="#ff9800" stroke="#5a3a00"/>
<path d="M 255.0 665.4 L 262.0 672.4 L 255.0 679.4 L 248.0 672.4 Z" fill="black"/>
<line x1="297.0" y1="484.8" x2="297.0" y2="242.0" stroke="#cc3333" stroke-width="2"/>
<line x1="284.0" y1="484.8" x2="310.0" y2="484.8" stroke="#cc3333"/>
<line x1="284.0" y1="242.0" x2="310.0" y2="242.0" stroke="#cc3333"/>
<rect x="284.0" y="384.5" width="26" height="69.8" fill="#cc3333" fill-opacity="0.25" stroke="#cc3333"/>
<line x1="284.0" y1="409.2" x2="310.0" y2="409.2" stroke="#cc3333" stroke-width="3"/>
<circle cx="297.0" cy="346.7" r="5" fill="#ff9800" stroke="#5a3a00"/>
<path d="M 297.0 406.1 L 304.0 413.1 L 297.0 420.1 L 290.0 413.1 Z" fill="black"/>
<text x="545.0" y="822" text-anchor="middle" class="small">seq_read_128k</text>
<line x1="503.0" y1="753.3" x2="503.0" y2="717.1" stroke="#777777" stroke-width="2"/>
<line x1="490.0" y1="753.3" x2="516.0" y2="753.3" stroke="#777777"/>
<line x1="490.0" y1="717.1" x2="516.0" y2="717.1" stroke="#777777"/>
<rect x="490.0" y="732.8" width="26" height="11.9" fill="#777777" fill-opacity="0.25" stroke="#777777"/>
<line x1="490.0" y1="739.5" x2="516.0" y2="739.5" stroke="#777777" stroke-width="3"/>
<circle cx="503.0" cy="728.0" r="5" fill="#ff9800" stroke="#5a3a00"/>
<path d="M 503.0 730.8 L 510.0 737.8 L 503.0 744.8 L 496.0 737.8 Z" fill="black"/>
<line x1="545.0" y1="756.2" x2="545.0" y2="387.4" stroke="#2f6fbb" stroke-width="2"/>
<line x1="532.0" y1="756.2" x2="558.0" y2="756.2" stroke="#2f6fbb"/>
<line x1="532.0" y1="387.4" x2="558.0" y2="387.4" stroke="#2f6fbb"/>
<rect x="532.0" y="554.6" width="26" height="182.2" fill="#2f6fbb" fill-opacity="0.25" stroke="#2f6fbb"/>
<line x1="532.0" y1="604.8" x2="558.0" y2="604.8" stroke="#2f6fbb" stroke-width="3"/>
<circle cx="545.0" cy="481.9" r="5" fill="#ff9800" stroke="#5a3a00"/>
<path d="M 545.0 618.6 L 552.0 625.6 L 545.0 632.6 L 538.0 625.6 Z" fill="black"/>
<line x1="587.0" y1="726.6" x2="587.0" y2="70.0" stroke="#cc3333" stroke-width="2"/>
<line x1="574.0" y1="726.6" x2="600.0" y2="726.6" stroke="#cc3333"/>
<line x1="574.0" y1="70.0" x2="600.0" y2="70.0" stroke="#cc3333"/>
<rect x="574.0" y="335.1" width="26" height="320.6" fill="#cc3333" fill-opacity="0.25" stroke="#cc3333"/>
<line x1="574.0" y1="399.0" x2="600.0" y2="399.0" stroke="#cc3333" stroke-width="3"/>
<circle cx="587.0" cy="70.0" r="5" fill="#ff9800" stroke="#5a3a00"/>
<path d="M 587.0 433.0 L 594.0 440.0 L 587.0 447.0 L 580.0 440.0 Z" fill="black"/>
<text x="835.0" y="822" text-anchor="middle" class="small">rand_write_4k</text>
<line x1="793.0" y1="779.3" x2="793.0" y2="777.7" stroke="#777777" stroke-width="2"/>
<line x1="780.0" y1="779.3" x2="806.0" y2="779.3" stroke="#777777"/>
<line x1="780.0" y1="777.7" x2="806.0" y2="777.7" stroke="#777777"/>
<rect x="780.0" y="778.7" width="26" height="1.0" fill="#777777" fill-opacity="0.25" stroke="#777777"/>
<line x1="780.0" y1="778.8" x2="806.0" y2="778.8" stroke="#777777" stroke-width="3"/>
<circle cx="793.0" cy="778.2" r="5" fill="#ff9800" stroke="#5a3a00"/>
<path d="M 793.0 771.8 L 800.0 778.8 L 793.0 785.8 L 786.0 778.8 Z" fill="black"/>
<line x1="835.0" y1="769.2" x2="835.0" y2="744.9" stroke="#2f6fbb" stroke-width="2"/>
<line x1="822.0" y1="769.2" x2="848.0" y2="769.2" stroke="#2f6fbb"/>
<line x1="822.0" y1="744.9" x2="848.0" y2="744.9" stroke="#2f6fbb"/>
<rect x="822.0" y="759.1" width="26" height="6.9" fill="#2f6fbb" fill-opacity="0.25" stroke="#2f6fbb"/>
<line x1="822.0" y1="762.5" x2="848.0" y2="762.5" stroke="#2f6fbb" stroke-width="3"/>
<circle cx="835.0" cy="754.7" r="5" fill="#ff9800" stroke="#5a3a00"/>
<path d="M 835.0 754.6 L 842.0 761.6 L 835.0 768.6 L 828.0 761.6 Z" fill="black"/>
<line x1="877.0" y1="702.6" x2="877.0" y2="575.0" stroke="#cc3333" stroke-width="2"/>
<line x1="864.0" y1="702.6" x2="890.0" y2="702.6" stroke="#cc3333"/>
<line x1="864.0" y1="575.0" x2="890.0" y2="575.0" stroke="#cc3333"/>
<rect x="864.0" y="660.0" width="26" height="31.3" fill="#cc3333" fill-opacity="0.25" stroke="#cc3333"/>
<line x1="864.0" y1="683.3" x2="890.0" y2="683.3" stroke="#cc3333" stroke-width="3"/>
<circle cx="877.0" cy="633.9" r="5" fill="#ff9800" stroke="#5a3a00"/>
<path d="M 877.0 665.9 L 884.0 672.9 L 877.0 679.9 L 870.0 672.9 Z" fill="black"/>
<text x="1125.0" y="822" text-anchor="middle" class="small">rand_read_4k</text>
<line x1="1083.0" y1="778.8" x2="1083.0" y2="775.8" stroke="#777777" stroke-width="2"/>
<line x1="1070.0" y1="778.8" x2="1096.0" y2="778.8" stroke="#777777"/>
<line x1="1070.0" y1="775.8" x2="1096.0" y2="775.8" stroke="#777777"/>
<rect x="1070.0" y="777.5" width="26" height="1.0" fill="#777777" fill-opacity="0.25" stroke="#777777"/>
<line x1="1070.0" y1="777.9" x2="1096.0" y2="777.9" stroke="#777777" stroke-width="3"/>
<circle cx="1083.0" cy="776.7" r="5" fill="#ff9800" stroke="#5a3a00"/>
<path d="M 1083.0 770.7 L 1090.0 777.7 L 1083.0 784.7 L 1076.0 777.7 Z" fill="black"/>
<line x1="1125.0" y1="757.2" x2="1125.0" y2="716.4" stroke="#2f6fbb" stroke-width="2"/>
<line x1="1112.0" y1="757.2" x2="1138.0" y2="757.2" stroke="#2f6fbb"/>
<line x1="1112.0" y1="716.4" x2="1138.0" y2="716.4" stroke="#2f6fbb"/>
<rect x="1112.0" y="743.1" width="26" height="9.1" fill="#2f6fbb" fill-opacity="0.25" stroke="#2f6fbb"/>
<line x1="1112.0" y1="746.4" x2="1138.0" y2="746.4" stroke="#2f6fbb" stroke-width="3"/>
<circle cx="1125.0" cy="734.4" r="5" fill="#ff9800" stroke="#5a3a00"/>
<path d="M 1125.0 739.0 L 1132.0 746.0 L 1125.0 753.0 L 1118.0 746.0 Z" fill="black"/>
<line x1="1167.0" y1="720.7" x2="1167.0" y2="606.2" stroke="#cc3333" stroke-width="2"/>
<line x1="1154.0" y1="720.7" x2="1180.0" y2="720.7" stroke="#cc3333"/>
<line x1="1154.0" y1="606.2" x2="1180.0" y2="606.2" stroke="#cc3333"/>
<rect x="1154.0" y="681.1" width="26" height="12.0" fill="#cc3333" fill-opacity="0.25" stroke="#cc3333"/>
<line x1="1154.0" y1="689.5" x2="1180.0" y2="689.5" stroke="#cc3333" stroke-width="3"/>
<circle cx="1167.0" cy="661.5" r="5" fill="#ff9800" stroke="#5a3a00"/>
<path d="M 1167.0 679.7 L 1174.0 686.7 L 1167.0 693.7 L 1160.0 686.7 Z" fill="black"/>
<text x="1415.0" y="822" text-anchor="middle" class="small">sync_write_4k</text>
<line x1="1373.0" y1="778.9" x2="1373.0" y2="777.7" stroke="#777777" stroke-width="2"/>
<line x1="1360.0" y1="778.9" x2="1386.0" y2="778.9" stroke="#777777"/>
<line x1="1360.0" y1="777.7" x2="1386.0" y2="777.7" stroke="#777777"/>
<rect x="1360.0" y="778.7" width="26" height="1.0" fill="#777777" fill-opacity="0.25" stroke="#777777"/>
<line x1="1360.0" y1="778.8" x2="1386.0" y2="778.8" stroke="#777777" stroke-width="3"/>
<circle cx="1373.0" cy="778.1" r="5" fill="#ff9800" stroke="#5a3a00"/>
<path d="M 1373.0 771.7 L 1380.0 778.7 L 1373.0 785.7 L 1366.0 778.7 Z" fill="black"/>
<line x1="1415.0" y1="761.0" x2="1415.0" y2="727.3" stroke="#2f6fbb" stroke-width="2"/>
<line x1="1402.0" y1="761.0" x2="1428.0" y2="761.0" stroke="#2f6fbb"/>
<line x1="1402.0" y1="727.3" x2="1428.0" y2="727.3" stroke="#2f6fbb"/>
<rect x="1402.0" y="757.0" width="26" height="2.3" fill="#2f6fbb" fill-opacity="0.25" stroke="#2f6fbb"/>
<line x1="1402.0" y1="758.3" x2="1428.0" y2="758.3" stroke="#2f6fbb" stroke-width="3"/>
<circle cx="1415.0" cy="752.2" r="5" fill="#ff9800" stroke="#5a3a00"/>
<path d="M 1415.0 750.1 L 1422.0 757.1 L 1415.0 764.1 L 1408.0 757.1 Z" fill="black"/>
<line x1="1457.0" y1="665.9" x2="1457.0" y2="502.3" stroke="#cc3333" stroke-width="2"/>
<line x1="1444.0" y1="665.9" x2="1470.0" y2="665.9" stroke="#cc3333"/>
<line x1="1444.0" y1="502.3" x2="1470.0" y2="502.3" stroke="#cc3333"/>
<rect x="1444.0" y="647.0" width="26" height="15.3" fill="#cc3333" fill-opacity="0.25" stroke="#cc3333"/>
<line x1="1444.0" y1="655.7" x2="1470.0" y2="655.7" stroke="#cc3333" stroke-width="3"/>
<circle cx="1457.0" cy="617.9" r="5" fill="#ff9800" stroke="#5a3a00"/>
<path d="M 1457.0 641.8 L 1464.0 648.8 L 1457.0 655.8 L 1450.0 648.8 Z" fill="black"/>
<rect x="130" y="842" width="22" height="14" fill="#777777" fill-opacity="0.35" stroke="#777777"/><text x="160" y="854" class="small">native</text>
<rect x="350" y="842" width="22" height="14" fill="#2f6fbb" fill-opacity="0.35" stroke="#2f6fbb"/><text x="380" y="854" class="small">passthrough</text>
<rect x="570" y="842" width="22" height="14" fill="#cc3333" fill-opacity="0.35" stroke="#cc3333"/><text x="600" y="854" class="small">ScreenFS</text>
<text x="1560" y="884" text-anchor="end" class="small">box p25/p50/p75; whisker p1/p99; orange p95; black mean</text>
</svg>