<svg xmlns="http://www.w3.org/2000/svg" width="1200" height="548" viewBox="0 0 1200 548">
<style>
text{font-family:Inter,Pretendard,Arial,sans-serif;fill:#111827;font-size:13px}
.axis{stroke:#64748b;stroke-width:1}.grid{stroke:#e2e8f0;stroke-width:1}.median{stroke:#111827;stroke-width:2}.whisker{stroke:#475569;stroke-width:1.5}.sample{fill:#0f172a;opacity:.35}
</style>
<text x="210" y="30" font-size="20" font-weight="700">ScreenFS benchmark box plot</text>
<text x="210" y="50">seconds; lower is better; box=min/q1/p50/q3/max; p90/p95/p99 markers shown; timestamp 2026-06-21T01:20:18.001885+00:00</text>
<line class="grid" x1="210.00" y1="60" x2="210.00" y2="488"/>
<text x="210.00" y="523" text-anchor="middle">0.0000</text>
<line class="grid" x1="400.00" y1="60" x2="400.00" y2="488"/>
<text x="400.00" y="523" text-anchor="middle">0.2008</text>
<line class="grid" x1="590.00" y1="60" x2="590.00" y2="488"/>
<text x="590.00" y="523" text-anchor="middle">0.4016</text>
<line class="grid" x1="780.00" y1="60" x2="780.00" y2="488"/>
<text x="780.00" y="523" text-anchor="middle">0.6024</text>
<line class="grid" x1="970.00" y1="60" x2="970.00" y2="488"/>
<text x="970.00" y="523" text-anchor="middle">0.8032</text>
<line class="grid" x1="1160.00" y1="60" x2="1160.00" y2="488"/>
<text x="1160.00" y="523" text-anchor="middle">1.0040</text>
<line class="axis" x1="210" y1="488" x2="1160" y2="488"/>
<text x="12" y="91.00">seq_read (native)</text>
<line class="whisker" x1="215.92" y1="87.00" x2="217.04" y2="87.00"/>
<line class="whisker" x1="215.92" y1="80.00" x2="215.92" y2="94.00"/>
<line class="whisker" x1="217.04" y1="80.00" x2="217.04" y2="94.00"/>
<rect x="216.06" y="78.00" width="1.00" height="18" fill="#94a3b8" opacity="0.28" stroke="#94a3b8"/>
<line class="median" x1="216.50" y1="78.00" x2="216.50" y2="96.00"/>
<circle class="sample" cx="215.95" cy="87.00" r="2.5"/>
<circle class="sample" cx="216.76" cy="87.00" r="2.5"/>
<circle class="sample" cx="216.39" cy="87.00" r="2.5"/>
<circle class="sample" cx="216.61" cy="87.00" r="2.5"/>
<circle class="sample" cx="217.04" cy="87.00" r="2.5"/>
<circle class="sample" cx="216.68" cy="87.00" r="2.5"/>
<circle class="sample" cx="216.65" cy="87.00" r="2.5"/>
<circle class="sample" cx="215.92" cy="87.00" r="2.5"/>
<circle class="sample" cx="215.97" cy="87.00" r="2.5"/>
<circle class="sample" cx="216.34" cy="87.00" r="2.5"/>
<polygon points="216.79,73.00 212.79,81.00 220.79,81.00" fill="#f59e0b"><title>p90 0.007178s</title></polygon>
<polygon points="216.91,74.00 212.91,82.00 220.91,82.00" fill="#ef4444"><title>p95 0.007308s</title></polygon>
<polygon points="217.01,75.00 213.01,83.00 221.01,83.00" fill="#7c3aed"><title>p99 0.007412s</title></polygon>
<text x="1160" y="91.00" text-anchor="end">p50 0.006868s p95 0.007308s</text>
<text x="12" y="125.00">seq_write (native)</text>
<line class="whisker" x1="218.81" y1="121.00" x2="219.58" y2="121.00"/>
<line class="whisker" x1="218.81" y1="114.00" x2="218.81" y2="128.00"/>
<line class="whisker" x1="219.58" y1="114.00" x2="219.58" y2="128.00"/>
<rect x="218.83" y="112.00" width="1.00" height="18" fill="#94a3b8" opacity="0.28" stroke="#94a3b8"/>
<line class="median" x1="219.08" y1="112.00" x2="219.08" y2="130.00"/>
<circle class="sample" cx="218.89" cy="121.00" r="2.5"/>
<circle class="sample" cx="218.81" cy="121.00" r="2.5"/>
<circle class="sample" cx="218.82" cy="121.00" r="2.5"/>
<circle class="sample" cx="218.81" cy="121.00" r="2.5"/>
<circle class="sample" cx="219.58" cy="121.00" r="2.5"/>
<circle class="sample" cx="219.04" cy="121.00" r="2.5"/>
<circle class="sample" cx="219.12" cy="121.00" r="2.5"/>
<circle class="sample" cx="219.46" cy="121.00" r="2.5"/>
<circle class="sample" cx="219.21" cy="121.00" r="2.5"/>
<circle class="sample" cx="219.51" cy="121.00" r="2.5"/>
<polygon points="219.52,107.00 215.52,115.00 223.52,115.00" fill="#f59e0b"><title>p90 0.010058s</title></polygon>
<polygon points="219.55,108.00 215.55,116.00 223.55,116.00" fill="#ef4444"><title>p95 0.010090s</title></polygon>
<polygon points="219.57,109.00 215.57,117.00 223.57,117.00" fill="#7c3aed"><title>p99 0.010116s</title></polygon>
<text x="1160" y="125.00" text-anchor="end">p50 0.009593s p95 0.010090s</text>
<text x="12" y="159.00">small_read (native)</text>
<line class="whisker" x1="210.35" y1="155.00" x2="210.37" y2="155.00"/>
<line class="whisker" x1="210.35" y1="148.00" x2="210.35" y2="162.00"/>
<line class="whisker" x1="210.37" y1="148.00" x2="210.37" y2="162.00"/>
<rect x="210.35" y="146.00" width="1.00" height="18" fill="#94a3b8" opacity="0.28" stroke="#94a3b8"/>
<line class="median" x1="210.36" y1="146.00" x2="210.36" y2="164.00"/>
<circle class="sample" cx="210.36" cy="155.00" r="2.5"/>
<circle class="sample" cx="210.35" cy="155.00" r="2.5"/>
<circle class="sample" cx="210.35" cy="155.00" r="2.5"/>
<circle class="sample" cx="210.37" cy="155.00" r="2.5"/>
<circle class="sample" cx="210.35" cy="155.00" r="2.5"/>
<circle class="sample" cx="210.37" cy="155.00" r="2.5"/>
<circle class="sample" cx="210.36" cy="155.00" r="2.5"/>
<circle class="sample" cx="210.36" cy="155.00" r="2.5"/>
<circle class="sample" cx="210.36" cy="155.00" r="2.5"/>
<circle class="sample" cx="210.35" cy="155.00" r="2.5"/>
<polygon points="210.37,141.00 206.37,149.00 214.37,149.00" fill="#f59e0b"><title>p90 0.000388s</title></polygon>
<polygon points="210.37,142.00 206.37,150.00 214.37,150.00" fill="#ef4444"><title>p95 0.000392s</title></polygon>
<polygon points="210.37,143.00 206.37,151.00 214.37,151.00" fill="#7c3aed"><title>p99 0.000395s</title></polygon>
<text x="1160" y="159.00" text-anchor="end">p50 0.000381s p95 0.000392s</text>
<text x="12" y="193.00">small_write (native)</text>
<line class="whisker" x1="210.58" y1="189.00" x2="210.76" y2="189.00"/>
<line class="whisker" x1="210.58" y1="182.00" x2="210.58" y2="196.00"/>
<line class="whisker" x1="210.76" y1="182.00" x2="210.76" y2="196.00"/>
<rect x="210.60" y="180.00" width="1.00" height="18" fill="#94a3b8" opacity="0.28" stroke="#94a3b8"/>
<line class="median" x1="210.67" y1="180.00" x2="210.67" y2="198.00"/>
<circle class="sample" cx="210.60" cy="189.00" r="2.5"/>
<circle class="sample" cx="210.76" cy="189.00" r="2.5"/>
<circle class="sample" cx="210.58" cy="189.00" r="2.5"/>
<circle class="sample" cx="210.62" cy="189.00" r="2.5"/>
<circle class="sample" cx="210.76" cy="189.00" r="2.5"/>
<circle class="sample" cx="210.70" cy="189.00" r="2.5"/>
<circle class="sample" cx="210.66" cy="189.00" r="2.5"/>
<circle class="sample" cx="210.59" cy="189.00" r="2.5"/>
<circle class="sample" cx="210.68" cy="189.00" r="2.5"/>
<circle class="sample" cx="210.74" cy="189.00" r="2.5"/>
<polygon points="210.76,175.00 206.76,183.00 214.76,183.00" fill="#f59e0b"><title>p90 0.000800s</title></polygon>
<polygon points="210.76,176.00 206.76,184.00 214.76,184.00" fill="#ef4444"><title>p95 0.000804s</title></polygon>
<polygon points="210.76,177.00 206.76,185.00 214.76,185.00" fill="#7c3aed"><title>p99 0.000807s</title></polygon>
<text x="1160" y="193.00" text-anchor="end">p50 0.000708s p95 0.000804s</text>
<text x="12" y="227.00">rand_read_4k (native)</text>
<line class="whisker" x1="221.75" y1="223.00" x2="222.41" y2="223.00"/>
<line class="whisker" x1="221.75" y1="216.00" x2="221.75" y2="230.00"/>
<line class="whisker" x1="222.41" y1="216.00" x2="222.41" y2="230.00"/>
<rect x="222.04" y="214.00" width="1.00" height="18" fill="#94a3b8" opacity="0.28" stroke="#94a3b8"/>
<line class="median" x1="222.10" y1="214.00" x2="222.10" y2="232.00"/>
<circle class="sample" cx="222.41" cy="223.00" r="2.5"/>
<circle class="sample" cx="222.03" cy="223.00" r="2.5"/>
<circle class="sample" cx="222.12" cy="223.00" r="2.5"/>
<circle class="sample" cx="222.08" cy="223.00" r="2.5"/>
<circle class="sample" cx="221.78" cy="223.00" r="2.5"/>
<circle class="sample" cx="222.23" cy="223.00" r="2.5"/>
<circle class="sample" cx="221.75" cy="223.00" r="2.5"/>
<circle class="sample" cx="222.16" cy="223.00" r="2.5"/>
<circle class="sample" cx="222.04" cy="223.00" r="2.5"/>
<circle class="sample" cx="222.13" cy="223.00" r="2.5"/>
<polygon points="222.25,209.00 218.25,217.00 226.25,217.00" fill="#f59e0b"><title>p90 0.012946s</title></polygon>
<polygon points="222.33,210.00 218.33,218.00 226.33,218.00" fill="#ef4444"><title>p95 0.013033s</title></polygon>
<polygon points="222.40,211.00 218.40,219.00 226.40,219.00" fill="#7c3aed"><title>p99 0.013102s</title></polygon>
<text x="1160" y="227.00" text-anchor="end">p50 0.012787s p95 0.013033s</text>
<text x="12" y="261.00">rand_write_4k (native)</text>
<line class="whisker" x1="223.22" y1="257.00" x2="224.65" y2="257.00"/>
<line class="whisker" x1="223.22" y1="250.00" x2="223.22" y2="264.00"/>
<line class="whisker" x1="224.65" y1="250.00" x2="224.65" y2="264.00"/>
<rect x="223.66" y="248.00" width="1.00" height="18" fill="#94a3b8" opacity="0.28" stroke="#94a3b8"/>
<line class="median" x1="223.79" y1="248.00" x2="223.79" y2="266.00"/>
<circle class="sample" cx="224.13" cy="257.00" r="2.5"/>
<circle class="sample" cx="223.69" cy="257.00" r="2.5"/>
<circle class="sample" cx="224.65" cy="257.00" r="2.5"/>
<circle class="sample" cx="224.17" cy="257.00" r="2.5"/>
<circle class="sample" cx="223.94" cy="257.00" r="2.5"/>
<circle class="sample" cx="223.74" cy="257.00" r="2.5"/>
<circle class="sample" cx="223.59" cy="257.00" r="2.5"/>
<circle class="sample" cx="223.22" cy="257.00" r="2.5"/>
<circle class="sample" cx="223.85" cy="257.00" r="2.5"/>
<circle class="sample" cx="223.66" cy="257.00" r="2.5"/>
<polygon points="224.22,243.00 220.22,251.00 228.22,251.00" fill="#f59e0b"><title>p90 0.015024s</title></polygon>
<polygon points="224.43,244.00 220.43,252.00 228.43,252.00" fill="#ef4444"><title>p95 0.015256s</title></polygon>
<polygon points="224.61,245.00 220.61,253.00 228.61,253.00" fill="#7c3aed"><title>p99 0.015441s</title></polygon>
<text x="1160" y="261.00" text-anchor="end">p50 0.014577s p95 0.015256s</text>
<text x="12" y="295.00">seq_read (mounted)</text>
<line class="whisker" x1="249.11" y1="291.00" x2="260.25" y2="291.00"/>
<line class="whisker" x1="249.11" y1="284.00" x2="249.11" y2="298.00"/>
<line class="whisker" x1="260.25" y1="284.00" x2="260.25" y2="298.00"/>
<rect x="249.76" y="282.00" width="8.12" height="18" fill="#2563eb" opacity="0.28" stroke="#2563eb"/>
<line class="median" x1="254.12" y1="282.00" x2="254.12" y2="300.00"/>
<circle class="sample" cx="250.10" cy="291.00" r="2.5"/>
<circle class="sample" cx="249.11" cy="291.00" r="2.5"/>
<circle class="sample" cx="250.67" cy="291.00" r="2.5"/>
<circle class="sample" cx="249.65" cy="291.00" r="2.5"/>
<circle class="sample" cx="249.54" cy="291.00" r="2.5"/>
<circle class="sample" cx="257.84" cy="291.00" r="2.5"/>
<circle class="sample" cx="257.95" cy="291.00" r="2.5"/>
<circle class="sample" cx="257.57" cy="291.00" r="2.5"/>
<circle class="sample" cx="257.90" cy="291.00" r="2.5"/>
<circle class="sample" cx="260.25" cy="291.00" r="2.5"/>
<polygon points="258.18,277.00 254.18,285.00 262.18,285.00" fill="#f59e0b"><title>p90 0.050924s</title></polygon>
<polygon points="259.22,278.00 255.22,286.00 263.22,286.00" fill="#ef4444"><title>p95 0.052017s</title></polygon>
<polygon points="260.05,279.00 256.05,287.00 264.05,287.00" fill="#7c3aed"><title>p99 0.052892s</title></polygon>
<text x="1160" y="295.00" text-anchor="end">p50 0.046631s p95 0.052017s</text>
<text x="12" y="329.00">seq_write (mounted)</text>
<line class="whisker" x1="239.42" y1="325.00" x2="253.74" y2="325.00"/>
<line class="whisker" x1="239.42" y1="318.00" x2="239.42" y2="332.00"/>
<line class="whisker" x1="253.74" y1="318.00" x2="253.74" y2="332.00"/>
<rect x="240.92" y="316.00" width="1.00" height="18" fill="#2563eb" opacity="0.28" stroke="#2563eb"/>
<line class="median" x1="241.25" y1="316.00" x2="241.25" y2="334.00"/>
<circle class="sample" cx="253.74" cy="325.00" r="2.5"/>
<circle class="sample" cx="239.42" cy="325.00" r="2.5"/>
<circle class="sample" cx="240.88" cy="325.00" r="2.5"/>
<circle class="sample" cx="239.91" cy="325.00" r="2.5"/>
<circle class="sample" cx="241.04" cy="325.00" r="2.5"/>
<circle class="sample" cx="241.63" cy="325.00" r="2.5"/>
<circle class="sample" cx="241.81" cy="325.00" r="2.5"/>
<circle class="sample" cx="241.31" cy="325.00" r="2.5"/>
<circle class="sample" cx="241.40" cy="325.00" r="2.5"/>
<circle class="sample" cx="241.20" cy="325.00" r="2.5"/>
<polygon points="243.00,311.00 239.00,319.00 247.00,319.00" fill="#f59e0b"><title>p90 0.034881s</title></polygon>
<polygon points="248.37,312.00 244.37,320.00 252.37,320.00" fill="#ef4444"><title>p95 0.040556s</title></polygon>
<polygon points="252.67,313.00 248.67,321.00 256.67,321.00" fill="#7c3aed"><title>p99 0.045097s</title></polygon>
<text x="1160" y="329.00" text-anchor="end">p50 0.033031s p95 0.040556s</text>
<text x="12" y="363.00">small_read (mounted)</text>
<line class="whisker" x1="227.63" y1="359.00" x2="229.67" y2="359.00"/>
<line class="whisker" x1="227.63" y1="352.00" x2="227.63" y2="366.00"/>
<line class="whisker" x1="229.67" y1="352.00" x2="229.67" y2="366.00"/>
<rect x="228.13" y="350.00" width="1.00" height="18" fill="#2563eb" opacity="0.28" stroke="#2563eb"/>
<line class="median" x1="228.44" y1="350.00" x2="228.44" y2="368.00"/>
<circle class="sample" cx="227.63" cy="359.00" r="2.5"/>
<circle class="sample" cx="228.42" cy="359.00" r="2.5"/>
<circle class="sample" cx="228.58" cy="359.00" r="2.5"/>
<circle class="sample" cx="227.63" cy="359.00" r="2.5"/>
<circle class="sample" cx="228.07" cy="359.00" r="2.5"/>
<circle class="sample" cx="229.67" cy="359.00" r="2.5"/>
<circle class="sample" cx="228.31" cy="359.00" r="2.5"/>
<circle class="sample" cx="228.52" cy="359.00" r="2.5"/>
<circle class="sample" cx="228.45" cy="359.00" r="2.5"/>
<circle class="sample" cx="229.22" cy="359.00" r="2.5"/>
<polygon points="229.26,345.00 225.26,353.00 233.26,353.00" fill="#f59e0b"><title>p90 0.020358s</title></polygon>
<polygon points="229.47,346.00 225.47,354.00 233.47,354.00" fill="#ef4444"><title>p95 0.020576s</title></polygon>
<polygon points="229.63,347.00 225.63,355.00 233.63,355.00" fill="#7c3aed"><title>p99 0.020750s</title></polygon>
<text x="1160" y="363.00" text-anchor="end">p50 0.019487s p95 0.020576s</text>
<text x="12" y="397.00">small_write (mounted)</text>
<line class="whisker" x1="248.90" y1="393.00" x2="254.05" y2="393.00"/>
<line class="whisker" x1="248.90" y1="386.00" x2="248.90" y2="400.00"/>
<line class="whisker" x1="254.05" y1="386.00" x2="254.05" y2="400.00"/>
<rect x="249.95" y="384.00" width="1.85" height="18" fill="#2563eb" opacity="0.28" stroke="#2563eb"/>
<line class="median" x1="250.87" y1="384.00" x2="250.87" y2="402.00"/>
<circle class="sample" cx="254.05" cy="393.00" r="2.5"/>
<circle class="sample" cx="252.02" cy="393.00" r="2.5"/>
<circle class="sample" cx="251.12" cy="393.00" r="2.5"/>
<circle class="sample" cx="248.90" cy="393.00" r="2.5"/>
<circle class="sample" cx="251.09" cy="393.00" r="2.5"/>
<circle class="sample" cx="249.94" cy="393.00" r="2.5"/>
<circle class="sample" cx="252.21" cy="393.00" r="2.5"/>
<circle class="sample" cx="249.83" cy="393.00" r="2.5"/>
<circle class="sample" cx="250.65" cy="393.00" r="2.5"/>
<circle class="sample" cx="249.99" cy="393.00" r="2.5"/>
<polygon points="252.40,379.00 248.40,387.00 256.40,387.00" fill="#f59e0b"><title>p90 0.044809s</title></polygon>
<polygon points="253.23,380.00 249.23,388.00 257.23,388.00" fill="#ef4444"><title>p95 0.045684s</title></polygon>
<polygon points="253.89,381.00 249.89,389.00 257.89,389.00" fill="#7c3aed"><title>p99 0.046384s</title></polygon>
<text x="1160" y="397.00" text-anchor="end">p50 0.043192s p95 0.045684s</text>
<text x="12" y="431.00">rand_read_4k (mounted)</text>
<line class="whisker" x1="692.26" y1="427.00" x2="797.67" y2="427.00"/>
<line class="whisker" x1="692.26" y1="420.00" x2="692.26" y2="434.00"/>
<line class="whisker" x1="797.67" y1="420.00" x2="797.67" y2="434.00"/>
<rect x="745.34" y="418.00" width="42.81" height="18" fill="#2563eb" opacity="0.28" stroke="#2563eb"/>
<line class="median" x1="766.25" y1="418.00" x2="766.25" y2="436.00"/>
<circle class="sample" cx="788.57" cy="427.00" r="2.5"/>
<circle class="sample" cx="763.69" cy="427.00" r="2.5"/>
<circle class="sample" cx="797.67" cy="427.00" r="2.5"/>
<circle class="sample" cx="786.90" cy="427.00" r="2.5"/>
<circle class="sample" cx="766.49" cy="427.00" r="2.5"/>
<circle class="sample" cx="717.68" cy="427.00" r="2.5"/>
<circle class="sample" cx="692.26" cy="427.00" r="2.5"/>
<circle class="sample" cx="797.00" cy="427.00" r="2.5"/>
<circle class="sample" cx="739.23" cy="427.00" r="2.5"/>
<circle class="sample" cx="766.00" cy="427.00" r="2.5"/>
<polygon points="797.06,413.00 793.06,421.00 801.06,421.00" fill="#f59e0b"><title>p90 0.620441s</title></polygon>
<polygon points="797.37,414.00 793.37,422.00 801.37,422.00" fill="#ef4444"><title>p95 0.620761s</title></polygon>
<polygon points="797.61,415.00 793.61,423.00 801.61,423.00" fill="#7c3aed"><title>p99 0.621017s</title></polygon>
<text x="1160" y="431.00" text-anchor="end">p50 0.587871s p95 0.620761s</text>
<text x="12" y="465.00">rand_write_4k (mounted)</text>
<line class="whisker" x1="770.13" y1="461.00" x2="1073.64" y2="461.00"/>
<line class="whisker" x1="770.13" y1="454.00" x2="770.13" y2="468.00"/>
<line class="whisker" x1="1073.64" y1="454.00" x2="1073.64" y2="468.00"/>
<rect x="848.82" y="452.00" width="173.72" height="18" fill="#2563eb" opacity="0.28" stroke="#2563eb"/>
<line class="median" x1="1000.28" y1="452.00" x2="1000.28" y2="470.00"/>
<circle class="sample" cx="1005.21" cy="461.00" r="2.5"/>
<circle class="sample" cx="991.37" cy="461.00" r="2.5"/>
<circle class="sample" cx="997.68" cy="461.00" r="2.5"/>
<circle class="sample" cx="1028.31" cy="461.00" r="2.5"/>
<circle class="sample" cx="1073.64" cy="461.00" r="2.5"/>
<circle class="sample" cx="1057.64" cy="461.00" r="2.5"/>
<circle class="sample" cx="1002.88" cy="461.00" r="2.5"/>
<circle class="sample" cx="770.13" cy="461.00" r="2.5"/>
<circle class="sample" cx="801.30" cy="461.00" r="2.5"/>
<circle class="sample" cx="783.80" cy="461.00" r="2.5"/>
<polygon points="1059.24,447.00 1055.24,455.00 1063.24,455.00" fill="#f59e0b"><title>p90 0.897517s</title></polygon>
<polygon points="1066.44,448.00 1062.44,456.00 1070.44,456.00" fill="#ef4444"><title>p95 0.905127s</title></polygon>
<polygon points="1072.20,449.00 1068.20,457.00 1076.20,457.00" fill="#7c3aed"><title>p99 0.911214s</title></polygon>
<text x="1160" y="465.00" text-anchor="end">p50 0.835206s p95 0.905127s</text>
</svg>