<svg xmlns="http://www.w3.org/2000/svg" width="1200" height="276" viewBox="0 0 1200 276">
<style>
text{font-family:Inter,Pretendard,Arial,sans-serif;fill:#111827;font-size:13px}
.axis{stroke:#64748b;stroke-width:1}.grid{stroke:#e2e8f0;stroke-width:1}.median{stroke:#111827;stroke-width:2}.whisker{stroke:#475569;stroke-width:1.5}.sample{fill:#0f172a;opacity:.35}
</style>
<text x="210" y="30" font-size="20" font-weight="700">ScreenFS benchmark box plot</text>
<text x="210" y="50">seconds; lower is better; box=min/q1/p50/q3/max; p90/p95/p99 markers shown; timestamp 2026-06-24T05:39:37.469348+00:00</text>
<line class="grid" x1="210.00" y1="60" x2="210.00" y2="216"/>
<text x="210.00" y="251" text-anchor="middle">0.0000</text>
<line class="grid" x1="400.00" y1="60" x2="400.00" y2="216"/>
<text x="400.00" y="251" text-anchor="middle">0.0008</text>
<line class="grid" x1="590.00" y1="60" x2="590.00" y2="216"/>
<text x="590.00" y="251" text-anchor="middle">0.0016</text>
<line class="grid" x1="780.00" y1="60" x2="780.00" y2="216"/>
<text x="780.00" y="251" text-anchor="middle">0.0024</text>
<line class="grid" x1="970.00" y1="60" x2="970.00" y2="216"/>
<text x="970.00" y="251" text-anchor="middle">0.0032</text>
<line class="grid" x1="1160.00" y1="60" x2="1160.00" y2="216"/>
<text x="1160.00" y="251" text-anchor="middle">0.0041</text>
<line class="axis" x1="210" y1="216" x2="1160" y2="216"/>
<text x="12" y="91.00">matcher_descendant_readdir (native)</text>
<line class="whisker" x1="216.30" y1="87.00" x2="216.78" y2="87.00"/>
<line class="whisker" x1="216.30" y1="80.00" x2="216.30" y2="94.00"/>
<line class="whisker" x1="216.78" y1="80.00" x2="216.78" y2="94.00"/>
<rect x="216.33" y="78.00" width="1.00" height="18" fill="#94a3b8" opacity="0.28" stroke="#94a3b8"/>
<line class="median" x1="216.39" y1="78.00" x2="216.39" y2="96.00"/>
<circle class="sample" cx="216.78" cy="87.00" r="2.5"/>
<circle class="sample" cx="216.55" cy="87.00" r="2.5"/>
<circle class="sample" cx="216.46" cy="87.00" r="2.5"/>
<circle class="sample" cx="216.35" cy="87.00" r="2.5"/>
<circle class="sample" cx="216.30" cy="87.00" r="2.5"/>
<circle class="sample" cx="216.49" cy="87.00" r="2.5"/>
<circle class="sample" cx="216.35" cy="87.00" r="2.5"/>
<circle class="sample" cx="216.33" cy="87.00" r="2.5"/>
<circle class="sample" cx="216.44" cy="87.00" r="2.5"/>
<circle class="sample" cx="216.32" cy="87.00" r="2.5"/>
<polygon points="216.57,73.00 212.57,81.00 220.57,81.00" fill="#f59e0b"><title>p90 0.000028s</title></polygon>
<polygon points="216.67,74.00 212.67,82.00 220.67,82.00" fill="#ef4444"><title>p95 0.000028s</title></polygon>
<polygon points="216.76,75.00 212.76,83.00 220.76,83.00" fill="#7c3aed"><title>p99 0.000029s</title></polygon>
<text x="1160" y="91.00" text-anchor="end">p50 0.000027s p95 0.000028s</text>
<text x="12" y="125.00">matcher_descendant_readdirplus (native)</text>
<line class="whisker" x1="224.75" y1="121.00" x2="225.29" y2="121.00"/>
<line class="whisker" x1="224.75" y1="114.00" x2="224.75" y2="128.00"/>
<line class="whisker" x1="225.29" y1="114.00" x2="225.29" y2="128.00"/>
<rect x="224.79" y="112.00" width="1.00" height="18" fill="#94a3b8" opacity="0.28" stroke="#94a3b8"/>
<line class="median" x1="224.86" y1="112.00" x2="224.86" y2="130.00"/>
<circle class="sample" cx="225.29" cy="121.00" r="2.5"/>
<circle class="sample" cx="225.11" cy="121.00" r="2.5"/>
<circle class="sample" cx="225.08" cy="121.00" r="2.5"/>
<circle class="sample" cx="224.85" cy="121.00" r="2.5"/>
<circle class="sample" cx="224.87" cy="121.00" r="2.5"/>
<circle class="sample" cx="224.95" cy="121.00" r="2.5"/>
<circle class="sample" cx="224.78" cy="121.00" r="2.5"/>
<circle class="sample" cx="224.75" cy="121.00" r="2.5"/>
<circle class="sample" cx="224.75" cy="121.00" r="2.5"/>
<circle class="sample" cx="224.81" cy="121.00" r="2.5"/>
<polygon points="225.13,107.00 221.13,115.00 229.13,115.00" fill="#f59e0b"><title>p90 0.000065s</title></polygon>
<polygon points="225.21,108.00 221.21,116.00 229.21,116.00" fill="#ef4444"><title>p95 0.000065s</title></polygon>
<polygon points="225.28,109.00 221.28,117.00 229.28,117.00" fill="#7c3aed"><title>p99 0.000065s</title></polygon>
<text x="1160" y="125.00" text-anchor="end">p50 0.000063s p95 0.000065s</text>
<text x="12" y="159.00">matcher_descendant_readdir (mounted)</text>
<line class="whisker" x1="344.87" y1="155.00" x2="352.10" y2="155.00"/>
<line class="whisker" x1="344.87" y1="148.00" x2="344.87" y2="162.00"/>
<line class="whisker" x1="352.10" y1="148.00" x2="352.10" y2="162.00"/>
<rect x="346.21" y="146.00" width="2.69" height="18" fill="#2563eb" opacity="0.28" stroke="#2563eb"/>
<line class="median" x1="348.60" y1="146.00" x2="348.60" y2="164.00"/>
<circle class="sample" cx="352.10" cy="155.00" r="2.5"/>
<circle class="sample" cx="348.68" cy="155.00" r="2.5"/>
<circle class="sample" cx="348.88" cy="155.00" r="2.5"/>
<circle class="sample" cx="350.53" cy="155.00" r="2.5"/>
<circle class="sample" cx="348.53" cy="155.00" r="2.5"/>
<circle class="sample" cx="348.90" cy="155.00" r="2.5"/>
<circle class="sample" cx="346.06" cy="155.00" r="2.5"/>
<circle class="sample" cx="346.64" cy="155.00" r="2.5"/>
<circle class="sample" cx="345.20" cy="155.00" r="2.5"/>
<circle class="sample" cx="344.87" cy="155.00" r="2.5"/>
<polygon points="350.69,141.00 346.69,149.00 354.69,149.00" fill="#f59e0b"><title>p90 0.000601s</title></polygon>
<polygon points="351.39,142.00 347.39,150.00 355.39,150.00" fill="#ef4444"><title>p95 0.000604s</title></polygon>
<polygon points="351.96,143.00 347.96,151.00 355.96,151.00" fill="#7c3aed"><title>p99 0.000606s</title></polygon>
<text x="1160" y="159.00" text-anchor="end">p50 0.000592s p95 0.000604s</text>
<text x="12" y="193.00">matcher_descendant_readdirplus (mounted)</text>
<line class="whisker" x1="987.44" y1="189.00" x2="1073.64" y2="189.00"/>
<line class="whisker" x1="987.44" y1="182.00" x2="987.44" y2="196.00"/>
<line class="whisker" x1="1073.64" y1="182.00" x2="1073.64" y2="196.00"/>
<rect x="1000.05" y="180.00" width="60.64" height="18" fill="#2563eb" opacity="0.28" stroke="#2563eb"/>
<line class="median" x1="1020.21" y1="180.00" x2="1020.21" y2="198.00"/>
<circle class="sample" cx="991.70" cy="189.00" r="2.5"/>
<circle class="sample" cx="987.44" cy="189.00" r="2.5"/>
<circle class="sample" cx="1073.64" cy="189.00" r="2.5"/>
<circle class="sample" cx="1064.49" cy="189.00" r="2.5"/>
<circle class="sample" cx="1028.26" cy="189.00" r="2.5"/>
<circle class="sample" cx="1066.34" cy="189.00" r="2.5"/>
<circle class="sample" cx="1012.15" cy="189.00" r="2.5"/>
<circle class="sample" cx="998.94" cy="189.00" r="2.5"/>
<circle class="sample" cx="1003.37" cy="189.00" r="2.5"/>
<circle class="sample" cx="1049.27" cy="189.00" r="2.5"/>
<polygon points="1067.07,175.00 1063.07,183.00 1071.07,183.00" fill="#f59e0b"><title>p90 0.003660s</title></polygon>
<polygon points="1070.35,176.00 1066.35,184.00 1074.35,184.00" fill="#ef4444"><title>p95 0.003674s</title></polygon>
<polygon points="1072.98,177.00 1068.98,185.00 1076.98,185.00" fill="#7c3aed"><title>p99 0.003685s</title></polygon>
<text x="1160" y="193.00" text-anchor="end">p50 0.003460s p95 0.003674s</text>
</svg>