<svg xmlns="http://www.w3.org/2000/svg" width="1200" height="480" viewBox="0 0 1200 480">
<style>
text{font-family:Inter,Pretendard,Arial,sans-serif;fill:#111827;font-size:13px}
.axis{stroke:#64748b;stroke-width:1}.grid{stroke:#e2e8f0;stroke-width:1}.median{stroke:#111827;stroke-width:2}.whisker{stroke:#475569;stroke-width:1.5}.sample{fill:#0f172a;opacity:.35}
</style>
<text x="210" y="30" font-size="20" font-weight="700">ScreenFS benchmark box plot</text>
<text x="210" y="50">seconds; lower is better; box=min/q1/p50/q3/max; p90/p95/p99 markers shown; timestamp 2026-06-15T20:49:52.122995+00:00</text>
<line class="grid" x1="210.00" y1="60" x2="210.00" y2="420"/>
<text x="210.00" y="455" text-anchor="middle">0.0000</text>
<line class="grid" x1="400.00" y1="60" x2="400.00" y2="420"/>
<text x="400.00" y="455" text-anchor="middle">0.0348</text>
<line class="grid" x1="590.00" y1="60" x2="590.00" y2="420"/>
<text x="590.00" y="455" text-anchor="middle">0.0696</text>
<line class="grid" x1="780.00" y1="60" x2="780.00" y2="420"/>
<text x="780.00" y="455" text-anchor="middle">0.1044</text>
<line class="grid" x1="970.00" y1="60" x2="970.00" y2="420"/>
<text x="970.00" y="455" text-anchor="middle">0.1393</text>
<line class="grid" x1="1160.00" y1="60" x2="1160.00" y2="420"/>
<text x="1160.00" y="455" text-anchor="middle">0.1741</text>
<line class="axis" x1="210" y1="420" x2="1160" y2="420"/>
<text x="12" y="91.00">metadata_lookup [native]</text>
<line class="whisker" x1="242.73" y1="87.00" x2="262.74" y2="87.00"/>
<line class="whisker" x1="242.73" y1="80.00" x2="242.73" y2="94.00"/>
<line class="whisker" x1="262.74" y1="80.00" x2="262.74" y2="94.00"/>
<rect x="242.88" y="78.00" width="17.27" height="18" fill="#94a3b8" opacity="0.28" stroke="#94a3b8"/>
<line class="median" x1="243.77" y1="78.00" x2="243.77" y2="96.00"/>
<circle class="sample" cx="262.74" cy="87.00" r="2.5"/>
<circle class="sample" cx="253.65" cy="87.00" r="2.5"/>
<circle class="sample" cx="242.96" cy="87.00" r="2.5"/>
<circle class="sample" cx="242.73" cy="87.00" r="2.5"/>
<circle class="sample" cx="242.78" cy="87.00" r="2.5"/>
<circle class="sample" cx="242.86" cy="87.00" r="2.5"/>
<circle class="sample" cx="242.95" cy="87.00" r="2.5"/>
<circle class="sample" cx="262.51" cy="87.00" r="2.5"/>
<circle class="sample" cx="262.32" cy="87.00" r="2.5"/>
<circle class="sample" cx="244.58" cy="87.00" r="2.5"/>
<polygon points="262.54,73.00 258.54,81.00 266.54,81.00" fill="#f59e0b"><title>p90 0.009627s</title></polygon>
<polygon points="262.64,74.00 258.64,82.00 266.64,82.00" fill="#ef4444"><title>p95 0.009646s</title></polygon>
<polygon points="262.72,75.00 258.72,83.00 266.72,83.00" fill="#7c3aed"><title>p99 0.009661s</title></polygon>
<text x="1160" y="91.00" text-anchor="end">p50 0.006188s p95 0.009646s</text>
<text x="12" y="125.00">metadata_getattr [native]</text>
<line class="whisker" x1="246.98" y1="121.00" x2="248.79" y2="121.00"/>
<line class="whisker" x1="246.98" y1="114.00" x2="246.98" y2="128.00"/>
<line class="whisker" x1="248.79" y1="114.00" x2="248.79" y2="128.00"/>
<rect x="247.07" y="112.00" width="1.00" height="18" fill="#94a3b8" opacity="0.28" stroke="#94a3b8"/>
<line class="median" x1="247.13" y1="112.00" x2="247.13" y2="130.00"/>
<circle class="sample" cx="247.12" cy="121.00" r="2.5"/>
<circle class="sample" cx="247.06" cy="121.00" r="2.5"/>
<circle class="sample" cx="247.13" cy="121.00" r="2.5"/>
<circle class="sample" cx="247.19" cy="121.00" r="2.5"/>
<circle class="sample" cx="247.28" cy="121.00" r="2.5"/>
<circle class="sample" cx="247.36" cy="121.00" r="2.5"/>
<circle class="sample" cx="248.79" cy="121.00" r="2.5"/>
<circle class="sample" cx="246.98" cy="121.00" r="2.5"/>
<circle class="sample" cx="247.06" cy="121.00" r="2.5"/>
<circle class="sample" cx="247.09" cy="121.00" r="2.5"/>
<polygon points="247.51,107.00 243.51,115.00 251.51,115.00" fill="#f59e0b"><title>p90 0.006873s</title></polygon>
<polygon points="248.15,108.00 244.15,116.00 252.15,116.00" fill="#ef4444"><title>p95 0.006990s</title></polygon>
<polygon points="248.66,109.00 244.66,117.00 252.66,117.00" fill="#7c3aed"><title>p99 0.007084s</title></polygon>
<text x="1160" y="125.00" text-anchor="end">p50 0.006803s p95 0.006990s</text>
<text x="12" y="159.00">metadata_open [native]</text>
<line class="whisker" x1="245.98" y1="155.00" x2="246.17" y2="155.00"/>
<line class="whisker" x1="245.98" y1="148.00" x2="245.98" y2="162.00"/>
<line class="whisker" x1="246.17" y1="148.00" x2="246.17" y2="162.00"/>
<rect x="246.07" y="146.00" width="1.00" height="18" fill="#94a3b8" opacity="0.28" stroke="#94a3b8"/>
<line class="median" x1="246.10" y1="146.00" x2="246.10" y2="164.00"/>
<circle class="sample" cx="246.11" cy="155.00" r="2.5"/>
<circle class="sample" cx="246.09" cy="155.00" r="2.5"/>
<circle class="sample" cx="246.10" cy="155.00" r="2.5"/>
<circle class="sample" cx="246.13" cy="155.00" r="2.5"/>
<circle class="sample" cx="246.16" cy="155.00" r="2.5"/>
<circle class="sample" cx="246.12" cy="155.00" r="2.5"/>
<circle class="sample" cx="246.17" cy="155.00" r="2.5"/>
<circle class="sample" cx="246.06" cy="155.00" r="2.5"/>
<circle class="sample" cx="246.03" cy="155.00" r="2.5"/>
<circle class="sample" cx="245.98" cy="155.00" r="2.5"/>
<polygon points="246.16,141.00 242.16,149.00 250.16,149.00" fill="#f59e0b"><title>p90 0.006626s</title></polygon>
<polygon points="246.17,142.00 242.17,150.00 250.17,150.00" fill="#ef4444"><title>p95 0.006627s</title></polygon>
<polygon points="246.17,143.00 242.17,151.00 250.17,151.00" fill="#7c3aed"><title>p99 0.006628s</title></polygon>
<text x="1160" y="159.00" text-anchor="end">p50 0.006616s p95 0.006627s</text>
<text x="12" y="193.00">metadata_readlink [native]</text>
<line class="whisker" x1="215.90" y1="189.00" x2="215.94" y2="189.00"/>
<line class="whisker" x1="215.90" y1="182.00" x2="215.90" y2="196.00"/>
<line class="whisker" x1="215.94" y1="182.00" x2="215.94" y2="196.00"/>
<rect x="215.90" y="180.00" width="1.00" height="18" fill="#94a3b8" opacity="0.28" stroke="#94a3b8"/>
<line class="median" x1="215.92" y1="180.00" x2="215.92" y2="198.00"/>
<circle class="sample" cx="215.93" cy="189.00" r="2.5"/>
<circle class="sample" cx="215.90" cy="189.00" r="2.5"/>
<circle class="sample" cx="215.92" cy="189.00" r="2.5"/>
<circle class="sample" cx="215.92" cy="189.00" r="2.5"/>
<circle class="sample" cx="215.92" cy="189.00" r="2.5"/>
<circle class="sample" cx="215.90" cy="189.00" r="2.5"/>
<circle class="sample" cx="215.94" cy="189.00" r="2.5"/>
<circle class="sample" cx="215.90" cy="189.00" r="2.5"/>
<circle class="sample" cx="215.90" cy="189.00" r="2.5"/>
<circle class="sample" cx="215.91" cy="189.00" r="2.5"/>
<polygon points="215.93,175.00 211.93,183.00 219.93,183.00" fill="#f59e0b"><title>p90 0.001086s</title></polygon>
<polygon points="215.93,176.00 211.93,184.00 219.93,184.00" fill="#ef4444"><title>p95 0.001087s</title></polygon>
<polygon points="215.94,177.00 211.94,185.00 219.94,185.00" fill="#7c3aed"><title>p99 0.001088s</title></polygon>
<text x="1160" y="193.00" text-anchor="end">p50 0.001084s p95 0.001087s</text>
<text x="12" y="227.00">metadata_access [native]</text>
<line class="whisker" x1="243.62" y1="223.00" x2="244.09" y2="223.00"/>
<line class="whisker" x1="243.62" y1="216.00" x2="243.62" y2="230.00"/>
<line class="whisker" x1="244.09" y1="216.00" x2="244.09" y2="230.00"/>
<rect x="243.84" y="214.00" width="1.00" height="18" fill="#94a3b8" opacity="0.28" stroke="#94a3b8"/>
<line class="median" x1="243.87" y1="214.00" x2="243.87" y2="232.00"/>
<circle class="sample" cx="243.87" cy="223.00" r="2.5"/>
<circle class="sample" cx="243.95" cy="223.00" r="2.5"/>
<circle class="sample" cx="243.97" cy="223.00" r="2.5"/>
<circle class="sample" cx="244.09" cy="223.00" r="2.5"/>
<circle class="sample" cx="244.03" cy="223.00" r="2.5"/>
<circle class="sample" cx="243.84" cy="223.00" r="2.5"/>
<circle class="sample" cx="243.87" cy="223.00" r="2.5"/>
<circle class="sample" cx="243.84" cy="223.00" r="2.5"/>
<circle class="sample" cx="243.82" cy="223.00" r="2.5"/>
<circle class="sample" cx="243.62" cy="223.00" r="2.5"/>
<polygon points="244.03,209.00 240.03,217.00 248.03,217.00" fill="#f59e0b"><title>p90 0.006236s</title></polygon>
<polygon points="244.06,210.00 240.06,218.00 248.06,218.00" fill="#ef4444"><title>p95 0.006241s</title></polygon>
<polygon points="244.08,211.00 240.08,219.00 248.08,219.00" fill="#7c3aed"><title>p99 0.006245s</title></polygon>
<text x="1160" y="227.00" text-anchor="end">p50 0.006206s p95 0.006241s</text>
<text x="12" y="261.00">metadata_lookup [mounted]</text>
<line class="whisker" x1="774.17" y1="257.00" x2="793.13" y2="257.00"/>
<line class="whisker" x1="774.17" y1="250.00" x2="774.17" y2="264.00"/>
<line class="whisker" x1="793.13" y1="250.00" x2="793.13" y2="264.00"/>
<rect x="774.98" y="248.00" width="1.44" height="18" fill="#2563eb" opacity="0.28" stroke="#2563eb"/>
<line class="median" x1="775.47" y1="248.00" x2="775.47" y2="266.00"/>
<circle class="sample" cx="775.16" cy="257.00" r="2.5"/>
<circle class="sample" cx="775.78" cy="257.00" r="2.5"/>
<circle class="sample" cx="774.21" cy="257.00" r="2.5"/>
<circle class="sample" cx="775.05" cy="257.00" r="2.5"/>
<circle class="sample" cx="774.96" cy="257.00" r="2.5"/>
<circle class="sample" cx="793.13" cy="257.00" r="2.5"/>
<circle class="sample" cx="776.29" cy="257.00" r="2.5"/>
<circle class="sample" cx="779.07" cy="257.00" r="2.5"/>
<circle class="sample" cx="774.17" cy="257.00" r="2.5"/>
<circle class="sample" cx="776.47" cy="257.00" r="2.5"/>
<polygon points="780.48,243.00 776.48,251.00 784.48,251.00" fill="#f59e0b"><title>p90 0.104538s</title></polygon>
<polygon points="786.80,244.00 782.80,252.00 790.80,252.00" fill="#ef4444"><title>p95 0.105697s</title></polygon>
<polygon points="791.86,245.00 787.86,253.00 795.86,253.00" fill="#7c3aed"><title>p99 0.106624s</title></polygon>
<text x="1160" y="261.00" text-anchor="end">p50 0.103619s p95 0.105697s</text>
<text x="12" y="295.00">metadata_getattr [mounted]</text>
<line class="whisker" x1="965.35" y1="291.00" x2="968.18" y2="291.00"/>
<line class="whisker" x1="965.35" y1="284.00" x2="965.35" y2="298.00"/>
<line class="whisker" x1="968.18" y1="284.00" x2="968.18" y2="298.00"/>
<rect x="965.71" y="282.00" width="1.78" height="18" fill="#2563eb" opacity="0.28" stroke="#2563eb"/>
<line class="median" x1="966.21" y1="282.00" x2="966.21" y2="300.00"/>
<circle class="sample" cx="967.69" cy="291.00" r="2.5"/>
<circle class="sample" cx="967.59" cy="291.00" r="2.5"/>
<circle class="sample" cx="965.77" cy="291.00" r="2.5"/>
<circle class="sample" cx="967.17" cy="291.00" r="2.5"/>
<circle class="sample" cx="965.91" cy="291.00" r="2.5"/>
<circle class="sample" cx="965.37" cy="291.00" r="2.5"/>
<circle class="sample" cx="966.51" cy="291.00" r="2.5"/>
<circle class="sample" cx="965.35" cy="291.00" r="2.5"/>
<circle class="sample" cx="965.69" cy="291.00" r="2.5"/>
<circle class="sample" cx="968.18" cy="291.00" r="2.5"/>
<polygon points="967.74,277.00 963.74,285.00 971.74,285.00" fill="#f59e0b"><title>p90 0.138853s</title></polygon>
<polygon points="967.96,278.00 963.96,286.00 971.96,286.00" fill="#ef4444"><title>p95 0.138893s</title></polygon>
<polygon points="968.14,279.00 964.14,287.00 972.14,287.00" fill="#7c3aed"><title>p99 0.138925s</title></polygon>
<text x="1160" y="295.00" text-anchor="end">p50 0.138572s p95 0.138893s</text>
<text x="12" y="329.00">metadata_open [mounted]</text>
<line class="whisker" x1="1016.38" y1="325.00" x2="1073.64" y2="325.00"/>
<line class="whisker" x1="1016.38" y1="318.00" x2="1016.38" y2="332.00"/>
<line class="whisker" x1="1073.64" y1="318.00" x2="1073.64" y2="332.00"/>
<rect x="1023.23" y="316.00" width="13.98" height="18" fill="#2563eb" opacity="0.28" stroke="#2563eb"/>
<line class="median" x1="1032.38" y1="316.00" x2="1032.38" y2="334.00"/>
<circle class="sample" cx="1070.37" cy="325.00" r="2.5"/>
<circle class="sample" cx="1032.77" cy="325.00" r="2.5"/>
<circle class="sample" cx="1035.38" cy="325.00" r="2.5"/>
<circle class="sample" cx="1018.21" cy="325.00" r="2.5"/>
<circle class="sample" cx="1037.83" cy="325.00" r="2.5"/>
<circle class="sample" cx="1025.54" cy="325.00" r="2.5"/>
<circle class="sample" cx="1073.64" cy="325.00" r="2.5"/>
<circle class="sample" cx="1022.46" cy="325.00" r="2.5"/>
<circle class="sample" cx="1016.38" cy="325.00" r="2.5"/>
<circle class="sample" cx="1031.99" cy="325.00" r="2.5"/>
<polygon points="1070.70,311.00 1066.70,319.00 1074.70,319.00" fill="#f59e0b"><title>p90 0.157718s</title></polygon>
<polygon points="1072.17,312.00 1068.17,320.00 1076.17,320.00" fill="#ef4444"><title>p95 0.157988s</title></polygon>
<polygon points="1073.34,313.00 1069.34,321.00 1077.34,321.00" fill="#7c3aed"><title>p99 0.158203s</title></polygon>
<text x="1160" y="329.00" text-anchor="end">p50 0.150698s p95 0.157988s</text>
<text x="12" y="363.00">metadata_readlink [mounted]</text>
<line class="whisker" x1="921.75" y1="359.00" x2="999.39" y2="359.00"/>
<line class="whisker" x1="921.75" y1="352.00" x2="921.75" y2="366.00"/>
<line class="whisker" x1="999.39" y1="352.00" x2="999.39" y2="366.00"/>
<rect x="935.18" y="350.00" width="34.10" height="18" fill="#2563eb" opacity="0.28" stroke="#2563eb"/>
<line class="median" x1="956.99" y1="350.00" x2="956.99" y2="368.00"/>
<circle class="sample" cx="969.74" cy="359.00" r="2.5"/>
<circle class="sample" cx="967.88" cy="359.00" r="2.5"/>
<circle class="sample" cx="969.81" cy="359.00" r="2.5"/>
<circle class="sample" cx="942.71" cy="359.00" r="2.5"/>
<circle class="sample" cx="965.92" cy="359.00" r="2.5"/>
<circle class="sample" cx="948.06" cy="359.00" r="2.5"/>
<circle class="sample" cx="932.67" cy="359.00" r="2.5"/>
<circle class="sample" cx="924.16" cy="359.00" r="2.5"/>
<circle class="sample" cx="921.75" cy="359.00" r="2.5"/>
<circle class="sample" cx="999.39" cy="359.00" r="2.5"/>
<polygon points="972.77,345.00 968.77,353.00 976.77,353.00" fill="#f59e0b"><title>p90 0.139774s</title></polygon>
<polygon points="986.08,346.00 982.08,354.00 990.08,354.00" fill="#ef4444"><title>p95 0.142213s</title></polygon>
<polygon points="996.73,347.00 992.73,355.00 1000.73,355.00" fill="#7c3aed"><title>p99 0.144165s</title></polygon>
<text x="1160" y="363.00" text-anchor="end">p50 0.136883s p95 0.142213s</text>
<text x="12" y="397.00">metadata_access [mounted]</text>
<line class="whisker" x1="1001.42" y1="393.00" x2="1043.55" y2="393.00"/>
<line class="whisker" x1="1001.42" y1="386.00" x2="1001.42" y2="400.00"/>
<line class="whisker" x1="1043.55" y1="386.00" x2="1043.55" y2="400.00"/>
<rect x="1025.12" y="384.00" width="9.83" height="18" fill="#2563eb" opacity="0.28" stroke="#2563eb"/>
<line class="median" x1="1031.27" y1="384.00" x2="1031.27" y2="402.00"/>
<circle class="sample" cx="1022.21" cy="393.00" r="2.5"/>
<circle class="sample" cx="1024.92" cy="393.00" r="2.5"/>
<circle class="sample" cx="1033.96" cy="393.00" r="2.5"/>
<circle class="sample" cx="1029.72" cy="393.00" r="2.5"/>
<circle class="sample" cx="1035.27" cy="393.00" r="2.5"/>
<circle class="sample" cx="1043.55" cy="393.00" r="2.5"/>
<circle class="sample" cx="1032.82" cy="393.00" r="2.5"/>
<circle class="sample" cx="1025.71" cy="393.00" r="2.5"/>
<circle class="sample" cx="1040.57" cy="393.00" r="2.5"/>
<circle class="sample" cx="1001.42" cy="393.00" r="2.5"/>
<polygon points="1040.87,379.00 1036.87,387.00 1044.87,387.00" fill="#f59e0b"><title>p90 0.152253s</title></polygon>
<polygon points="1042.21,380.00 1038.21,388.00 1046.21,388.00" fill="#ef4444"><title>p95 0.152499s</title></polygon>
<polygon points="1043.29,381.00 1039.29,389.00 1047.29,389.00" fill="#7c3aed"><title>p99 0.152696s</title></polygon>
<text x="1160" y="397.00" text-anchor="end">p50 0.150494s p95 0.152499s</text>
</svg>