<svg xmlns="http://www.w3.org/2000/svg" width="1200" height="480" viewBox="0 0 1200 480">
<style>
text{font-family:Inter,Pretendard,Arial,sans-serif;fill:#111827;font-size:13px}
.axis{stroke:#64748b;stroke-width:1}.grid{stroke:#e2e8f0;stroke-width:1}.median{stroke:#111827;stroke-width:2}.whisker{stroke:#475569;stroke-width:1.5}.sample{fill:#0f172a;opacity:.35}
</style>
<text x="210" y="30" font-size="20" font-weight="700">ScreenFS benchmark box plot</text>
<text x="210" y="50">seconds; lower is better; box=min/q1/p50/q3/max; p90/p95/p99 markers shown; timestamp 2026-06-15T20:46:21.188121+00:00</text>
<line class="grid" x1="210.00" y1="60" x2="210.00" y2="420"/>
<text x="210.00" y="455" text-anchor="middle">0.0000</text>
<line class="grid" x1="400.00" y1="60" x2="400.00" y2="420"/>
<text x="400.00" y="455" text-anchor="middle">0.1016</text>
<line class="grid" x1="590.00" y1="60" x2="590.00" y2="420"/>
<text x="590.00" y="455" text-anchor="middle">0.2033</text>
<line class="grid" x1="780.00" y1="60" x2="780.00" y2="420"/>
<text x="780.00" y="455" text-anchor="middle">0.3049</text>
<line class="grid" x1="970.00" y1="60" x2="970.00" y2="420"/>
<text x="970.00" y="455" text-anchor="middle">0.4066</text>
<line class="grid" x1="1160.00" y1="60" x2="1160.00" y2="420"/>
<text x="1160.00" y="455" text-anchor="middle">0.5082</text>
<line class="axis" x1="210" y1="420" x2="1160" y2="420"/>
<text x="12" y="91.00">metadata_lookup [native]</text>
<line class="whisker" x1="256.81" y1="87.00" x2="257.97" y2="87.00"/>
<line class="whisker" x1="256.81" y1="80.00" x2="256.81" y2="94.00"/>
<line class="whisker" x1="257.97" y1="80.00" x2="257.97" y2="94.00"/>
<rect x="257.11" y="78.00" width="1.00" height="18" fill="#94a3b8" opacity="0.28" stroke="#94a3b8"/>
<line class="median" x1="257.23" y1="78.00" x2="257.23" y2="96.00"/>
<circle class="sample" cx="257.25" cy="87.00" r="2.5"/>
<circle class="sample" cx="257.66" cy="87.00" r="2.5"/>
<circle class="sample" cx="257.02" cy="87.00" r="2.5"/>
<circle class="sample" cx="257.19" cy="87.00" r="2.5"/>
<circle class="sample" cx="257.09" cy="87.00" r="2.5"/>
<circle class="sample" cx="257.43" cy="87.00" r="2.5"/>
<circle class="sample" cx="257.21" cy="87.00" r="2.5"/>
<circle class="sample" cx="256.81" cy="87.00" r="2.5"/>
<circle class="sample" cx="257.51" cy="87.00" r="2.5"/>
<circle class="sample" cx="257.97" cy="87.00" r="2.5"/>
<polygon points="257.69,73.00 253.69,81.00 261.69,81.00" fill="#f59e0b"><title>p90 0.025514s</title></polygon>
<polygon points="257.83,74.00 253.83,82.00 261.83,82.00" fill="#ef4444"><title>p95 0.025589s</title></polygon>
<polygon points="257.94,75.00 253.94,83.00 261.94,83.00" fill="#7c3aed"><title>p99 0.025649s</title></polygon>
<text x="1160" y="91.00" text-anchor="end">p50 0.025267s p95 0.025589s</text>
<text x="12" y="125.00">metadata_getattr [native]</text>
<line class="whisker" x1="260.21" y1="121.00" x2="261.88" y2="121.00"/>
<line class="whisker" x1="260.21" y1="114.00" x2="260.21" y2="128.00"/>
<line class="whisker" x1="261.88" y1="114.00" x2="261.88" y2="128.00"/>
<rect x="260.74" y="112.00" width="1.00" height="18" fill="#94a3b8" opacity="0.28" stroke="#94a3b8"/>
<line class="median" x1="261.08" y1="112.00" x2="261.08" y2="130.00"/>
<circle class="sample" cx="261.37" cy="121.00" r="2.5"/>
<circle class="sample" cx="260.21" cy="121.00" r="2.5"/>
<circle class="sample" cx="261.02" cy="121.00" r="2.5"/>
<circle class="sample" cx="261.88" cy="121.00" r="2.5"/>
<circle class="sample" cx="261.68" cy="121.00" r="2.5"/>
<circle class="sample" cx="261.18" cy="121.00" r="2.5"/>
<circle class="sample" cx="260.71" cy="121.00" r="2.5"/>
<circle class="sample" cx="261.14" cy="121.00" r="2.5"/>
<circle class="sample" cx="260.83" cy="121.00" r="2.5"/>
<circle class="sample" cx="260.40" cy="121.00" r="2.5"/>
<polygon points="261.70,107.00 257.70,115.00 265.70,115.00" fill="#f59e0b"><title>p90 0.027658s</title></polygon>
<polygon points="261.79,108.00 257.79,116.00 265.79,116.00" fill="#ef4444"><title>p95 0.027706s</title></polygon>
<polygon points="261.86,109.00 257.86,117.00 265.86,117.00" fill="#7c3aed"><title>p99 0.027745s</title></polygon>
<text x="1160" y="125.00" text-anchor="end">p50 0.027327s p95 0.027706s</text>
<text x="12" y="159.00">metadata_open [native]</text>
<line class="whisker" x1="258.55" y1="155.00" x2="260.70" y2="155.00"/>
<line class="whisker" x1="258.55" y1="148.00" x2="258.55" y2="162.00"/>
<line class="whisker" x1="260.70" y1="148.00" x2="260.70" y2="162.00"/>
<rect x="258.95" y="146.00" width="1.11" height="18" fill="#94a3b8" opacity="0.28" stroke="#94a3b8"/>
<line class="median" x1="259.53" y1="146.00" x2="259.53" y2="164.00"/>
<circle class="sample" cx="258.55" cy="155.00" r="2.5"/>
<circle class="sample" cx="260.09" cy="155.00" r="2.5"/>
<circle class="sample" cx="258.93" cy="155.00" r="2.5"/>
<circle class="sample" cx="259.00" cy="155.00" r="2.5"/>
<circle class="sample" cx="260.36" cy="155.00" r="2.5"/>
<circle class="sample" cx="259.95" cy="155.00" r="2.5"/>
<circle class="sample" cx="260.70" cy="155.00" r="2.5"/>
<circle class="sample" cx="258.92" cy="155.00" r="2.5"/>
<circle class="sample" cx="259.47" cy="155.00" r="2.5"/>
<circle class="sample" cx="259.59" cy="155.00" r="2.5"/>
<polygon points="260.40,141.00 256.40,149.00 264.40,149.00" fill="#f59e0b"><title>p90 0.026960s</title></polygon>
<polygon points="260.55,142.00 256.55,150.00 264.55,150.00" fill="#ef4444"><title>p95 0.027041s</title></polygon>
<polygon points="260.67,143.00 256.67,151.00 264.67,151.00" fill="#7c3aed"><title>p99 0.027106s</title></polygon>
<text x="1160" y="159.00" text-anchor="end">p50 0.026498s p95 0.027041s</text>
<text x="12" y="193.00">metadata_readlink [native]</text>
<line class="whisker" x1="217.53" y1="189.00" x2="217.78" y2="189.00"/>
<line class="whisker" x1="217.53" y1="182.00" x2="217.53" y2="196.00"/>
<line class="whisker" x1="217.78" y1="182.00" x2="217.78" y2="196.00"/>
<rect x="217.63" y="180.00" width="1.00" height="18" fill="#94a3b8" opacity="0.28" stroke="#94a3b8"/>
<line class="median" x1="217.69" y1="180.00" x2="217.69" y2="198.00"/>
<circle class="sample" cx="217.53" cy="189.00" r="2.5"/>
<circle class="sample" cx="217.69" cy="189.00" r="2.5"/>
<circle class="sample" cx="217.72" cy="189.00" r="2.5"/>
<circle class="sample" cx="217.59" cy="189.00" r="2.5"/>
<circle class="sample" cx="217.76" cy="189.00" r="2.5"/>
<circle class="sample" cx="217.68" cy="189.00" r="2.5"/>
<circle class="sample" cx="217.62" cy="189.00" r="2.5"/>
<circle class="sample" cx="217.78" cy="189.00" r="2.5"/>
<circle class="sample" cx="217.78" cy="189.00" r="2.5"/>
<circle class="sample" cx="217.69" cy="189.00" r="2.5"/>
<polygon points="217.78,175.00 213.78,183.00 221.78,183.00" fill="#f59e0b"><title>p90 0.004162s</title></polygon>
<polygon points="217.78,176.00 213.78,184.00 221.78,184.00" fill="#ef4444"><title>p95 0.004163s</title></polygon>
<polygon points="217.78,177.00 213.78,185.00 221.78,185.00" fill="#7c3aed"><title>p99 0.004164s</title></polygon>
<text x="1160" y="193.00" text-anchor="end">p50 0.004114s p95 0.004163s</text>
<text x="12" y="227.00">metadata_access [native]</text>
<line class="whisker" x1="254.63" y1="223.00" x2="257.11" y2="223.00"/>
<line class="whisker" x1="254.63" y1="216.00" x2="254.63" y2="230.00"/>
<line class="whisker" x1="257.11" y1="216.00" x2="257.11" y2="230.00"/>
<rect x="254.99" y="214.00" width="1.00" height="18" fill="#94a3b8" opacity="0.28" stroke="#94a3b8"/>
<line class="median" x1="255.34" y1="214.00" x2="255.34" y2="232.00"/>
<circle class="sample" cx="255.33" cy="223.00" r="2.5"/>
<circle class="sample" cx="255.99" cy="223.00" r="2.5"/>
<circle class="sample" cx="255.34" cy="223.00" r="2.5"/>
<circle class="sample" cx="255.34" cy="223.00" r="2.5"/>
<circle class="sample" cx="255.95" cy="223.00" r="2.5"/>
<circle class="sample" cx="257.11" cy="223.00" r="2.5"/>
<circle class="sample" cx="254.91" cy="223.00" r="2.5"/>
<circle class="sample" cx="254.66" cy="223.00" r="2.5"/>
<circle class="sample" cx="254.63" cy="223.00" r="2.5"/>
<circle class="sample" cx="255.22" cy="223.00" r="2.5"/>
<polygon points="256.10,209.00 252.10,217.00 260.10,217.00" fill="#f59e0b"><title>p90 0.024661s</title></polygon>
<polygon points="256.60,210.00 252.60,218.00 260.60,218.00" fill="#ef4444"><title>p95 0.024931s</title></polygon>
<polygon points="257.00,211.00 253.00,219.00 261.00,219.00" fill="#7c3aed"><title>p99 0.025147s</title></polygon>
<text x="1160" y="227.00" text-anchor="end">p50 0.024254s p95 0.024931s</text>
<text x="12" y="261.00">metadata_lookup [mounted]</text>
<line class="whisker" x1="849.37" y1="257.00" x2="887.51" y2="257.00"/>
<line class="whisker" x1="849.37" y1="250.00" x2="849.37" y2="264.00"/>
<line class="whisker" x1="887.51" y1="250.00" x2="887.51" y2="264.00"/>
<rect x="858.94" y="248.00" width="14.91" height="18" fill="#2563eb" opacity="0.28" stroke="#2563eb"/>
<line class="median" x1="864.25" y1="248.00" x2="864.25" y2="266.00"/>
<circle class="sample" cx="849.37" cy="257.00" r="2.5"/>
<circle class="sample" cx="887.51" cy="257.00" r="2.5"/>
<circle class="sample" cx="852.03" cy="257.00" r="2.5"/>
<circle class="sample" cx="877.97" cy="257.00" r="2.5"/>
<circle class="sample" cx="874.53" cy="257.00" r="2.5"/>
<circle class="sample" cx="859.49" cy="257.00" r="2.5"/>
<circle class="sample" cx="858.75" cy="257.00" r="2.5"/>
<circle class="sample" cx="868.38" cy="257.00" r="2.5"/>
<circle class="sample" cx="860.12" cy="257.00" r="2.5"/>
<circle class="sample" cx="871.80" cy="257.00" r="2.5"/>
<polygon points="878.92,243.00 874.92,251.00 882.92,251.00" fill="#f59e0b"><title>p90 0.357858s</title></polygon>
<polygon points="883.22,244.00 879.22,252.00 887.22,252.00" fill="#ef4444"><title>p95 0.360156s</title></polygon>
<polygon points="886.65,245.00 882.65,253.00 890.65,253.00" fill="#7c3aed"><title>p99 0.361994s</title></polygon>
<text x="1160" y="261.00" text-anchor="end">p50 0.350009s p95 0.360156s</text>
<text x="12" y="295.00">metadata_getattr [mounted]</text>
<line class="whisker" x1="1041.19" y1="291.00" x2="1073.64" y2="291.00"/>
<line class="whisker" x1="1041.19" y1="284.00" x2="1041.19" y2="298.00"/>
<line class="whisker" x1="1073.64" y1="284.00" x2="1073.64" y2="298.00"/>
<rect x="1045.09" y="282.00" width="10.57" height="18" fill="#2563eb" opacity="0.28" stroke="#2563eb"/>
<line class="median" x1="1051.89" y1="282.00" x2="1051.89" y2="300.00"/>
<circle class="sample" cx="1043.88" cy="291.00" r="2.5"/>
<circle class="sample" cx="1073.64" cy="291.00" r="2.5"/>
<circle class="sample" cx="1071.07" cy="291.00" r="2.5"/>
<circle class="sample" cx="1054.61" cy="291.00" r="2.5"/>
<circle class="sample" cx="1041.19" cy="291.00" r="2.5"/>
<circle class="sample" cx="1045.75" cy="291.00" r="2.5"/>
<circle class="sample" cx="1051.49" cy="291.00" r="2.5"/>
<circle class="sample" cx="1056.01" cy="291.00" r="2.5"/>
<circle class="sample" cx="1044.87" cy="291.00" r="2.5"/>
<circle class="sample" cx="1052.28" cy="291.00" r="2.5"/>
<polygon points="1071.32,277.00 1067.32,285.00 1075.32,285.00" fill="#f59e0b"><title>p90 0.460789s</title></polygon>
<polygon points="1072.48,278.00 1068.48,286.00 1076.48,286.00" fill="#ef4444"><title>p95 0.461407s</title></polygon>
<polygon points="1073.41,279.00 1069.41,287.00 1077.41,287.00" fill="#7c3aed"><title>p99 0.461902s</title></polygon>
<text x="1160" y="295.00" text-anchor="end">p50 0.450389s p95 0.461407s</text>
<text x="12" y="329.00">metadata_open [mounted]</text>
<line class="whisker" x1="1038.71" y1="325.00" x2="1068.59" y2="325.00"/>
<line class="whisker" x1="1038.71" y1="318.00" x2="1038.71" y2="332.00"/>
<line class="whisker" x1="1068.59" y1="318.00" x2="1068.59" y2="332.00"/>
<rect x="1045.04" y="316.00" width="16.06" height="18" fill="#2563eb" opacity="0.28" stroke="#2563eb"/>
<line class="median" x1="1058.61" y1="316.00" x2="1058.61" y2="334.00"/>
<circle class="sample" cx="1059.95" cy="325.00" r="2.5"/>
<circle class="sample" cx="1057.28" cy="325.00" r="2.5"/>
<circle class="sample" cx="1068.59" cy="325.00" r="2.5"/>
<circle class="sample" cx="1039.12" cy="325.00" r="2.5"/>
<circle class="sample" cx="1063.54" cy="325.00" r="2.5"/>
<circle class="sample" cx="1061.25" cy="325.00" r="2.5"/>
<circle class="sample" cx="1041.47" cy="325.00" r="2.5"/>
<circle class="sample" cx="1055.76" cy="325.00" r="2.5"/>
<circle class="sample" cx="1060.66" cy="325.00" r="2.5"/>
<circle class="sample" cx="1038.71" cy="325.00" r="2.5"/>
<polygon points="1064.05,311.00 1060.05,319.00 1068.05,319.00" fill="#f59e0b"><title>p90 0.456896s</title></polygon>
<polygon points="1066.32,312.00 1062.32,320.00 1070.32,320.00" fill="#ef4444"><title>p95 0.458110s</title></polygon>
<polygon points="1068.13,313.00 1064.13,321.00 1072.13,321.00" fill="#7c3aed"><title>p99 0.459081s</title></polygon>
<text x="1160" y="329.00" text-anchor="end">p50 0.453988s p95 0.458110s</text>
<text x="12" y="363.00">metadata_readlink [mounted]</text>
<line class="whisker" x1="930.79" y1="359.00" x2="956.21" y2="359.00"/>
<line class="whisker" x1="930.79" y1="352.00" x2="930.79" y2="366.00"/>
<line class="whisker" x1="956.21" y1="352.00" x2="956.21" y2="366.00"/>
<rect x="936.22" y="350.00" width="5.74" height="18" fill="#2563eb" opacity="0.28" stroke="#2563eb"/>
<line class="median" x1="937.30" y1="350.00" x2="937.30" y2="368.00"/>
<circle class="sample" cx="947.39" cy="359.00" r="2.5"/>
<circle class="sample" cx="930.79" cy="359.00" r="2.5"/>
<circle class="sample" cx="942.91" cy="359.00" r="2.5"/>
<circle class="sample" cx="937.24" cy="359.00" r="2.5"/>
<circle class="sample" cx="936.86" cy="359.00" r="2.5"/>
<circle class="sample" cx="936.01" cy="359.00" r="2.5"/>
<circle class="sample" cx="939.10" cy="359.00" r="2.5"/>
<circle class="sample" cx="937.36" cy="359.00" r="2.5"/>
<circle class="sample" cx="933.90" cy="359.00" r="2.5"/>
<circle class="sample" cx="956.21" cy="359.00" r="2.5"/>
<polygon points="948.28,345.00 944.28,353.00 952.28,353.00" fill="#f59e0b"><title>p90 0.394961s</title></polygon>
<polygon points="952.24,346.00 948.24,354.00 956.24,354.00" fill="#ef4444"><title>p95 0.397083s</title></polygon>
<polygon points="955.42,347.00 951.42,355.00 959.42,355.00" fill="#7c3aed"><title>p99 0.398781s</title></polygon>
<text x="1160" y="363.00" text-anchor="end">p50 0.389090s p95 0.397083s</text>
<text x="12" y="397.00">metadata_access [mounted]</text>
<line class="whisker" x1="1007.51" y1="393.00" x2="1048.87" y2="393.00"/>
<line class="whisker" x1="1007.51" y1="386.00" x2="1007.51" y2="400.00"/>
<line class="whisker" x1="1048.87" y1="386.00" x2="1048.87" y2="400.00"/>
<rect x="1026.62" y="384.00" width="8.51" height="18" fill="#2563eb" opacity="0.28" stroke="#2563eb"/>
<line class="median" x1="1029.82" y1="384.00" x2="1029.82" y2="402.00"/>
<circle class="sample" cx="1031.31" cy="393.00" r="2.5"/>
<circle class="sample" cx="1042.77" cy="393.00" r="2.5"/>
<circle class="sample" cx="1048.87" cy="393.00" r="2.5"/>
<circle class="sample" cx="1007.51" cy="393.00" r="2.5"/>
<circle class="sample" cx="1035.34" cy="393.00" r="2.5"/>
<circle class="sample" cx="1027.98" cy="393.00" r="2.5"/>
<circle class="sample" cx="1028.33" cy="393.00" r="2.5"/>
<circle class="sample" cx="1025.35" cy="393.00" r="2.5"/>
<circle class="sample" cx="1026.16" cy="393.00" r="2.5"/>
<circle class="sample" cx="1034.46" cy="393.00" r="2.5"/>
<polygon points="1043.38,379.00 1039.38,387.00 1047.38,387.00" fill="#f59e0b"><title>p90 0.445837s</title></polygon>
<polygon points="1046.12,380.00 1042.12,388.00 1050.12,388.00" fill="#ef4444"><title>p95 0.447306s</title></polygon>
<polygon points="1048.32,381.00 1044.32,389.00 1052.32,389.00" fill="#7c3aed"><title>p99 0.448482s</title></polygon>
<text x="1160" y="397.00" text-anchor="end">p50 0.438585s p95 0.447306s</text>
</svg>