<svg xmlns="http://www.w3.org/2000/svg" width="1200" height="276" viewBox="0 0 1200 276">
<style>
text{font-family:Inter,Pretendard,Arial,sans-serif;fill:#111827;font-size:13px}
.axis{stroke:#64748b;stroke-width:1}.grid{stroke:#e2e8f0;stroke-width:1}.median{stroke:#111827;stroke-width:2}.whisker{stroke:#475569;stroke-width:1.5}.sample{fill:#0f172a;opacity:.35}
</style>
<text x="210" y="30" font-size="20" font-weight="700">ScreenFS benchmark box plot</text>
<text x="210" y="50">seconds; lower is better; box=min/q1/p50/q3/max; p90/p95/p99 markers shown; timestamp 2026-06-23T19:12:01.929743+00:00</text>
<line class="grid" x1="210.00" y1="60" x2="210.00" y2="216"/>
<text x="210.00" y="251" text-anchor="middle">0.0000</text>
<line class="grid" x1="400.00" y1="60" x2="400.00" y2="216"/>
<text x="400.00" y="251" text-anchor="middle">0.0545</text>
<line class="grid" x1="590.00" y1="60" x2="590.00" y2="216"/>
<text x="590.00" y="251" text-anchor="middle">0.1089</text>
<line class="grid" x1="780.00" y1="60" x2="780.00" y2="216"/>
<text x="780.00" y="251" text-anchor="middle">0.1634</text>
<line class="grid" x1="970.00" y1="60" x2="970.00" y2="216"/>
<text x="970.00" y="251" text-anchor="middle">0.2179</text>
<line class="grid" x1="1160.00" y1="60" x2="1160.00" y2="216"/>
<text x="1160.00" y="251" text-anchor="middle">0.2723</text>
<line class="axis" x1="210" y1="216" x2="1160" y2="216"/>
<text x="12" y="91.00">readdir_basic (native)</text>
<line class="whisker" x1="214.12" y1="87.00" x2="214.80" y2="87.00"/>
<line class="whisker" x1="214.12" y1="80.00" x2="214.12" y2="94.00"/>
<line class="whisker" x1="214.80" y1="80.00" x2="214.80" y2="94.00"/>
<rect x="214.26" y="78.00" width="1.00" height="18" fill="#94a3b8" opacity="0.28" stroke="#94a3b8"/>
<line class="median" x1="214.32" y1="78.00" x2="214.32" y2="96.00"/>
<circle class="sample" cx="214.80" cy="87.00" r="2.5"/>
<circle class="sample" cx="214.66" cy="87.00" r="2.5"/>
<circle class="sample" cx="214.32" cy="87.00" r="2.5"/>
<circle class="sample" cx="214.26" cy="87.00" r="2.5"/>
<circle class="sample" cx="214.51" cy="87.00" r="2.5"/>
<circle class="sample" cx="214.43" cy="87.00" r="2.5"/>
<circle class="sample" cx="214.33" cy="87.00" r="2.5"/>
<circle class="sample" cx="214.26" cy="87.00" r="2.5"/>
<circle class="sample" cx="214.12" cy="87.00" r="2.5"/>
<circle class="sample" cx="214.14" cy="87.00" r="2.5"/>
<polygon points="214.67,73.00 210.67,81.00 218.67,81.00" fill="#f59e0b"><title>p90 0.001339s</title></polygon>
<polygon points="214.73,74.00 210.73,82.00 218.73,82.00" fill="#ef4444"><title>p95 0.001357s</title></polygon>
<polygon points="214.79,75.00 210.79,83.00 218.79,83.00" fill="#7c3aed"><title>p99 0.001372s</title></polygon>
<text x="1160" y="91.00" text-anchor="end">p50 0.001239s p95 0.001357s</text>
<text x="12" y="125.00">readdirplus_basic (native)</text>
<line class="whisker" x1="236.50" y1="121.00" x2="238.08" y2="121.00"/>
<line class="whisker" x1="236.50" y1="114.00" x2="236.50" y2="128.00"/>
<line class="whisker" x1="238.08" y1="114.00" x2="238.08" y2="128.00"/>
<rect x="237.29" y="112.00" width="1.00" height="18" fill="#94a3b8" opacity="0.28" stroke="#94a3b8"/>
<line class="median" x1="237.56" y1="112.00" x2="237.56" y2="130.00"/>
<circle class="sample" cx="237.24" cy="121.00" r="2.5"/>
<circle class="sample" cx="238.08" cy="121.00" r="2.5"/>
<circle class="sample" cx="236.54" cy="121.00" r="2.5"/>
<circle class="sample" cx="237.72" cy="121.00" r="2.5"/>
<circle class="sample" cx="237.57" cy="121.00" r="2.5"/>
<circle class="sample" cx="237.42" cy="121.00" r="2.5"/>
<circle class="sample" cx="236.50" cy="121.00" r="2.5"/>
<circle class="sample" cx="237.54" cy="121.00" r="2.5"/>
<circle class="sample" cx="237.58" cy="121.00" r="2.5"/>
<circle class="sample" cx="237.70" cy="121.00" r="2.5"/>
<polygon points="237.76,107.00 233.76,115.00 241.76,115.00" fill="#f59e0b"><title>p90 0.007957s</title></polygon>
<polygon points="237.92,108.00 233.92,116.00 241.92,116.00" fill="#ef4444"><title>p95 0.008003s</title></polygon>
<polygon points="238.05,109.00 234.05,117.00 242.05,117.00" fill="#7c3aed"><title>p99 0.008040s</title></polygon>
<text x="1160" y="125.00" text-anchor="end">p50 0.007900s p95 0.008003s</text>
<text x="12" y="159.00">readdir_basic (mounted)</text>
<line class="whisker" x1="483.37" y1="155.00" x2="506.32" y2="155.00"/>
<line class="whisker" x1="483.37" y1="148.00" x2="483.37" y2="162.00"/>
<line class="whisker" x1="506.32" y1="148.00" x2="506.32" y2="162.00"/>
<rect x="484.38" y="146.00" width="3.79" height="18" fill="#2563eb" opacity="0.28" stroke="#2563eb"/>
<line class="median" x1="485.83" y1="146.00" x2="485.83" y2="164.00"/>
<circle class="sample" cx="483.37" cy="155.00" r="2.5"/>
<circle class="sample" cx="485.93" cy="155.00" r="2.5"/>
<circle class="sample" cx="485.74" cy="155.00" r="2.5"/>
<circle class="sample" cx="488.72" cy="155.00" r="2.5"/>
<circle class="sample" cx="484.32" cy="155.00" r="2.5"/>
<circle class="sample" cx="484.58" cy="155.00" r="2.5"/>
<circle class="sample" cx="488.51" cy="155.00" r="2.5"/>
<circle class="sample" cx="487.15" cy="155.00" r="2.5"/>
<circle class="sample" cx="484.15" cy="155.00" r="2.5"/>
<circle class="sample" cx="506.32" cy="155.00" r="2.5"/>
<polygon points="490.48,141.00 486.48,149.00 494.48,149.00" fill="#f59e0b"><title>p90 0.080405s</title></polygon>
<polygon points="498.40,142.00 494.40,150.00 502.40,150.00" fill="#ef4444"><title>p95 0.082676s</title></polygon>
<polygon points="504.74,143.00 500.74,151.00 508.74,151.00" fill="#7c3aed"><title>p99 0.084492s</title></polygon>
<text x="1160" y="159.00" text-anchor="end">p50 0.079072s p95 0.082676s</text>
<text x="12" y="193.00">readdirplus_basic (mounted)</text>
<line class="whisker" x1="856.25" y1="189.00" x2="1073.64" y2="189.00"/>
<line class="whisker" x1="856.25" y1="182.00" x2="856.25" y2="196.00"/>
<line class="whisker" x1="1073.64" y1="182.00" x2="1073.64" y2="196.00"/>
<rect x="904.40" y="180.00" width="142.00" height="18" fill="#2563eb" opacity="0.28" stroke="#2563eb"/>
<line class="median" x1="1016.31" y1="180.00" x2="1016.31" y2="198.00"/>
<circle class="sample" cx="918.94" cy="189.00" r="2.5"/>
<circle class="sample" cx="1047.45" cy="189.00" r="2.5"/>
<circle class="sample" cx="994.25" cy="189.00" r="2.5"/>
<circle class="sample" cx="895.70" cy="189.00" r="2.5"/>
<circle class="sample" cx="899.56" cy="189.00" r="2.5"/>
<circle class="sample" cx="856.25" cy="189.00" r="2.5"/>
<circle class="sample" cx="1073.64" cy="189.00" r="2.5"/>
<circle class="sample" cx="1060.62" cy="189.00" r="2.5"/>
<circle class="sample" cx="1043.24" cy="189.00" r="2.5"/>
<circle class="sample" cx="1038.37" cy="189.00" r="2.5"/>
<polygon points="1061.92,175.00 1057.92,183.00 1065.92,183.00" fill="#f59e0b"><title>p90 0.244217s</title></polygon>
<polygon points="1067.78,176.00 1063.78,184.00 1071.78,184.00" fill="#ef4444"><title>p95 0.245897s</title></polygon>
<polygon points="1072.46,177.00 1068.46,185.00 1076.46,185.00" fill="#7c3aed"><title>p99 0.247240s</title></polygon>
<text x="1160" y="193.00" text-anchor="end">p50 0.231142s p95 0.245897s</text>
</svg>