<svg xmlns="http://www.w3.org/2000/svg" width="1200" height="276" viewBox="0 0 1200 276">
<style>
text{font-family:Inter,Pretendard,Arial,sans-serif;fill:#111827;font-size:13px}
.axis{stroke:#64748b;stroke-width:1}.grid{stroke:#e2e8f0;stroke-width:1}.median{stroke:#111827;stroke-width:2}.whisker{stroke:#475569;stroke-width:1.5}.sample{fill:#0f172a;opacity:.35}
</style>
<text x="210" y="30" font-size="20" font-weight="700">ScreenFS benchmark box plot</text>
<text x="210" y="50">seconds; lower is better; box=min/q1/p50/q3/max; p90/p95/p99 markers shown; timestamp 2026-06-23T19:12:09.988287+00:00</text>
<line class="grid" x1="210.00" y1="60" x2="210.00" y2="216"/>
<text x="210.00" y="251" text-anchor="middle">0.0000</text>
<line class="grid" x1="400.00" y1="60" x2="400.00" y2="216"/>
<text x="400.00" y="251" text-anchor="middle">0.0942</text>
<line class="grid" x1="590.00" y1="60" x2="590.00" y2="216"/>
<text x="590.00" y="251" text-anchor="middle">0.1883</text>
<line class="grid" x1="780.00" y1="60" x2="780.00" y2="216"/>
<text x="780.00" y="251" text-anchor="middle">0.2825</text>
<line class="grid" x1="970.00" y1="60" x2="970.00" y2="216"/>
<text x="970.00" y="251" text-anchor="middle">0.3766</text>
<line class="grid" x1="1160.00" y1="60" x2="1160.00" y2="216"/>
<text x="1160.00" y="251" text-anchor="middle">0.4708</text>
<line class="axis" x1="210" y1="216" x2="1160" y2="216"/>
<text x="12" y="91.00">readdir_basic (native)</text>
<line class="whisker" x1="213.78" y1="87.00" x2="214.06" y2="87.00"/>
<line class="whisker" x1="213.78" y1="80.00" x2="213.78" y2="94.00"/>
<line class="whisker" x1="214.06" y1="80.00" x2="214.06" y2="94.00"/>
<rect x="213.90" y="78.00" width="1.00" height="18" fill="#94a3b8" opacity="0.28" stroke="#94a3b8"/>
<line class="median" x1="213.95" y1="78.00" x2="213.95" y2="96.00"/>
<circle class="sample" cx="214.02" cy="87.00" r="2.5"/>
<circle class="sample" cx="214.05" cy="87.00" r="2.5"/>
<circle class="sample" cx="213.99" cy="87.00" r="2.5"/>
<circle class="sample" cx="213.95" cy="87.00" r="2.5"/>
<circle class="sample" cx="213.95" cy="87.00" r="2.5"/>
<circle class="sample" cx="213.78" cy="87.00" r="2.5"/>
<circle class="sample" cx="213.88" cy="87.00" r="2.5"/>
<circle class="sample" cx="213.88" cy="87.00" r="2.5"/>
<circle class="sample" cx="213.95" cy="87.00" r="2.5"/>
<circle class="sample" cx="214.06" cy="87.00" r="2.5"/>
<polygon points="214.05,73.00 210.05,81.00 218.05,81.00" fill="#f59e0b"><title>p90 0.002009s</title></polygon>
<polygon points="214.06,74.00 210.06,82.00 218.06,82.00" fill="#ef4444"><title>p95 0.002011s</title></polygon>
<polygon points="214.06,75.00 210.06,83.00 218.06,83.00" fill="#7c3aed"><title>p99 0.002014s</title></polygon>
<text x="1160" y="91.00" text-anchor="end">p50 0.001958s p95 0.002011s</text>
<text x="12" y="125.00">readdirplus_basic (native)</text>
<line class="whisker" x1="220.24" y1="121.00" x2="228.77" y2="121.00"/>
<line class="whisker" x1="220.24" y1="114.00" x2="220.24" y2="128.00"/>
<line class="whisker" x1="228.77" y1="114.00" x2="228.77" y2="128.00"/>
<rect x="220.70" y="112.00" width="1.65" height="18" fill="#94a3b8" opacity="0.28" stroke="#94a3b8"/>
<line class="median" x1="220.89" y1="112.00" x2="220.89" y2="130.00"/>
<circle class="sample" cx="228.77" cy="121.00" r="2.5"/>
<circle class="sample" cx="225.60" cy="121.00" r="2.5"/>
<circle class="sample" cx="222.81" cy="121.00" r="2.5"/>
<circle class="sample" cx="220.82" cy="121.00" r="2.5"/>
<circle class="sample" cx="220.24" cy="121.00" r="2.5"/>
<circle class="sample" cx="220.91" cy="121.00" r="2.5"/>
<circle class="sample" cx="220.99" cy="121.00" r="2.5"/>
<circle class="sample" cx="220.57" cy="121.00" r="2.5"/>
<circle class="sample" cx="220.88" cy="121.00" r="2.5"/>
<circle class="sample" cx="220.66" cy="121.00" r="2.5"/>
<polygon points="225.92,107.00 221.92,115.00 229.92,115.00" fill="#f59e0b"><title>p90 0.007887s</title></polygon>
<polygon points="227.34,108.00 223.34,116.00 231.34,116.00" fill="#ef4444"><title>p95 0.008594s</title></polygon>
<polygon points="228.48,109.00 224.48,117.00 232.48,117.00" fill="#7c3aed"><title>p99 0.009158s</title></polygon>
<text x="1160" y="125.00" text-anchor="end">p50 0.005398s p95 0.008594s</text>
<text x="12" y="159.00">readdir_basic (mounted)</text>
<line class="whisker" x1="533.57" y1="155.00" x2="576.86" y2="155.00"/>
<line class="whisker" x1="533.57" y1="148.00" x2="533.57" y2="162.00"/>
<line class="whisker" x1="576.86" y1="148.00" x2="576.86" y2="162.00"/>
<rect x="546.35" y="146.00" width="21.48" height="18" fill="#2563eb" opacity="0.28" stroke="#2563eb"/>
<line class="median" x1="564.87" y1="146.00" x2="564.87" y2="164.00"/>
<circle class="sample" cx="565.43" cy="155.00" r="2.5"/>
<circle class="sample" cx="568.53" cy="155.00" r="2.5"/>
<circle class="sample" cx="571.46" cy="155.00" r="2.5"/>
<circle class="sample" cx="557.52" cy="155.00" r="2.5"/>
<circle class="sample" cx="564.31" cy="155.00" r="2.5"/>
<circle class="sample" cx="576.86" cy="155.00" r="2.5"/>
<circle class="sample" cx="565.74" cy="155.00" r="2.5"/>
<circle class="sample" cx="542.63" cy="155.00" r="2.5"/>
<circle class="sample" cx="534.60" cy="155.00" r="2.5"/>
<circle class="sample" cx="533.57" cy="155.00" r="2.5"/>
<polygon points="572.00,141.00 568.00,149.00 576.00,149.00" fill="#f59e0b"><title>p90 0.179388s</title></polygon>
<polygon points="574.43,142.00 570.43,150.00 578.43,150.00" fill="#ef4444"><title>p95 0.180592s</title></polygon>
<polygon points="576.37,143.00 572.37,151.00 580.37,151.00" fill="#7c3aed"><title>p99 0.181555s</title></polygon>
<text x="1160" y="159.00" text-anchor="end">p50 0.175853s p95 0.180592s</text>
<text x="12" y="193.00">readdirplus_basic (mounted)</text>
<line class="whisker" x1="816.05" y1="189.00" x2="1073.64" y2="189.00"/>
<line class="whisker" x1="816.05" y1="182.00" x2="816.05" y2="196.00"/>
<line class="whisker" x1="1073.64" y1="182.00" x2="1073.64" y2="196.00"/>
<rect x="850.74" y="180.00" width="124.02" height="18" fill="#2563eb" opacity="0.28" stroke="#2563eb"/>
<line class="median" x1="888.12" y1="180.00" x2="888.12" y2="198.00"/>
<circle class="sample" cx="875.65" cy="189.00" r="2.5"/>
<circle class="sample" cx="900.58" cy="189.00" r="2.5"/>
<circle class="sample" cx="871.70" cy="189.00" r="2.5"/>
<circle class="sample" cx="912.71" cy="189.00" r="2.5"/>
<circle class="sample" cx="839.02" cy="189.00" r="2.5"/>
<circle class="sample" cx="816.05" cy="189.00" r="2.5"/>
<circle class="sample" cx="843.76" cy="189.00" r="2.5"/>
<circle class="sample" cx="995.45" cy="189.00" r="2.5"/>
<circle class="sample" cx="1073.64" cy="189.00" r="2.5"/>
<circle class="sample" cx="1044.24" cy="189.00" r="2.5"/>
<polygon points="1047.18,175.00 1043.18,183.00 1051.18,183.00" fill="#f59e0b"><title>p90 0.414861s</title></polygon>
<polygon points="1060.41,176.00 1056.41,184.00 1064.41,184.00" fill="#ef4444"><title>p95 0.421416s</title></polygon>
<polygon points="1070.99,177.00 1066.99,185.00 1074.99,185.00" fill="#7c3aed"><title>p99 0.426659s</title></polygon>
<text x="1160" y="193.00" text-anchor="end">p50 0.336037s p95 0.421416s</text>
</svg>