<svg xmlns="http://www.w3.org/2000/svg" width="1200" height="276" viewBox="0 0 1200 276">
<style>
text{font-family:Inter,Pretendard,Arial,sans-serif;fill:#111827;font-size:13px}
.axis{stroke:#64748b;stroke-width:1}.grid{stroke:#e2e8f0;stroke-width:1}.median{stroke:#111827;stroke-width:2}.whisker{stroke:#475569;stroke-width:1.5}.sample{fill:#0f172a;opacity:.35}
</style>
<text x="210" y="30" font-size="20" font-weight="700">ScreenFS benchmark box plot</text>
<text x="210" y="50">seconds; lower is better; box=min/q1/p50/q3/max; p90/p95/p99 markers shown; timestamp 2026-06-24T13:04:32.993604+00:00</text>
<line class="grid" x1="210.00" y1="60" x2="210.00" y2="216"/>
<text x="210.00" y="251" text-anchor="middle">0.0000</text>
<line class="grid" x1="400.00" y1="60" x2="400.00" y2="216"/>
<text x="400.00" y="251" text-anchor="middle">0.0007</text>
<line class="grid" x1="590.00" y1="60" x2="590.00" y2="216"/>
<text x="590.00" y="251" text-anchor="middle">0.0014</text>
<line class="grid" x1="780.00" y1="60" x2="780.00" y2="216"/>
<text x="780.00" y="251" text-anchor="middle">0.0022</text>
<line class="grid" x1="970.00" y1="60" x2="970.00" y2="216"/>
<text x="970.00" y="251" text-anchor="middle">0.0029</text>
<line class="grid" x1="1160.00" y1="60" x2="1160.00" y2="216"/>
<text x="1160.00" y="251" text-anchor="middle">0.0036</text>
<line class="axis" x1="210" y1="216" x2="1160" y2="216"/>
<text x="12" y="91.00">matcher_descendant_readdir (native)</text>
<line class="whisker" x1="218.67" y1="87.00" x2="219.53" y2="87.00"/>
<line class="whisker" x1="218.67" y1="80.00" x2="218.67" y2="94.00"/>
<line class="whisker" x1="219.53" y1="80.00" x2="219.53" y2="94.00"/>
<rect x="218.72" y="78.00" width="1.00" height="18" fill="#94a3b8" opacity="0.28" stroke="#94a3b8"/>
<line class="median" x1="218.82" y1="78.00" x2="218.82" y2="96.00"/>
<circle class="sample" cx="219.53" cy="87.00" r="2.5"/>
<circle class="sample" cx="219.14" cy="87.00" r="2.5"/>
<circle class="sample" cx="218.72" cy="87.00" r="2.5"/>
<circle class="sample" cx="218.96" cy="87.00" r="2.5"/>
<circle class="sample" cx="218.90" cy="87.00" r="2.5"/>
<circle class="sample" cx="218.87" cy="87.00" r="2.5"/>
<circle class="sample" cx="218.67" cy="87.00" r="2.5"/>
<circle class="sample" cx="218.72" cy="87.00" r="2.5"/>
<circle class="sample" cx="218.68" cy="87.00" r="2.5"/>
<circle class="sample" cx="218.77" cy="87.00" r="2.5"/>
<polygon points="219.18,73.00 215.18,81.00 223.18,81.00" fill="#f59e0b"><title>p90 0.000035s</title></polygon>
<polygon points="219.35,74.00 215.35,82.00 223.35,82.00" fill="#ef4444"><title>p95 0.000035s</title></polygon>
<polygon points="219.49,75.00 215.49,83.00 223.49,83.00" fill="#7c3aed"><title>p99 0.000036s</title></polygon>
<text x="1160" y="91.00" text-anchor="end">p50 0.000033s p95 0.000035s</text>
<text x="12" y="125.00">matcher_descendant_readdirplus (native)</text>
<line class="whisker" x1="230.66" y1="121.00" x2="234.05" y2="121.00"/>
<line class="whisker" x1="230.66" y1="114.00" x2="230.66" y2="128.00"/>
<line class="whisker" x1="234.05" y1="114.00" x2="234.05" y2="128.00"/>
<rect x="230.99" y="112.00" width="2.31" height="18" fill="#94a3b8" opacity="0.28" stroke="#94a3b8"/>
<line class="median" x1="231.36" y1="112.00" x2="231.36" y2="130.00"/>
<circle class="sample" cx="234.05" cy="121.00" r="2.5"/>
<circle class="sample" cx="233.82" cy="121.00" r="2.5"/>
<circle class="sample" cx="233.91" cy="121.00" r="2.5"/>
<circle class="sample" cx="231.72" cy="121.00" r="2.5"/>
<circle class="sample" cx="230.66" cy="121.00" r="2.5"/>
<circle class="sample" cx="231.75" cy="121.00" r="2.5"/>
<circle class="sample" cx="230.98" cy="121.00" r="2.5"/>
<circle class="sample" cx="231.01" cy="121.00" r="2.5"/>
<circle class="sample" cx="230.84" cy="121.00" r="2.5"/>
<circle class="sample" cx="231.00" cy="121.00" r="2.5"/>
<polygon points="233.93,107.00 229.93,115.00 237.93,115.00" fill="#f59e0b"><title>p90 0.000090s</title></polygon>
<polygon points="233.99,108.00 229.99,116.00 237.99,116.00" fill="#ef4444"><title>p95 0.000091s</title></polygon>
<polygon points="234.03,109.00 230.03,117.00 238.03,117.00" fill="#7c3aed"><title>p99 0.000091s</title></polygon>
<text x="1160" y="125.00" text-anchor="end">p50 0.000081s p95 0.000091s</text>
<text x="12" y="159.00">matcher_descendant_readdir (mounted)</text>
<line class="whisker" x1="352.67" y1="155.00" x2="386.44" y2="155.00"/>
<line class="whisker" x1="352.67" y1="148.00" x2="352.67" y2="162.00"/>
<line class="whisker" x1="386.44" y1="148.00" x2="386.44" y2="162.00"/>
<rect x="354.26" y="146.00" width="1.95" height="18" fill="#2563eb" opacity="0.28" stroke="#2563eb"/>
<line class="median" x1="355.26" y1="146.00" x2="355.26" y2="164.00"/>
<circle class="sample" cx="354.79" cy="155.00" r="2.5"/>
<circle class="sample" cx="354.09" cy="155.00" r="2.5"/>
<circle class="sample" cx="356.24" cy="155.00" r="2.5"/>
<circle class="sample" cx="386.44" cy="155.00" r="2.5"/>
<circle class="sample" cx="356.15" cy="155.00" r="2.5"/>
<circle class="sample" cx="362.79" cy="155.00" r="2.5"/>
<circle class="sample" cx="355.56" cy="155.00" r="2.5"/>
<circle class="sample" cx="354.05" cy="155.00" r="2.5"/>
<circle class="sample" cx="352.67" cy="155.00" r="2.5"/>
<circle class="sample" cx="354.96" cy="155.00" r="2.5"/>
<polygon points="365.16,141.00 361.16,149.00 369.16,149.00" fill="#f59e0b"><title>p90 0.000587s</title></polygon>
<polygon points="375.80,142.00 371.80,150.00 379.80,150.00" fill="#ef4444"><title>p95 0.000627s</title></polygon>
<polygon points="384.31,143.00 380.31,151.00 388.31,151.00" fill="#7c3aed"><title>p99 0.000659s</title></polygon>
<text x="1160" y="159.00" text-anchor="end">p50 0.000549s p95 0.000627s</text>
<text x="12" y="193.00">matcher_descendant_readdirplus (mounted)</text>
<line class="whisker" x1="850.20" y1="189.00" x2="1073.64" y2="189.00"/>
<line class="whisker" x1="850.20" y1="182.00" x2="850.20" y2="196.00"/>
<line class="whisker" x1="1073.64" y1="182.00" x2="1073.64" y2="196.00"/>
<rect x="898.41" y="180.00" width="127.43" height="18" fill="#2563eb" opacity="0.28" stroke="#2563eb"/>
<line class="median" x1="979.86" y1="180.00" x2="979.86" y2="198.00"/>
<circle class="sample" cx="974.10" cy="189.00" r="2.5"/>
<circle class="sample" cx="989.71" cy="189.00" r="2.5"/>
<circle class="sample" cx="1037.88" cy="189.00" r="2.5"/>
<circle class="sample" cx="1073.64" cy="189.00" r="2.5"/>
<circle class="sample" cx="943.94" cy="189.00" r="2.5"/>
<circle class="sample" cx="850.20" cy="189.00" r="2.5"/>
<circle class="sample" cx="883.23" cy="189.00" r="2.5"/>
<circle class="sample" cx="852.00" cy="189.00" r="2.5"/>
<circle class="sample" cx="1055.07" cy="189.00" r="2.5"/>
<circle class="sample" cx="985.62" cy="189.00" r="2.5"/>
<polygon points="1056.92,175.00 1052.92,183.00 1060.92,183.00" fill="#f59e0b"><title>p90 0.003203s</title></polygon>
<polygon points="1065.28,176.00 1061.28,184.00 1069.28,184.00" fill="#ef4444"><title>p95 0.003235s</title></polygon>
<polygon points="1071.97,177.00 1067.97,185.00 1075.97,185.00" fill="#7c3aed"><title>p99 0.003260s</title></polygon>
<text x="1160" y="193.00" text-anchor="end">p50 0.002912s p95 0.003235s</text>
</svg>