<svg xmlns="http://www.w3.org/2000/svg" width="1200" height="276" viewBox="0 0 1200 276">
<style>
text{font-family:Inter,Pretendard,Arial,sans-serif;fill:#111827;font-size:13px}
.axis{stroke:#64748b;stroke-width:1}.grid{stroke:#e2e8f0;stroke-width:1}.median{stroke:#111827;stroke-width:2}.whisker{stroke:#475569;stroke-width:1.5}.sample{fill:#0f172a;opacity:.35}
</style>
<text x="210" y="30" font-size="20" font-weight="700">ScreenFS benchmark box plot</text>
<text x="210" y="50">seconds; lower is better; box=min/q1/p50/q3/max; p90/p95/p99 markers shown; timestamp 2026-06-24T13:04:29.889052+00:00</text>
<line class="grid" x1="210.00" y1="60" x2="210.00" y2="216"/>
<text x="210.00" y="251" text-anchor="middle">0.0000</text>
<line class="grid" x1="400.00" y1="60" x2="400.00" y2="216"/>
<text x="400.00" y="251" text-anchor="middle">0.0010</text>
<line class="grid" x1="590.00" y1="60" x2="590.00" y2="216"/>
<text x="590.00" y="251" text-anchor="middle">0.0020</text>
<line class="grid" x1="780.00" y1="60" x2="780.00" y2="216"/>
<text x="780.00" y="251" text-anchor="middle">0.0030</text>
<line class="grid" x1="970.00" y1="60" x2="970.00" y2="216"/>
<text x="970.00" y="251" text-anchor="middle">0.0041</text>
<line class="grid" x1="1160.00" y1="60" x2="1160.00" y2="216"/>
<text x="1160.00" y="251" text-anchor="middle">0.0051</text>
<line class="axis" x1="210" y1="216" x2="1160" y2="216"/>
<text x="12" y="91.00">matcher_descendant_readdir (native)</text>
<line class="whisker" x1="215.31" y1="87.00" x2="215.69" y2="87.00"/>
<line class="whisker" x1="215.31" y1="80.00" x2="215.31" y2="94.00"/>
<line class="whisker" x1="215.69" y1="80.00" x2="215.69" y2="94.00"/>
<rect x="215.33" y="78.00" width="1.00" height="18" fill="#94a3b8" opacity="0.28" stroke="#94a3b8"/>
<line class="median" x1="215.41" y1="78.00" x2="215.41" y2="96.00"/>
<circle class="sample" cx="215.69" cy="87.00" r="2.5"/>
<circle class="sample" cx="215.44" cy="87.00" r="2.5"/>
<circle class="sample" cx="215.49" cy="87.00" r="2.5"/>
<circle class="sample" cx="215.31" cy="87.00" r="2.5"/>
<circle class="sample" cx="215.44" cy="87.00" r="2.5"/>
<circle class="sample" cx="215.47" cy="87.00" r="2.5"/>
<circle class="sample" cx="215.32" cy="87.00" r="2.5"/>
<circle class="sample" cx="215.33" cy="87.00" r="2.5"/>
<circle class="sample" cx="215.33" cy="87.00" r="2.5"/>
<circle class="sample" cx="215.37" cy="87.00" r="2.5"/>
<polygon points="215.51,73.00 211.51,81.00 219.51,81.00" fill="#f59e0b"><title>p90 0.000029s</title></polygon>
<polygon points="215.60,74.00 211.60,82.00 219.60,82.00" fill="#ef4444"><title>p95 0.000030s</title></polygon>
<polygon points="215.67,75.00 211.67,83.00 219.67,83.00" fill="#7c3aed"><title>p99 0.000030s</title></polygon>
<text x="1160" y="91.00" text-anchor="end">p50 0.000029s p95 0.000030s</text>
<text x="12" y="125.00">matcher_descendant_readdirplus (native)</text>
<line class="whisker" x1="223.33" y1="121.00" x2="224.79" y2="121.00"/>
<line class="whisker" x1="223.33" y1="114.00" x2="223.33" y2="128.00"/>
<line class="whisker" x1="224.79" y1="114.00" x2="224.79" y2="128.00"/>
<rect x="223.65" y="112.00" width="1.00" height="18" fill="#94a3b8" opacity="0.28" stroke="#94a3b8"/>
<line class="median" x1="223.76" y1="112.00" x2="223.76" y2="130.00"/>
<circle class="sample" cx="223.83" cy="121.00" r="2.5"/>
<circle class="sample" cx="224.02" cy="121.00" r="2.5"/>
<circle class="sample" cx="223.87" cy="121.00" r="2.5"/>
<circle class="sample" cx="223.59" cy="121.00" r="2.5"/>
<circle class="sample" cx="224.02" cy="121.00" r="2.5"/>
<circle class="sample" cx="224.79" cy="121.00" r="2.5"/>
<circle class="sample" cx="223.64" cy="121.00" r="2.5"/>
<circle class="sample" cx="223.68" cy="121.00" r="2.5"/>
<circle class="sample" cx="223.33" cy="121.00" r="2.5"/>
<circle class="sample" cx="223.69" cy="121.00" r="2.5"/>
<polygon points="224.10,107.00 220.10,115.00 228.10,115.00" fill="#f59e0b"><title>p90 0.000075s</title></polygon>
<polygon points="224.45,108.00 220.45,116.00 228.45,116.00" fill="#ef4444"><title>p95 0.000077s</title></polygon>
<polygon points="224.72,109.00 220.72,117.00 228.72,117.00" fill="#7c3aed"><title>p99 0.000079s</title></polygon>
<text x="1160" y="125.00" text-anchor="end">p50 0.000073s p95 0.000077s</text>
<text x="12" y="159.00">matcher_descendant_readdir (mounted)</text>
<line class="whisker" x1="331.36" y1="155.00" x2="377.94" y2="155.00"/>
<line class="whisker" x1="331.36" y1="148.00" x2="331.36" y2="162.00"/>
<line class="whisker" x1="377.94" y1="148.00" x2="377.94" y2="162.00"/>
<rect x="333.17" y="146.00" width="9.46" height="18" fill="#2563eb" opacity="0.28" stroke="#2563eb"/>
<line class="median" x1="337.06" y1="146.00" x2="337.06" y2="164.00"/>
<circle class="sample" cx="338.88" cy="155.00" r="2.5"/>
<circle class="sample" cx="331.79" cy="155.00" r="2.5"/>
<circle class="sample" cx="332.74" cy="155.00" r="2.5"/>
<circle class="sample" cx="334.46" cy="155.00" r="2.5"/>
<circle class="sample" cx="338.20" cy="155.00" r="2.5"/>
<circle class="sample" cx="343.88" cy="155.00" r="2.5"/>
<circle class="sample" cx="377.94" cy="155.00" r="2.5"/>
<circle class="sample" cx="345.17" cy="155.00" r="2.5"/>
<circle class="sample" cx="335.92" cy="155.00" r="2.5"/>
<circle class="sample" cx="331.36" cy="155.00" r="2.5"/>
<polygon points="348.44,141.00 344.44,149.00 352.44,149.00" fill="#f59e0b"><title>p90 0.000739s</title></polygon>
<polygon points="363.19,142.00 359.19,150.00 367.19,150.00" fill="#ef4444"><title>p95 0.000817s</title></polygon>
<polygon points="374.99,143.00 370.99,151.00 378.99,151.00" fill="#7c3aed"><title>p99 0.000880s</title></polygon>
<text x="1160" y="159.00" text-anchor="end">p50 0.000678s p95 0.000817s</text>
<text x="12" y="193.00">matcher_descendant_readdirplus (mounted)</text>
<line class="whisker" x1="829.25" y1="189.00" x2="1073.64" y2="189.00"/>
<line class="whisker" x1="829.25" y1="182.00" x2="829.25" y2="196.00"/>
<line class="whisker" x1="1073.64" y1="182.00" x2="1073.64" y2="196.00"/>
<rect x="844.86" y="180.00" width="83.21" height="18" fill="#2563eb" opacity="0.28" stroke="#2563eb"/>
<line class="median" x1="893.84" y1="180.00" x2="893.84" y2="198.00"/>
<circle class="sample" cx="846.64" cy="189.00" r="2.5"/>
<circle class="sample" cx="829.25" cy="189.00" r="2.5"/>
<circle class="sample" cx="830.37" cy="189.00" r="2.5"/>
<circle class="sample" cx="844.27" cy="189.00" r="2.5"/>
<circle class="sample" cx="906.42" cy="189.00" r="2.5"/>
<circle class="sample" cx="935.28" cy="189.00" r="2.5"/>
<circle class="sample" cx="981.69" cy="189.00" r="2.5"/>
<circle class="sample" cx="903.52" cy="189.00" r="2.5"/>
<circle class="sample" cx="884.16" cy="189.00" r="2.5"/>
<circle class="sample" cx="1073.64" cy="189.00" r="2.5"/>
<polygon points="990.88,175.00 986.88,183.00 994.88,183.00" fill="#f59e0b"><title>p90 0.004167s</title></polygon>
<polygon points="1032.26,176.00 1028.26,184.00 1036.26,184.00" fill="#ef4444"><title>p95 0.004387s</title></polygon>
<polygon points="1065.36,177.00 1061.36,185.00 1069.36,185.00" fill="#7c3aed"><title>p99 0.004564s</title></polygon>
<text x="1160" y="193.00" text-anchor="end">p50 0.003649s p95 0.004387s</text>
</svg>