<svg xmlns="http://www.w3.org/2000/svg" width="1200" height="548" viewBox="0 0 1200 548">
<rect width="100%" height="100%" fill="white"/>
<style>
text{font-family:Inter,Pretendard,Arial,sans-serif;fill:#111827;font-size:13px}
.axis{stroke:#64748b;stroke-width:1}.grid{stroke:#e2e8f0;stroke-width:1}.median{stroke:#111827;stroke-width:2}.whisker{stroke:#475569;stroke-width:1.5}.sample{fill:#0f172a;opacity:.35}
</style>
<text x="210" y="30" font-size="20" font-weight="700">ScreenFS benchmark box plot</text>
<text x="210" y="50">seconds; lower is better; box=min/q1/p50/q3/max; p90/p95/p99 markers shown; timestamp 2026-07-01T05:15:52.848895+00:00</text>
<line class="grid" x1="210.00" y1="60" x2="210.00" y2="488"/>
<text x="210.00" y="523" text-anchor="middle">0.0000</text>
<line class="grid" x1="400.00" y1="60" x2="400.00" y2="488"/>
<text x="400.00" y="523" text-anchor="middle">0.2917</text>
<line class="grid" x1="590.00" y1="60" x2="590.00" y2="488"/>
<text x="590.00" y="523" text-anchor="middle">0.5833</text>
<line class="grid" x1="780.00" y1="60" x2="780.00" y2="488"/>
<text x="780.00" y="523" text-anchor="middle">0.8750</text>
<line class="grid" x1="970.00" y1="60" x2="970.00" y2="488"/>
<text x="970.00" y="523" text-anchor="middle">1.1666</text>
<line class="grid" x1="1160.00" y1="60" x2="1160.00" y2="488"/>
<text x="1160.00" y="523" text-anchor="middle">1.4583</text>
<line class="axis" x1="210" y1="488" x2="1160" y2="488"/>
<text x="12" y="91.00">seq_read (native)</text>
<line class="whisker" x1="239.46" y1="87.00" x2="241.87" y2="87.00"/>
<line class="whisker" x1="239.46" y1="80.00" x2="239.46" y2="94.00"/>
<line class="whisker" x1="241.87" y1="80.00" x2="241.87" y2="94.00"/>
<rect x="240.54" y="78.00" width="1.00" height="18" fill="#94a3b8" opacity="0.28" stroke="#94a3b8"/>
<line class="median" x1="240.94" y1="78.00" x2="240.94" y2="96.00"/>
<circle class="sample" cx="239.46" cy="87.00" r="2.5"/>
<circle class="sample" cx="240.94" cy="87.00" r="2.5"/>
<circle class="sample" cx="241.04" cy="87.00" r="2.5"/>
<circle class="sample" cx="240.54" cy="87.00" r="2.5"/>
<circle class="sample" cx="241.87" cy="87.00" r="2.5"/>
<polygon points="241.54,73.00 237.54,81.00 245.54,81.00" fill="#f59e0b"><title>p90 0.048414s</title></polygon>
<polygon points="241.71,74.00 237.71,82.00 245.71,82.00" fill="#ef4444"><title>p95 0.048670s</title></polygon>
<polygon points="241.84,75.00 237.84,83.00 245.84,83.00" fill="#7c3aed"><title>p99 0.048875s</title></polygon>
<text x="1160" y="91.00" text-anchor="end">p50 0.047499s p95 0.048670s</text>
<text x="12" y="125.00">seq_write (native)</text>
<line class="whisker" x1="252.63" y1="121.00" x2="267.91" y2="121.00"/>
<line class="whisker" x1="252.63" y1="114.00" x2="252.63" y2="128.00"/>
<line class="whisker" x1="267.91" y1="114.00" x2="267.91" y2="128.00"/>
<rect x="257.78" y="112.00" width="8.43" height="18" fill="#94a3b8" opacity="0.28" stroke="#94a3b8"/>
<line class="median" x1="266.11" y1="112.00" x2="266.11" y2="130.00"/>
<circle class="sample" cx="266.21" cy="121.00" r="2.5"/>
<circle class="sample" cx="267.91" cy="121.00" r="2.5"/>
<circle class="sample" cx="266.11" cy="121.00" r="2.5"/>
<circle class="sample" cx="252.63" cy="121.00" r="2.5"/>
<circle class="sample" cx="257.78" cy="121.00" r="2.5"/>
<polygon points="267.23,107.00 263.23,115.00 271.23,115.00" fill="#f59e0b"><title>p90 0.087852s</title></polygon>
<polygon points="267.57,108.00 263.57,116.00 271.57,116.00" fill="#ef4444"><title>p95 0.088374s</title></polygon>
<polygon points="267.84,109.00 263.84,117.00 271.84,117.00" fill="#7c3aed"><title>p99 0.088793s</title></polygon>
<text x="1160" y="125.00" text-anchor="end">p50 0.086128s p95 0.088374s</text>
<text x="12" y="159.00">small_read (native)</text>
<line class="whisker" x1="210.47" y1="155.00" x2="210.57" y2="155.00"/>
<line class="whisker" x1="210.47" y1="148.00" x2="210.47" y2="162.00"/>
<line class="whisker" x1="210.57" y1="148.00" x2="210.57" y2="162.00"/>
<rect x="210.47" y="146.00" width="1.00" height="18" fill="#94a3b8" opacity="0.28" stroke="#94a3b8"/>
<line class="median" x1="210.48" y1="146.00" x2="210.48" y2="164.00"/>
<circle class="sample" cx="210.57" cy="155.00" r="2.5"/>
<circle class="sample" cx="210.52" cy="155.00" r="2.5"/>
<circle class="sample" cx="210.48" cy="155.00" r="2.5"/>
<circle class="sample" cx="210.47" cy="155.00" r="2.5"/>
<circle class="sample" cx="210.47" cy="155.00" r="2.5"/>
<polygon points="210.55,141.00 206.55,149.00 214.55,149.00" fill="#f59e0b"><title>p90 0.000844s</title></polygon>
<polygon points="210.56,142.00 206.56,150.00 214.56,150.00" fill="#ef4444"><title>p95 0.000858s</title></polygon>
<polygon points="210.57,143.00 206.57,151.00 214.57,151.00" fill="#7c3aed"><title>p99 0.000868s</title></polygon>
<text x="1160" y="159.00" text-anchor="end">p50 0.000739s p95 0.000858s</text>
<text x="12" y="193.00">small_write (native)</text>
<line class="whisker" x1="210.83" y1="189.00" x2="211.05" y2="189.00"/>
<line class="whisker" x1="210.83" y1="182.00" x2="210.83" y2="196.00"/>
<line class="whisker" x1="211.05" y1="182.00" x2="211.05" y2="196.00"/>
<rect x="210.85" y="180.00" width="1.00" height="18" fill="#94a3b8" opacity="0.28" stroke="#94a3b8"/>
<line class="median" x1="210.88" y1="180.00" x2="210.88" y2="198.00"/>
<circle class="sample" cx="210.98" cy="189.00" r="2.5"/>
<circle class="sample" cx="210.88" cy="189.00" r="2.5"/>
<circle class="sample" cx="210.85" cy="189.00" r="2.5"/>
<circle class="sample" cx="210.83" cy="189.00" r="2.5"/>
<circle class="sample" cx="211.05" cy="189.00" r="2.5"/>
<polygon points="211.02,175.00 207.02,183.00 215.02,183.00" fill="#f59e0b"><title>p90 0.001567s</title></polygon>
<polygon points="211.03,176.00 207.03,184.00 215.03,184.00" fill="#ef4444"><title>p95 0.001588s</title></polygon>
<polygon points="211.05,177.00 207.05,185.00 215.05,185.00" fill="#7c3aed"><title>p99 0.001604s</title></polygon>
<text x="1160" y="193.00" text-anchor="end">p50 0.001350s p95 0.001588s</text>
<text x="12" y="227.00">rand_read_4k (native)</text>
<line class="whisker" x1="225.53" y1="223.00" x2="226.08" y2="223.00"/>
<line class="whisker" x1="225.53" y1="216.00" x2="225.53" y2="230.00"/>
<line class="whisker" x1="226.08" y1="216.00" x2="226.08" y2="230.00"/>
<rect x="225.68" y="214.00" width="1.00" height="18" fill="#94a3b8" opacity="0.28" stroke="#94a3b8"/>
<line class="median" x1="225.89" y1="214.00" x2="225.89" y2="232.00"/>
<circle class="sample" cx="225.96" cy="223.00" r="2.5"/>
<circle class="sample" cx="225.89" cy="223.00" r="2.5"/>
<circle class="sample" cx="226.08" cy="223.00" r="2.5"/>
<circle class="sample" cx="225.68" cy="223.00" r="2.5"/>
<circle class="sample" cx="225.53" cy="223.00" r="2.5"/>
<polygon points="226.03,209.00 222.03,217.00 230.03,217.00" fill="#f59e0b"><title>p90 0.024611s</title></polygon>
<polygon points="226.06,210.00 222.06,218.00 230.06,218.00" fill="#ef4444"><title>p95 0.024651s</title></polygon>
<polygon points="226.08,211.00 222.08,219.00 230.08,219.00" fill="#7c3aed"><title>p99 0.024682s</title></polygon>
<text x="1160" y="227.00" text-anchor="end">p50 0.024393s p95 0.024651s</text>
<text x="12" y="261.00">rand_write_4k (native)</text>
<line class="whisker" x1="235.31" y1="257.00" x2="235.93" y2="257.00"/>
<line class="whisker" x1="235.31" y1="250.00" x2="235.31" y2="264.00"/>
<line class="whisker" x1="235.93" y1="250.00" x2="235.93" y2="264.00"/>
<rect x="235.51" y="248.00" width="1.00" height="18" fill="#94a3b8" opacity="0.28" stroke="#94a3b8"/>
<line class="median" x1="235.63" y1="248.00" x2="235.63" y2="266.00"/>
<circle class="sample" cx="235.93" cy="257.00" r="2.5"/>
<circle class="sample" cx="235.31" cy="257.00" r="2.5"/>
<circle class="sample" cx="235.63" cy="257.00" r="2.5"/>
<circle class="sample" cx="235.74" cy="257.00" r="2.5"/>
<circle class="sample" cx="235.51" cy="257.00" r="2.5"/>
<polygon points="235.85,243.00 231.85,251.00 239.85,251.00" fill="#f59e0b"><title>p90 0.039685s</title></polygon>
<polygon points="235.89,244.00 231.89,252.00 239.89,252.00" fill="#ef4444"><title>p95 0.039743s</title></polygon>
<polygon points="235.92,245.00 231.92,253.00 239.92,253.00" fill="#7c3aed"><title>p99 0.039789s</title></polygon>
<text x="1160" y="261.00" text-anchor="end">p50 0.039345s p95 0.039743s</text>
<text x="12" y="295.00">seq_read (mounted)</text>
<line class="whisker" x1="321.46" y1="291.00" x2="323.70" y2="291.00"/>
<line class="whisker" x1="321.46" y1="284.00" x2="321.46" y2="298.00"/>
<line class="whisker" x1="323.70" y1="284.00" x2="323.70" y2="298.00"/>
<rect x="321.66" y="282.00" width="2.03" height="18" fill="#2563eb" opacity="0.28" stroke="#2563eb"/>
<line class="median" x1="322.64" y1="282.00" x2="322.64" y2="300.00"/>
<circle class="sample" cx="323.69" cy="291.00" r="2.5"/>
<circle class="sample" cx="323.70" cy="291.00" r="2.5"/>
<circle class="sample" cx="321.66" cy="291.00" r="2.5"/>
<circle class="sample" cx="321.46" cy="291.00" r="2.5"/>
<circle class="sample" cx="322.64" cy="291.00" r="2.5"/>
<polygon points="323.70,277.00 319.70,285.00 327.70,285.00" fill="#f59e0b"><title>p90 0.174530s</title></polygon>
<polygon points="323.70,278.00 319.70,286.00 327.70,286.00" fill="#ef4444"><title>p95 0.174532s</title></polygon>
<polygon points="323.70,279.00 319.70,287.00 327.70,287.00" fill="#7c3aed"><title>p99 0.174533s</title></polygon>
<text x="1160" y="295.00" text-anchor="end">p50 0.172900s p95 0.174532s</text>
<text x="12" y="329.00">seq_write (mounted)</text>
<line class="whisker" x1="304.42" y1="325.00" x2="348.68" y2="325.00"/>
<line class="whisker" x1="304.42" y1="318.00" x2="304.42" y2="332.00"/>
<line class="whisker" x1="348.68" y1="318.00" x2="348.68" y2="332.00"/>
<rect x="306.62" y="316.00" width="36.50" height="18" fill="#2563eb" opacity="0.28" stroke="#2563eb"/>
<line class="median" x1="309.93" y1="316.00" x2="309.93" y2="334.00"/>
<circle class="sample" cx="348.68" cy="325.00" r="2.5"/>
<circle class="sample" cx="343.12" cy="325.00" r="2.5"/>
<circle class="sample" cx="306.62" cy="325.00" r="2.5"/>
<circle class="sample" cx="309.93" cy="325.00" r="2.5"/>
<circle class="sample" cx="304.42" cy="325.00" r="2.5"/>
<polygon points="346.46,311.00 342.46,319.00 350.46,319.00" fill="#f59e0b"><title>p90 0.209467s</title></polygon>
<polygon points="347.57,312.00 343.57,320.00 351.57,320.00" fill="#ef4444"><title>p95 0.211175s</title></polygon>
<polygon points="348.46,313.00 344.46,321.00 352.46,321.00" fill="#7c3aed"><title>p99 0.212541s</title></polygon>
<text x="1160" y="329.00" text-anchor="end">p50 0.153395s p95 0.211175s</text>
<text x="12" y="363.00">small_read (mounted)</text>
<line class="whisker" x1="220.72" y1="359.00" x2="222.19" y2="359.00"/>
<line class="whisker" x1="220.72" y1="352.00" x2="220.72" y2="366.00"/>
<line class="whisker" x1="222.19" y1="352.00" x2="222.19" y2="366.00"/>
<rect x="221.42" y="350.00" width="1.00" height="18" fill="#2563eb" opacity="0.28" stroke="#2563eb"/>
<line class="median" x1="221.45" y1="350.00" x2="221.45" y2="368.00"/>
<circle class="sample" cx="220.72" cy="359.00" r="2.5"/>
<circle class="sample" cx="221.50" cy="359.00" r="2.5"/>
<circle class="sample" cx="221.42" cy="359.00" r="2.5"/>
<circle class="sample" cx="221.45" cy="359.00" r="2.5"/>
<circle class="sample" cx="222.19" cy="359.00" r="2.5"/>
<polygon points="221.91,345.00 217.91,353.00 225.91,353.00" fill="#f59e0b"><title>p90 0.018286s</title></polygon>
<polygon points="222.05,346.00 218.05,354.00 226.05,354.00" fill="#ef4444"><title>p95 0.018497s</title></polygon>
<polygon points="222.16,347.00 218.16,355.00 226.16,355.00" fill="#7c3aed"><title>p99 0.018666s</title></polygon>
<text x="1160" y="363.00" text-anchor="end">p50 0.017574s p95 0.018497s</text>
<text x="12" y="397.00">small_write (mounted)</text>
<line class="whisker" x1="240.65" y1="393.00" x2="243.05" y2="393.00"/>
<line class="whisker" x1="240.65" y1="386.00" x2="240.65" y2="400.00"/>
<line class="whisker" x1="243.05" y1="386.00" x2="243.05" y2="400.00"/>
<rect x="241.54" y="384.00" width="1.00" height="18" fill="#2563eb" opacity="0.28" stroke="#2563eb"/>
<line class="median" x1="242.19" y1="384.00" x2="242.19" y2="402.00"/>
<circle class="sample" cx="240.65" cy="393.00" r="2.5"/>
<circle class="sample" cx="243.05" cy="393.00" r="2.5"/>
<circle class="sample" cx="242.19" cy="393.00" r="2.5"/>
<circle class="sample" cx="242.25" cy="393.00" r="2.5"/>
<circle class="sample" cx="241.54" cy="393.00" r="2.5"/>
<polygon points="242.73,379.00 238.73,387.00 246.73,387.00" fill="#f59e0b"><title>p90 0.050238s</title></polygon>
<polygon points="242.89,380.00 238.89,388.00 246.89,388.00" fill="#ef4444"><title>p95 0.050484s</title></polygon>
<polygon points="243.02,381.00 239.02,389.00 247.02,389.00" fill="#7c3aed"><title>p99 0.050680s</title></polygon>
<text x="1160" y="397.00" text-anchor="end">p50 0.049408s p95 0.050484s</text>
<text x="12" y="431.00">rand_read_4k (mounted)</text>
<line class="whisker" x1="557.15" y1="427.00" x2="563.34" y2="427.00"/>
<line class="whisker" x1="557.15" y1="420.00" x2="557.15" y2="434.00"/>
<line class="whisker" x1="563.34" y1="420.00" x2="563.34" y2="434.00"/>
<rect x="557.27" y="418.00" width="5.40" height="18" fill="#2563eb" opacity="0.28" stroke="#2563eb"/>
<line class="median" x1="559.70" y1="418.00" x2="559.70" y2="436.00"/>
<circle class="sample" cx="563.34" cy="427.00" r="2.5"/>
<circle class="sample" cx="562.67" cy="427.00" r="2.5"/>
<circle class="sample" cx="559.70" cy="427.00" r="2.5"/>
<circle class="sample" cx="557.15" cy="427.00" r="2.5"/>
<circle class="sample" cx="557.27" cy="427.00" r="2.5"/>
<polygon points="563.07,413.00 559.07,421.00 567.07,421.00" fill="#f59e0b"><title>p90 0.541979s</title></polygon>
<polygon points="563.20,414.00 559.20,422.00 567.20,422.00" fill="#ef4444"><title>p95 0.542182s</title></polygon>
<polygon points="563.31,415.00 559.31,423.00 567.31,423.00" fill="#7c3aed"><title>p99 0.542344s</title></polygon>
<text x="1160" y="431.00" text-anchor="end">p50 0.536805s p95 0.542182s</text>
<text x="12" y="465.00">rand_write_4k (mounted)</text>
<line class="whisker" x1="898.05" y1="461.00" x2="1073.64" y2="461.00"/>
<line class="whisker" x1="898.05" y1="454.00" x2="898.05" y2="468.00"/>
<line class="whisker" x1="1073.64" y1="454.00" x2="1073.64" y2="468.00"/>
<rect x="909.98" y="452.00" width="95.54" height="18" fill="#2563eb" opacity="0.28" stroke="#2563eb"/>
<line class="median" x1="914.33" y1="452.00" x2="914.33" y2="470.00"/>
<circle class="sample" cx="914.33" cy="461.00" r="2.5"/>
<circle class="sample" cx="898.05" cy="461.00" r="2.5"/>
<circle class="sample" cx="909.98" cy="461.00" r="2.5"/>
<circle class="sample" cx="1073.64" cy="461.00" r="2.5"/>
<circle class="sample" cx="1005.52" cy="461.00" r="2.5"/>
<polygon points="1046.39,447.00 1042.39,455.00 1050.39,455.00" fill="#f59e0b"><title>p90 1.283895s</title></polygon>
<polygon points="1060.01,448.00 1056.01,456.00 1064.01,456.00" fill="#ef4444"><title>p95 1.304806s</title></polygon>
<polygon points="1070.91,449.00 1066.91,457.00 1074.91,457.00" fill="#7c3aed"><title>p99 1.321536s</title></polygon>
<text x="1160" y="465.00" text-anchor="end">p50 1.081174s p95 1.304806s</text>
</svg>